<svg width="70" height="70" viewBox="0 0 70 70" fill="none" xmlns="http://www.w3.org/2000/svg">
<g clip-path="url(#clip0_563_1481)">
<path d="M55.3542 68.052H14.8125" stroke="#1D1617" stroke-width="2" stroke-miterlimit="10"/>
<path d="M14.8125 68.0521C29.2917 68.0521 33.4907 48.5052 33.6354 47.7812H36.5313C36.6761 48.5052 40.875 68.0521 55.3542 68.0521" stroke="#1D1617" stroke-width="2" stroke-miterlimit="10"/>
<path d="M35.0834 47.7812C23.2104 47.7812 15.6813 34.6052 13.3646 20.9948L10.4688 2.89579L35.0834 1.44788L59.6979 2.89579L56.8021 20.9948C54.775 34.1708 46.9563 47.7812 35.0834 47.7812Z" stroke="#1D1617" stroke-width="2" stroke-miterlimit="10"/>
<path d="M35.0834 47.7812H36.5313C54.1959 47.7812 68.3855 33.5916 68.3855 15.927H57.5261" stroke="#1D1617" stroke-width="2" stroke-miterlimit="10"/>
<path d="M35.0834 47.7812H33.6354C15.9709 47.7812 1.78128 33.5916 1.78128 15.927H12.6407" stroke="#1D1617" stroke-width="2" stroke-miterlimit="10"/>
</g>
<defs>
<clipPath id="clip0_563_1481">
<rect width="69.5" height="69.5" fill="white" transform="translate(0.333374)"/>
</clipPath>
</defs>
</svg>
