<svg width="283" height="82" viewBox="0 0 283 82" fill="none" xmlns="http://www.w3.org/2000/svg">
<path d="M281.76 14.3634L256.893 14.2962L256.718 78.6934L241.71 78.6528L241.885 14.2558L217.017 14.1886L217.054 0.959351L281.796 1.13407L281.76 14.3634Z" fill="#000000"/>
<path d="M151.418 78.4092L151.629 0.782837L186.026 0.875663C189.604 0.88532 192.889 1.62307 195.88 3.08893C198.943 4.55498 201.567 6.53006 203.751 9.01418C206.008 11.4985 207.717 14.2729 208.878 17.3374C210.111 20.4021 210.723 23.5379 210.714 26.745C210.705 30.025 210.113 33.1942 208.936 36.2523C207.832 39.2377 206.218 41.8574 204.094 44.1113C201.971 46.3651 199.482 48.1077 196.631 49.3391L214.299 78.5789L197.647 78.534L181.723 52.4695L166.606 52.4288L166.535 78.45L151.418 78.4092ZM166.642 39.1995L185.594 39.2506C187.493 39.2558 189.174 38.7137 190.637 37.6243C192.101 36.462 193.273 34.9345 194.155 33.0417C195.037 31.149 195.481 29.0364 195.487 26.704C195.494 24.2257 194.989 22.0741 193.971 20.2492C192.954 18.3513 191.643 16.8536 190.039 15.7559C188.509 14.6584 186.83 14.1072 185.004 14.1023L166.71 14.0529L166.642 39.1995Z" fill="#000000"/>
<path d="M101.807 78.822C96.1104 78.8066 90.9278 77.6993 86.2597 75.5C81.6646 73.301 77.6924 70.3382 74.3429 66.6119C71.0668 62.8127 68.5221 58.5783 66.7089 53.9085C64.8959 49.1658 63.9962 44.3163 64.0097 39.3598C64.0236 34.1848 64.9864 29.2674 66.8978 24.6076C68.8826 19.8752 71.5596 15.6913 74.9289 12.0559C78.3715 8.34784 82.3962 5.44313 87.0029 3.34178C91.6828 1.16773 96.7978 0.0882028 102.348 0.103181C107.972 0.118357 113.081 1.26192 117.676 3.53389C122.344 5.80605 126.317 8.84167 129.592 12.6408C132.868 16.4398 135.413 20.6743 137.227 25.344C139.04 30.0138 139.939 34.827 139.926 39.7834C139.912 44.8856 138.949 49.803 137.038 54.5357C135.126 59.1954 132.449 63.3793 129.007 67.0874C125.637 70.7227 121.612 73.591 116.933 75.6921C112.326 77.7935 107.284 78.8368 101.807 78.822ZM79.3464 39.4013C79.3372 42.7542 79.8397 45.9991 80.8536 49.136C81.8676 52.273 83.3207 55.0831 85.2128 57.5665C87.1781 59.9772 89.5464 61.9151 92.3173 63.3804C95.1619 64.7729 98.3735 65.474 101.952 65.4837C105.604 65.4935 108.855 64.7734 111.708 63.3233C114.56 61.8004 116.939 59.8023 118.845 57.3292C120.751 54.7833 122.183 51.9809 123.141 48.9221C124.171 45.7907 124.691 42.6579 124.699 39.5236C124.708 36.1708 124.169 32.9622 123.082 29.8979C122.068 26.761 120.579 23.9871 118.613 21.5765C116.721 19.0932 114.353 17.1552 111.508 15.7626C108.737 14.2973 105.598 13.56 102.093 13.5505C98.368 13.5405 95.0797 14.297 92.2278 15.8199C89.4483 17.2702 87.1059 19.2319 85.2004 21.705C83.2948 24.1781 81.8267 26.9439 80.7959 30.0024C79.8382 33.0612 79.355 36.1942 79.3464 39.4013Z" fill="#000000"/>
<path d="M5.38477 79.622V0L68.4678 1.41419e-05L60.5156 13.2293H20.5024L20.5797 33.4389H48.4002L40.1179 47.1047H20.4233L20.5024 79.622H5.38477Z" fill="#000000"/>
</svg>
