<svg width="450" height="281" viewBox="0 0 450 281" fill="none" xmlns="http://www.w3.org/2000/svg">
<rect width="450" height="281" rx="16" fill="#FFFEFD"/>
<rect x="16" y="16" width="418" height="249" rx="16" fill="#FFFEFD"/>
<path d="M34.5483 41V39.3398H38.1094C38.9007 39.3398 39.5011 39.1794 39.9106 38.8584C40.3201 38.5319 40.5249 38.0643 40.5249 37.4556V37.439C40.5249 37.035 40.4308 36.6947 40.2427 36.418C40.0545 36.1413 39.7723 35.9338 39.396 35.7954C39.0252 35.6571 38.5659 35.5879 38.0181 35.5879H34.5483V34.0688H37.686C38.4442 34.0688 39.0197 33.925 39.4126 33.6372C39.811 33.3494 40.0103 32.9344 40.0103 32.3921V32.3755C40.0103 31.8442 39.8304 31.4292 39.4707 31.1304C39.111 30.8315 38.6074 30.6821 37.96 30.6821H34.5483V29.022H38.4746C39.2383 29.022 39.8913 29.1437 40.4336 29.3872C40.9759 29.6252 41.3937 29.9683 41.687 30.4165C41.9803 30.8592 42.127 31.3877 42.127 32.002V32.0186C42.127 32.4391 42.0301 32.832 41.8364 33.1973C41.6483 33.5625 41.3937 33.8669 41.0728 34.1104C40.7573 34.3538 40.3976 34.5088 39.9937 34.5752V34.7246C40.5304 34.7744 41.0008 34.9294 41.4048 35.1895C41.8143 35.444 42.1325 35.7788 42.3594 36.1938C42.5918 36.6089 42.708 37.0737 42.708 37.5884V37.605C42.708 38.3022 42.542 38.9054 42.21 39.4146C41.8835 39.9237 41.4131 40.3166 40.7988 40.5933C40.1846 40.8644 39.4513 41 38.5991 41H34.5483ZM33.4775 41V29.022H35.6191V41H33.4775ZM44.4279 41V31.9272H46.4865V41H44.4279ZM45.4655 30.4082C45.1279 30.4082 44.8374 30.2892 44.5939 30.0513C44.3504 29.8133 44.2287 29.5283 44.2287 29.1963C44.2287 28.8532 44.3504 28.5654 44.5939 28.333C44.8374 28.0951 45.1279 27.9761 45.4655 27.9761C45.8031 27.9761 46.0908 28.0951 46.3288 28.333C46.5723 28.5654 46.694 28.8532 46.694 29.1963C46.694 29.5283 46.5723 29.8133 46.3288 30.0513C46.0908 30.2892 45.8031 30.4082 45.4655 30.4082ZM52.4979 41.1826C51.5848 41.1826 50.8046 40.9945 50.1571 40.6182C49.5096 40.2419 49.0143 39.6995 48.6713 38.9912C48.3282 38.2829 48.1566 37.4362 48.1566 36.4512V36.4346C48.1566 35.4551 48.3282 34.6167 48.6713 33.9194C49.0143 33.2222 49.5096 32.6882 50.1571 32.3174C50.8046 31.9411 51.5821 31.7529 52.4896 31.7529C53.2699 31.7529 53.9395 31.8885 54.4984 32.1597C55.0629 32.4253 55.5083 32.7961 55.8348 33.272C56.1669 33.7424 56.3716 34.293 56.4491 34.9238V34.957H54.4984L54.4901 34.9321C54.396 34.4894 54.1802 34.127 53.8426 33.8447C53.5106 33.5625 53.0624 33.4214 52.4979 33.4214C52.0275 33.4214 51.6236 33.5404 51.286 33.7783C50.954 34.0163 50.6994 34.3594 50.5223 34.8076C50.3452 35.2559 50.2567 35.7982 50.2567 36.4346V36.4512C50.2567 37.0931 50.3452 37.6437 50.5223 38.103C50.7049 38.5568 50.9623 38.9054 51.2943 39.1489C51.6263 39.3869 52.0275 39.5059 52.4979 39.5059C53.0347 39.5059 53.4663 39.3841 53.7928 39.1406C54.1249 38.8971 54.3545 38.5374 54.4818 38.0615L54.4984 38.0283L56.4408 38.02L56.4325 38.0947C56.3329 38.709 56.1171 39.2485 55.785 39.7134C55.4585 40.1782 55.0213 40.5407 54.4735 40.8008C53.9256 41.0553 53.2671 41.1826 52.4979 41.1826ZM61.8711 41.1826C60.9691 41.1826 60.1944 40.9917 59.5469 40.6099C58.905 40.228 58.4097 39.6857 58.0611 38.9829C57.7124 38.2801 57.5381 37.4473 57.5381 36.4844V36.4761C57.5381 35.5243 57.7097 34.6942 58.0528 33.9858C58.4014 33.2775 58.8939 32.7297 59.5303 32.3423C60.1667 31.9494 60.9138 31.7529 61.7715 31.7529C62.6348 31.7529 63.3763 31.9438 63.9961 32.3257C64.6215 32.702 65.1029 33.2305 65.4405 33.9111C65.778 34.5918 65.9468 35.3887 65.9468 36.3018V36.9824H58.5757V35.5962H64.9341L63.9546 36.8911V36.0693C63.9546 35.4661 63.8633 34.9653 63.6807 34.5669C63.4981 34.1685 63.2435 33.8696 62.917 33.6704C62.5961 33.4712 62.2225 33.3716 61.7964 33.3716C61.3703 33.3716 60.9912 33.4767 60.6592 33.687C60.3327 33.8918 60.0726 34.1961 59.8789 34.6001C59.6908 34.9985 59.5967 35.4883 59.5967 36.0693V36.8994C59.5967 37.4583 59.6908 37.937 59.8789 38.3354C60.0671 38.7284 60.3327 39.0327 60.6758 39.2485C61.0245 39.4588 61.4367 39.564 61.9126 39.564C62.2834 39.564 62.6016 39.5114 62.8672 39.4062C63.1384 39.2956 63.357 39.1655 63.523 39.0161C63.689 38.8612 63.8052 38.7145 63.8716 38.5762L63.8965 38.5181H65.8555L65.8389 38.5928C65.767 38.8861 65.6342 39.1849 65.4405 39.4893C65.2523 39.7881 64.995 40.0675 64.6685 40.3276C64.3475 40.5822 63.9546 40.7897 63.4898 40.9502C63.0249 41.1051 62.4854 41.1826 61.8711 41.1826ZM67.5837 44.0132V31.9272H69.6506V33.3467H69.7917C69.9577 33.0202 70.1736 32.7407 70.4392 32.5083C70.7103 32.2759 71.023 32.096 71.3772 31.9688C71.7313 31.8415 72.1215 31.7778 72.5476 31.7778C73.3057 31.7778 73.9615 31.9688 74.5149 32.3506C75.0738 32.7324 75.5054 33.2747 75.8098 33.9775C76.1197 34.6748 76.2746 35.5021 76.2746 36.4595V36.4761C76.2746 37.439 76.1224 38.269 75.8181 38.9663C75.5137 39.6636 75.0821 40.2031 74.5232 40.585C73.9698 40.9613 73.3112 41.1494 72.5476 41.1494C72.1325 41.1494 71.7452 41.0858 71.3855 40.9585C71.0258 40.8257 70.7103 40.6403 70.4392 40.4023C70.168 40.1644 69.9522 39.8822 69.7917 39.5557H69.6506V44.0132H67.5837ZM71.9001 39.4062C72.3705 39.4062 72.7745 39.29 73.112 39.0576C73.4496 38.8197 73.7097 38.4821 73.8923 38.0449C74.0749 37.6022 74.1662 37.0793 74.1662 36.4761V36.4595C74.1662 35.8452 74.0749 35.3195 73.8923 34.8823C73.7097 34.4451 73.4496 34.1104 73.112 33.8779C72.7745 33.64 72.3705 33.521 71.9001 33.521C71.4297 33.521 71.023 33.64 70.6799 33.8779C70.3423 34.1104 70.0795 34.4451 69.8913 34.8823C69.7087 35.3195 69.6174 35.8424 69.6174 36.4512V36.4678C69.6174 37.0765 69.7087 37.6022 69.8913 38.0449C70.0795 38.4821 70.3451 38.8197 70.6882 39.0576C71.0313 39.29 71.4353 39.4062 71.9001 39.4062ZM87.2432 41.2988C86.1088 41.2988 85.1293 41.0443 84.3048 40.5352C83.4858 40.026 82.8521 39.3039 82.4039 38.3687C81.9612 37.4279 81.7398 36.3128 81.7398 35.0234V35.0068C81.7398 33.7119 81.9612 32.5968 82.4039 31.6616C82.8521 30.7209 83.4858 29.9959 84.3048 29.4868C85.1238 28.9777 86.1005 28.7231 87.2349 28.7231C88.1425 28.7231 88.9615 28.903 89.692 29.2627C90.4224 29.6169 91.0173 30.1094 91.4766 30.7402C91.9359 31.3656 92.2126 32.085 92.3067 32.8984L92.2984 32.9648H90.2066L90.1983 32.9233C90.0987 32.453 89.9106 32.0435 89.6339 31.6948C89.3572 31.3407 89.0141 31.0667 88.6046 30.873C88.1951 30.6738 87.7385 30.5742 87.2349 30.5742C86.5598 30.5742 85.9732 30.7541 85.4752 31.1138C84.9771 31.4735 84.5925 31.9854 84.3214 32.6494C84.0557 33.3079 83.9229 34.091 83.9229 34.9985V35.0151C83.9229 35.9227 84.0557 36.7085 84.3214 37.3726C84.5925 38.0366 84.9771 38.5485 85.4752 38.9082C85.9732 39.2679 86.5626 39.4478 87.2432 39.4478C87.7524 39.4478 88.2089 39.3592 88.6129 39.1821C89.0224 39.005 89.3627 38.756 89.6339 38.4351C89.9106 38.1086 90.0987 37.7267 90.1983 37.2896L90.2149 37.2397H92.3067V37.3062C92.2016 38.103 91.9221 38.8003 91.4683 39.3979C91.0146 39.9956 90.428 40.4632 89.7086 40.8008C88.9892 41.1328 88.1674 41.2988 87.2432 41.2988ZM97.0564 41.1826C96.3813 41.1826 95.8141 41.0526 95.3547 40.7925C94.8954 40.5269 94.5496 40.1423 94.3172 39.6387C94.0847 39.1296 93.9685 38.5153 93.9685 37.7959V31.9272H96.0354V37.3228C96.0354 38.0256 96.1738 38.554 96.4505 38.9082C96.7271 39.2624 97.1782 39.4395 97.8035 39.4395C98.1355 39.4395 98.4288 39.3896 98.6834 39.29C98.9435 39.1849 99.1593 39.0355 99.3308 38.8418C99.5024 38.6481 99.6324 38.4157 99.721 38.1445C99.8095 37.8678 99.8538 37.5579 99.8538 37.2148V31.9272H101.921V41H99.8538V39.6221H99.7127C99.5743 39.943 99.3806 40.2225 99.1316 40.4604C98.8826 40.6929 98.5838 40.8727 98.2351 41C97.8865 41.1217 97.4936 41.1826 97.0564 41.1826ZM104.014 41V31.9272H106.081V33.3218H106.222C106.377 32.8348 106.654 32.4557 107.052 32.1846C107.456 31.9134 107.957 31.7778 108.555 31.7778C108.71 31.7778 108.862 31.7889 109.011 31.811C109.166 31.8276 109.293 31.8498 109.393 31.8774V33.7285C109.227 33.6898 109.058 33.6621 108.887 33.6455C108.721 33.6234 108.546 33.6123 108.364 33.6123C107.904 33.6123 107.503 33.6981 107.16 33.8696C106.817 34.0412 106.551 34.2874 106.363 34.6084C106.175 34.9238 106.081 35.2974 106.081 35.729V41H104.014ZM110.723 41V28.416H112.79V41H110.723ZM118.386 41.1826C117.617 41.1826 116.953 41.0747 116.394 40.8589C115.84 40.6375 115.403 40.3332 115.082 39.9458C114.761 39.5529 114.57 39.0991 114.51 38.5845V38.5679H116.56L116.568 38.5845C116.679 38.8999 116.886 39.1572 117.191 39.3564C117.495 39.5557 117.905 39.6553 118.419 39.6553C118.762 39.6553 119.064 39.6082 119.324 39.5142C119.584 39.4146 119.789 39.279 119.938 39.1074C120.088 38.9359 120.162 38.7367 120.162 38.5098V38.4932C120.162 38.2275 120.054 38.0062 119.839 37.8291C119.623 37.6465 119.266 37.4998 118.768 37.3892L117.299 37.0571C116.723 36.9299 116.247 36.7528 115.871 36.5259C115.495 36.299 115.212 36.0195 115.024 35.6875C114.842 35.3555 114.75 34.9681 114.75 34.5254V34.5171C114.75 33.9692 114.902 33.4878 115.207 33.0728C115.517 32.6577 115.946 32.334 116.493 32.1016C117.041 31.8691 117.672 31.7529 118.386 31.7529C119.122 31.7529 119.756 31.8636 120.287 32.085C120.818 32.3063 121.233 32.6107 121.532 32.998C121.831 33.3854 122.002 33.8254 122.047 34.3179V34.3345H120.104L120.096 34.3096C120.019 34.0218 119.833 33.7783 119.54 33.5791C119.252 33.3743 118.865 33.272 118.378 33.272C118.073 33.272 117.799 33.319 117.556 33.4131C117.318 33.5072 117.13 33.64 116.992 33.8115C116.859 33.9775 116.792 34.174 116.792 34.4009V34.4092C116.792 34.5863 116.837 34.7412 116.925 34.874C117.019 35.0068 117.166 35.123 117.365 35.2227C117.564 35.3223 117.827 35.4108 118.154 35.4883L119.623 35.812C120.514 36.0112 121.172 36.3073 121.598 36.7002C122.025 37.0931 122.238 37.6216 122.238 38.2856V38.3022C122.238 38.8778 122.072 39.3813 121.74 39.813C121.408 40.2446 120.951 40.5822 120.37 40.8257C119.789 41.0636 119.128 41.1826 118.386 41.1826Z" fill="#4B4647"/>
<path d="M154.168 60V50.8403H157.666C158.254 50.8403 158.766 50.9546 159.202 51.1831C159.642 51.4074 159.982 51.7227 160.224 52.1289C160.465 52.5352 160.585 53.0133 160.585 53.5635V53.5762C160.585 54.2109 160.423 54.7611 160.097 55.2266C159.771 55.6921 159.32 56.0158 158.745 56.1978L160.865 60H159.525L157.564 56.3755C157.556 56.3755 157.545 56.3755 157.532 56.3755C157.52 56.3755 157.509 56.3755 157.5 56.3755H155.311V60H154.168ZM155.311 55.3599H157.564C158.152 55.3599 158.605 55.2096 158.922 54.9092C159.244 54.6045 159.405 54.1729 159.405 53.6143V53.6016C159.405 53.0557 159.238 52.6283 158.903 52.3193C158.569 52.0104 158.106 51.856 157.513 51.856H155.311V55.3599ZM165.044 60.1206C164.392 60.1206 163.832 59.9767 163.362 59.689C162.896 59.4012 162.537 58.995 162.283 58.4702C162.033 57.9412 161.908 57.3192 161.908 56.604V56.5977C161.908 55.891 162.033 55.271 162.283 54.7378C162.537 54.2046 162.894 53.7878 163.356 53.4873C163.817 53.1868 164.356 53.0366 164.974 53.0366C165.596 53.0366 166.129 53.1805 166.574 53.4683C167.022 53.756 167.365 54.158 167.602 54.6743C167.843 55.1864 167.964 55.783 167.964 56.4644V56.896H162.48V56.0137H167.399L166.853 56.8198V56.3818C166.853 55.8444 166.773 55.4022 166.612 55.0552C166.451 54.7082 166.229 54.45 165.945 54.2808C165.662 54.1073 165.336 54.0205 164.968 54.0205C164.6 54.0205 164.27 54.1115 163.978 54.2935C163.69 54.4712 163.461 54.7357 163.292 55.0869C163.123 55.4382 163.038 55.8698 163.038 56.3818V56.8198C163.038 57.3065 163.121 57.7233 163.286 58.0703C163.451 58.4131 163.686 58.6776 163.99 58.8638C164.295 59.0457 164.655 59.1367 165.069 59.1367C165.378 59.1367 165.647 59.0944 165.876 59.0098C166.104 58.9251 166.292 58.8172 166.441 58.686C166.589 58.5549 166.692 58.4215 166.752 58.2861L166.777 58.229H167.881L167.869 58.2798C167.809 58.5125 167.704 58.7389 167.551 58.959C167.403 59.1748 167.211 59.3716 166.974 59.5493C166.737 59.7228 166.455 59.8625 166.129 59.9683C165.808 60.0698 165.446 60.1206 165.044 60.1206ZM169.598 62.2852V53.1572H170.702V54.249H170.804C170.944 53.9951 171.119 53.7793 171.331 53.6016C171.542 53.4196 171.784 53.2799 172.054 53.1826C172.325 53.0853 172.619 53.0366 172.937 53.0366C173.516 53.0366 174.02 53.1847 174.447 53.481C174.879 53.7729 175.213 54.1834 175.45 54.7124C175.687 55.2414 175.806 55.8613 175.806 56.5723V56.585C175.806 57.3001 175.687 57.9222 175.45 58.4512C175.213 58.9801 174.879 59.3906 174.447 59.6826C174.02 59.9746 173.516 60.1206 172.937 60.1206C172.624 60.1206 172.327 60.0719 172.048 59.9746C171.773 59.873 171.528 59.7334 171.312 59.5557C171.1 59.3779 170.931 59.1663 170.804 58.9209H170.702V62.2852H169.598ZM172.683 59.1431C173.102 59.1431 173.459 59.0415 173.756 58.8384C174.052 58.631 174.278 58.3369 174.435 57.9561C174.596 57.571 174.676 57.1139 174.676 56.585V56.5723C174.676 56.0391 174.596 55.582 174.435 55.2012C174.278 54.8203 174.052 54.5283 173.756 54.3252C173.459 54.1178 173.102 54.0142 172.683 54.0142C172.268 54.0142 171.91 54.1178 171.61 54.3252C171.31 54.5326 171.079 54.8267 170.918 55.2075C170.757 55.5884 170.677 56.0433 170.677 56.5723V56.585C170.677 57.1097 170.757 57.5646 170.918 57.9497C171.079 58.3306 171.31 58.6247 171.61 58.832C171.91 59.0394 172.268 59.1431 172.683 59.1431ZM179.801 60.1206C179.293 60.1206 178.845 60.0444 178.455 59.8921C178.066 59.7355 177.753 59.5176 177.516 59.2383C177.283 58.959 177.146 58.631 177.103 58.2544H178.233C178.326 58.5379 178.508 58.7664 178.779 58.9399C179.05 59.1134 179.403 59.2002 179.839 59.2002C180.148 59.2002 180.419 59.1558 180.652 59.0669C180.889 58.9738 181.075 58.849 181.21 58.6924C181.346 58.5316 181.413 58.3475 181.413 58.1401V58.1274C181.413 57.8947 181.32 57.6979 181.134 57.5371C180.948 57.3721 180.643 57.2388 180.22 57.1372L179.16 56.8833C178.732 56.7817 178.381 56.6506 178.106 56.4897C177.831 56.3247 177.628 56.1237 177.497 55.8867C177.366 55.6455 177.3 55.362 177.3 55.0361V55.0298C177.3 54.6489 177.41 54.3083 177.63 54.0078C177.854 53.7074 178.159 53.4704 178.544 53.2969C178.929 53.1234 179.363 53.0366 179.845 53.0366C180.324 53.0366 180.747 53.1128 181.115 53.2651C181.487 53.4132 181.786 53.6248 182.01 53.8999C182.239 54.175 182.378 54.4987 182.429 54.8711H181.343C181.272 54.6003 181.107 54.3802 180.848 54.2109C180.59 54.0417 180.254 53.957 179.839 53.957C179.568 53.957 179.327 54.0015 179.115 54.0903C178.904 54.175 178.737 54.2935 178.614 54.4458C178.491 54.5981 178.43 54.7759 178.43 54.979V54.9917C178.43 55.144 178.47 55.2795 178.551 55.3979C178.631 55.5164 178.756 55.6201 178.925 55.709C179.094 55.7979 179.312 55.8761 179.579 55.9438L180.633 56.1978C181.276 56.3543 181.754 56.5786 182.067 56.8706C182.385 57.1626 182.543 57.554 182.543 58.0449V58.0576C182.543 58.4639 182.423 58.8236 182.181 59.1367C181.94 59.4456 181.612 59.6868 181.198 59.8604C180.787 60.0339 180.322 60.1206 179.801 60.1206Z" fill="#615B5B"/>
<path d="M261.066 60L258.571 50.8403H259.765L261.586 58.2861H261.663L263.713 50.8403H264.868L266.918 58.2861H266.995L268.816 50.8403H270.01L267.515 60H266.436L264.329 52.77H264.252L262.145 60H261.066ZM273.688 60.1206C273.036 60.1206 272.475 59.9767 272.005 59.689C271.54 59.4012 271.18 58.995 270.926 58.4702C270.677 57.9412 270.552 57.3192 270.552 56.604V56.5977C270.552 55.891 270.677 55.271 270.926 54.7378C271.18 54.2046 271.538 53.7878 271.999 53.4873C272.46 53.1868 273 53.0366 273.618 53.0366C274.24 53.0366 274.773 53.1805 275.217 53.4683C275.666 53.756 276.009 54.158 276.246 54.6743C276.487 55.1864 276.608 55.783 276.608 56.4644V56.896H271.123V56.0137H276.043L275.497 56.8198V56.3818C275.497 55.8444 275.416 55.4022 275.255 55.0552C275.095 54.7082 274.872 54.45 274.589 54.2808C274.305 54.1073 273.98 54.0205 273.611 54.0205C273.243 54.0205 272.913 54.1115 272.621 54.2935C272.333 54.4712 272.105 54.7357 271.936 55.0869C271.766 55.4382 271.682 55.8698 271.682 56.3818V56.8198C271.682 57.3065 271.764 57.7233 271.929 58.0703C272.094 58.4131 272.329 58.6776 272.634 58.8638C272.939 59.0457 273.298 59.1367 273.713 59.1367C274.022 59.1367 274.291 59.0944 274.519 59.0098C274.748 58.9251 274.936 58.8172 275.084 58.686C275.232 58.5549 275.336 58.4215 275.395 58.2861L275.42 58.229H276.525L276.512 58.2798C276.453 58.5125 276.347 58.7389 276.195 58.959C276.047 59.1748 275.854 59.3716 275.617 59.5493C275.38 59.7228 275.099 59.8625 274.773 59.9683C274.451 60.0698 274.09 60.1206 273.688 60.1206ZM278.267 60V53.1572H279.371V60H278.267ZM278.825 51.8369C278.618 51.8369 278.438 51.7629 278.286 51.6147C278.138 51.4624 278.064 51.2826 278.064 51.0752C278.064 50.8636 278.138 50.6838 278.286 50.5356C278.438 50.3875 278.618 50.3135 278.825 50.3135C279.037 50.3135 279.217 50.3875 279.365 50.5356C279.513 50.6838 279.587 50.8636 279.587 51.0752C279.587 51.2826 279.513 51.4624 279.365 51.6147C279.217 51.7629 279.037 51.8369 278.825 51.8369ZM284.192 62.4121C283.642 62.4121 283.161 62.3338 282.751 62.1772C282.34 62.0249 282.012 61.807 281.767 61.5234C281.526 61.2441 281.375 60.9183 281.316 60.5459L281.329 60.5396H282.471L282.478 60.5459C282.537 60.804 282.715 61.0156 283.011 61.1807C283.307 61.3499 283.701 61.4346 284.192 61.4346C284.805 61.4346 285.283 61.2949 285.626 61.0156C285.973 60.7406 286.147 60.3512 286.147 59.8477V58.4639H286.045C285.901 58.7135 285.721 58.9272 285.506 59.105C285.29 59.2827 285.046 59.4181 284.776 59.5112C284.505 59.6001 284.213 59.6445 283.9 59.6445C283.311 59.6445 282.802 59.5049 282.37 59.2256C281.942 58.9421 281.612 58.5527 281.38 58.0576C281.147 57.5625 281.031 56.9954 281.031 56.3564V56.3438C281.031 55.7048 281.147 55.1377 281.38 54.6426C281.617 54.1432 281.951 53.7518 282.383 53.4683C282.814 53.1805 283.328 53.0366 283.925 53.0366C284.247 53.0366 284.543 53.0874 284.814 53.189C285.085 53.2905 285.324 53.4344 285.531 53.6206C285.743 53.8068 285.918 54.029 286.058 54.2871H286.134V53.1572H287.239V59.9048C287.239 60.4126 287.114 60.8548 286.864 61.2314C286.619 61.6081 286.267 61.8979 285.81 62.1011C285.353 62.3084 284.814 62.4121 284.192 62.4121ZM284.141 58.667C284.564 58.667 284.926 58.5697 285.226 58.375C285.531 58.1761 285.764 57.9032 285.925 57.5562C286.09 57.2091 286.172 56.8092 286.172 56.3564V56.3438C286.172 55.891 286.09 55.4889 285.925 55.1377C285.764 54.7865 285.531 54.5114 285.226 54.3125C284.926 54.1136 284.564 54.0142 284.141 54.0142C283.718 54.0142 283.358 54.1136 283.062 54.3125C282.77 54.5114 282.545 54.7865 282.389 55.1377C282.237 55.4889 282.16 55.891 282.16 56.3438V56.3564C282.16 56.8092 282.237 57.2091 282.389 57.5562C282.545 57.9032 282.77 58.1761 283.062 58.375C283.358 58.5697 283.718 58.667 284.141 58.667ZM289.279 60V50.4404H290.383V54.1855H290.485C290.658 53.8216 290.908 53.5402 291.234 53.3413C291.56 53.1382 291.974 53.0366 292.478 53.0366C292.99 53.0366 293.424 53.1361 293.779 53.335C294.135 53.5296 294.405 53.8153 294.592 54.1919C294.778 54.5685 294.871 55.0277 294.871 55.5693V60H293.766V55.8359C293.766 55.2181 293.635 54.7611 293.373 54.4648C293.115 54.1644 292.713 54.0142 292.167 54.0142C291.803 54.0142 291.488 54.0924 291.221 54.249C290.954 54.4056 290.747 54.6278 290.599 54.9155C290.455 55.2033 290.383 55.5482 290.383 55.9502V60H289.279ZM299.222 60.0508C298.519 60.0508 298.009 59.909 297.692 59.6255C297.379 59.342 297.222 58.8743 297.222 58.2227V54.0713H296.143V53.1572H297.222V51.3862H298.365V53.1572H299.863V54.0713H298.365V57.9434C298.365 58.3454 298.441 58.6353 298.593 58.813C298.746 58.9865 298.999 59.0732 299.355 59.0732C299.452 59.0732 299.535 59.0711 299.602 59.0669C299.674 59.0627 299.761 59.0563 299.863 59.0479V59.9873C299.757 60.0042 299.651 60.019 299.545 60.0317C299.44 60.0444 299.332 60.0508 299.222 60.0508Z" fill="#615B5B"/>
<path d="M380.015 60.2158C379.139 60.2158 378.388 60.0212 377.761 59.6318C377.135 59.2383 376.653 58.6818 376.314 57.9624C375.98 57.243 375.812 56.3966 375.812 55.4233V55.4106C375.812 54.4289 375.982 53.5804 376.32 52.8652C376.663 52.1501 377.148 51.5978 377.774 51.2085C378.404 50.8192 379.151 50.6245 380.015 50.6245C380.882 50.6245 381.629 50.8192 382.255 51.2085C382.886 51.5978 383.37 52.1522 383.709 52.8716C384.048 53.5868 384.217 54.4331 384.217 55.4106V55.4233C384.217 56.3966 384.048 57.243 383.709 57.9624C383.375 58.6776 382.892 59.2319 382.262 59.6255C381.635 60.019 380.886 60.2158 380.015 60.2158ZM380.015 59.1621C380.641 59.1621 381.181 59.0076 381.633 58.6987C382.086 58.3898 382.435 57.9561 382.681 57.3975C382.926 56.8346 383.049 56.1766 383.049 55.4233V55.4106C383.049 54.6489 382.926 53.9888 382.681 53.4302C382.435 52.8716 382.086 52.4399 381.633 52.1353C381.181 51.8306 380.641 51.6782 380.015 51.6782C379.393 51.6782 378.855 51.8306 378.402 52.1353C377.95 52.4399 377.598 52.8716 377.349 53.4302C377.103 53.9888 376.98 54.6489 376.98 55.4106V55.4233C376.98 56.1766 377.101 56.8346 377.342 57.3975C377.583 57.9561 377.931 58.3898 378.383 58.6987C378.836 59.0076 379.38 59.1621 380.015 59.1621ZM382.503 61.0347L379.843 57.3784H381.125L383.785 61.0347H382.503ZM388.269 60.1206C387.753 60.1206 387.319 60.0233 386.968 59.8286C386.617 59.6297 386.352 59.342 386.174 58.9653C386.001 58.5845 385.914 58.1253 385.914 57.5879V53.1572H387.019V57.3213C387.019 57.9349 387.137 58.3919 387.374 58.6924C387.615 58.9928 388.009 59.1431 388.555 59.1431C388.855 59.1431 389.12 59.0986 389.348 59.0098C389.581 58.9209 389.776 58.7939 389.932 58.6289C390.089 58.4596 390.205 58.2565 390.281 58.0195C390.362 57.7783 390.402 57.5075 390.402 57.207V53.1572H391.506V60H390.402V58.978H390.3C390.19 59.2192 390.04 59.4266 389.85 59.6001C389.659 59.7694 389.431 59.8984 389.164 59.9873C388.902 60.0762 388.603 60.1206 388.269 60.1206ZM395.368 60.1206C394.937 60.1206 394.547 60.0381 394.2 59.873C393.858 59.708 393.585 59.4731 393.382 59.1685C393.183 58.8638 393.083 58.5041 393.083 58.0894V58.0767C393.083 57.6704 393.18 57.3234 393.375 57.0356C393.57 56.7437 393.853 56.5151 394.226 56.3501C394.598 56.1851 395.049 56.0877 395.578 56.0581L398.091 55.9058V56.7881L395.711 56.9404C395.191 56.9701 394.81 57.078 394.569 57.2642C394.332 57.4504 394.213 57.7127 394.213 58.0513V58.064C394.213 58.411 394.344 58.6818 394.607 58.8765C394.869 59.0669 395.199 59.1621 395.597 59.1621C395.973 59.1621 396.308 59.0881 396.6 58.9399C396.892 58.7876 397.12 58.5824 397.285 58.3242C397.455 58.0661 397.539 57.7741 397.539 57.4482V55.3154C397.539 54.8923 397.41 54.5706 397.152 54.3506C396.898 54.1263 396.515 54.0142 396.003 54.0142C395.593 54.0142 395.256 54.0882 394.994 54.2363C394.731 54.3802 394.556 54.5854 394.467 54.8521L394.461 54.8711H393.356L393.362 54.833C393.422 54.4733 393.57 54.1602 393.807 53.8936C394.048 53.6227 394.359 53.4132 394.74 53.2651C395.121 53.1128 395.555 53.0366 396.041 53.0366C396.6 53.0366 397.072 53.1276 397.457 53.3096C397.846 53.4915 398.14 53.7539 398.339 54.0967C398.542 54.4352 398.644 54.8415 398.644 55.3154V60H397.539V58.9907H397.438C397.294 59.2319 397.118 59.4372 396.911 59.6064C396.708 59.7757 396.477 59.9048 396.219 59.9937C395.961 60.0783 395.677 60.1206 395.368 60.1206ZM400.646 60V50.4404H401.75V60H400.646ZM403.816 60V53.1572H404.92V60H403.816ZM404.374 51.8369C404.167 51.8369 403.987 51.7629 403.835 51.6147C403.687 51.4624 403.613 51.2826 403.613 51.0752C403.613 50.8636 403.687 50.6838 403.835 50.5356C403.987 50.3875 404.167 50.3135 404.374 50.3135C404.586 50.3135 404.766 50.3875 404.914 50.5356C405.062 50.6838 405.136 50.8636 405.136 51.0752C405.136 51.2826 405.062 51.4624 404.914 51.6147C404.766 51.7629 404.586 51.8369 404.374 51.8369ZM409.353 60.0508C408.651 60.0508 408.141 59.909 407.824 59.6255C407.51 59.342 407.354 58.8743 407.354 58.2227V54.0713H406.275V53.1572H407.354V51.3862H408.496V53.1572H409.995V54.0713H408.496V57.9434C408.496 58.3454 408.573 58.6353 408.725 58.813C408.877 58.9865 409.131 59.0732 409.487 59.0732C409.584 59.0732 409.667 59.0711 409.734 59.0669C409.806 59.0627 409.893 59.0563 409.995 59.0479V59.9873C409.889 60.0042 409.783 60.019 409.677 60.0317C409.571 60.0444 409.463 60.0508 409.353 60.0508ZM412.149 62.3994C412.077 62.3994 411.997 62.3952 411.908 62.3867C411.819 62.3825 411.736 62.374 411.66 62.3613V61.4536C411.728 61.4663 411.802 61.4748 411.882 61.479C411.963 61.4832 412.041 61.4854 412.117 61.4854C412.43 61.4854 412.686 61.4049 412.885 61.2441C413.088 61.0833 413.251 60.8062 413.374 60.4126L413.501 60.0063L410.968 53.1572H412.149L414.256 59.4795L413.818 58.7876H414.339L413.901 59.4795L416.002 53.1572H417.164L414.491 60.4189C414.305 60.931 414.108 61.3309 413.901 61.6187C413.694 61.9064 413.45 62.1074 413.171 62.2217C412.896 62.3402 412.555 62.3994 412.149 62.3994Z" fill="#615B5B"/>
<path d="M32 75C32 70.5817 35.5817 67 40 67H410C414.418 67 418 70.5817 418 75V97C418 101.418 414.418 105 410 105H40C35.5817 105 32 101.418 32 97V75Z" fill="#D0D0D0" fill-opacity="0.5"/>
<path d="M37.4536 92.2822C36.5793 92.2822 35.8156 92.1411 35.1626 91.8589C34.5151 91.5711 34.0005 91.1782 33.6187 90.6802C33.2424 90.1766 33.0238 89.6011 32.9629 88.9536L32.9546 88.8623H34.4487L34.457 88.9536C34.4958 89.3521 34.6479 89.6979 34.9136 89.9912C35.1847 90.279 35.5444 90.5031 35.9927 90.6636C36.4465 90.8241 36.9611 90.9043 37.5366 90.9043C38.0789 90.9043 38.5604 90.8185 38.981 90.647C39.4071 90.4699 39.7419 90.2264 39.9854 89.9165C40.2288 89.6066 40.3506 89.2497 40.3506 88.8457V88.8374C40.3506 88.3394 40.168 87.9215 39.8027 87.584C39.4375 87.2409 38.8426 86.978 38.0181 86.7954L36.6899 86.5049C35.4891 86.2393 34.6147 85.8298 34.0669 85.2764C33.5246 84.7174 33.2534 84.0036 33.2534 83.1348V83.1265C33.259 82.4624 33.4388 81.8758 33.793 81.3667C34.1527 80.8576 34.6479 80.4591 35.2788 80.1714C35.9152 79.8836 36.6457 79.7397 37.4702 79.7397C38.2671 79.7397 38.9727 79.8836 39.5869 80.1714C40.2012 80.4536 40.6882 80.8354 41.0479 81.3169C41.4131 81.7983 41.6151 82.3379 41.6538 82.9355L41.6621 83.0518H40.168L40.1514 82.9438C40.096 82.5897 39.9521 82.277 39.7197 82.0059C39.4873 81.7292 39.1774 81.5106 38.79 81.3501C38.4027 81.1896 37.9489 81.1121 37.4287 81.1177C36.9307 81.1177 36.4824 81.1951 36.084 81.3501C35.6855 81.505 35.3674 81.7292 35.1294 82.0225C34.897 82.3102 34.7808 82.6644 34.7808 83.085V83.0933C34.7808 83.5692 34.9578 83.9704 35.312 84.2969C35.6662 84.6234 36.25 84.8752 37.0635 85.0522L38.3916 85.3511C39.2272 85.5337 39.8996 85.7716 40.4087 86.0649C40.9178 86.3582 41.2886 86.7179 41.521 87.144C41.759 87.5646 41.8779 88.0627 41.8779 88.6382V88.6465C41.8779 89.3936 41.6953 90.0382 41.3301 90.5806C40.9648 91.1229 40.4502 91.5435 39.7861 91.8423C39.1221 92.1356 38.3446 92.2822 37.4536 92.2822ZM47.4079 92.1577C46.5557 92.1577 45.8224 91.9696 45.2082 91.5933C44.5995 91.217 44.1291 90.6857 43.7971 89.9995C43.4706 89.3078 43.3073 88.4943 43.3073 87.5591V87.5508C43.3073 86.6266 43.4706 85.8159 43.7971 85.1187C44.1291 84.4214 44.5967 83.8763 45.1999 83.4834C45.8031 83.0905 46.5086 82.894 47.3166 82.894C48.1301 82.894 48.8273 83.0822 49.4084 83.4585C49.995 83.8348 50.4432 84.3605 50.7531 85.0356C51.0685 85.7052 51.2262 86.4855 51.2262 87.3765V87.9409H44.0544V86.7871H50.4875L49.7736 87.8413V87.2686C49.7736 86.5658 49.6685 85.9875 49.4582 85.5337C49.2479 85.0799 48.9574 84.7424 48.5866 84.521C48.2158 84.2941 47.7897 84.1807 47.3083 84.1807C46.8268 84.1807 46.3952 84.2996 46.0134 84.5376C45.6371 84.77 45.3382 85.1159 45.1169 85.5752C44.8955 86.0345 44.7848 86.599 44.7848 87.2686V87.8413C44.7848 88.4777 44.8928 89.0228 45.1086 89.4766C45.3244 89.9248 45.6315 90.2707 46.03 90.5142C46.4284 90.7521 46.8988 90.8711 47.4411 90.8711C47.8451 90.8711 48.1965 90.8158 48.4953 90.7051C48.7941 90.5944 49.0404 90.4533 49.2341 90.2817C49.4277 90.1102 49.5633 89.9359 49.6408 89.7588L49.674 89.6841H51.1183L51.1017 89.7505C51.0243 90.0549 50.8859 90.3509 50.6867 90.6387C50.493 90.9209 50.2412 91.1782 49.9313 91.4106C49.6214 91.6375 49.2534 91.8201 48.8273 91.9585C48.4068 92.0913 47.9336 92.1577 47.4079 92.1577ZM56.2167 92.0664C55.298 92.0664 54.6312 91.881 54.2162 91.5103C53.8067 91.1395 53.6019 90.528 53.6019 89.6758V84.2471H52.1908V83.0518H53.6019V80.7358H55.0961V83.0518H57.055V84.2471H55.0961V89.3105C55.0961 89.8363 55.1957 90.2153 55.3949 90.4478C55.5941 90.6746 55.9261 90.7881 56.391 90.7881C56.5183 90.7881 56.6262 90.7853 56.7147 90.7798C56.8088 90.7743 56.9222 90.766 57.055 90.7549V91.9834C56.9167 92.0055 56.7783 92.0249 56.64 92.0415C56.5017 92.0581 56.3605 92.0664 56.2167 92.0664ZM66.0564 92V81.6821H65.9236L62.8772 83.8901V82.313L66.0647 80.022H67.5505V92H66.0564Z" fill="#1D1617"/>
<path d="M186.14 92V89.5181H180.305V88.1567C180.631 87.6144 180.963 87.0666 181.301 86.5132C181.638 85.9543 181.979 85.3981 182.322 84.8447C182.67 84.2858 183.019 83.7324 183.368 83.1846C183.716 82.6367 184.062 82.0972 184.405 81.5659C184.754 81.0347 185.097 80.52 185.434 80.022H187.601V88.1816H189.303V89.5181H187.601V92H186.14ZM181.832 88.1899H186.148V81.4082H186.049C185.778 81.8122 185.501 82.2327 185.219 82.6699C184.936 83.1016 184.649 83.5443 184.355 83.998C184.068 84.4518 183.78 84.9084 183.492 85.3677C183.204 85.827 182.919 86.2863 182.637 86.7456C182.36 87.1994 182.092 87.6476 181.832 88.0903V88.1899Z" fill="#1D1617"/>
<path d="M287.938 92.2822C287.196 92.2822 286.535 92.1356 285.954 91.8423C285.373 91.549 284.905 91.1506 284.551 90.647C284.202 90.1379 283.998 89.5651 283.937 88.9287L283.928 88.8374H285.364L285.373 88.9038C285.423 89.2856 285.561 89.6343 285.788 89.9497C286.02 90.2596 286.322 90.5059 286.693 90.6885C287.069 90.8711 287.489 90.9624 287.954 90.9624C288.486 90.9624 288.953 90.8462 289.357 90.6138C289.761 90.3758 290.077 90.0493 290.303 89.6343C290.53 89.2192 290.644 88.7433 290.644 88.2065V88.1899C290.644 87.6587 290.528 87.1883 290.295 86.7788C290.068 86.3638 289.756 86.04 289.357 85.8076C288.959 85.5752 288.499 85.459 287.979 85.459C287.581 85.459 287.213 85.5199 286.875 85.6416C286.543 85.7633 286.247 85.946 285.987 86.1895C285.882 86.2891 285.782 86.397 285.688 86.5132C285.6 86.6294 285.517 86.7594 285.439 86.9033H284.144L284.775 80.022H291.441V81.3584H285.954L285.547 85.4092H285.68C285.857 85.138 286.076 84.9111 286.336 84.7285C286.596 84.5459 286.886 84.4076 287.207 84.3135C287.534 84.2139 287.877 84.1641 288.237 84.1641C288.989 84.1641 289.656 84.3384 290.237 84.687C290.818 85.0301 291.275 85.5033 291.607 86.1064C291.939 86.7041 292.105 87.3903 292.105 88.165V88.1816C292.105 88.984 291.925 89.6951 291.565 90.3149C291.211 90.9292 290.721 91.4106 290.096 91.7593C289.471 92.1079 288.751 92.2822 287.938 92.2822ZM298.016 92.2822C297.275 92.2822 296.614 92.1356 296.033 91.8423C295.452 91.549 294.984 91.1506 294.63 90.647C294.281 90.1379 294.076 89.5651 294.015 88.9287L294.007 88.8374H295.443L295.452 88.9038C295.501 89.2856 295.64 89.6343 295.867 89.9497C296.099 90.2596 296.401 90.5059 296.771 90.6885C297.148 90.8711 297.568 90.9624 298.033 90.9624C298.564 90.9624 299.032 90.8462 299.436 90.6138C299.84 90.3758 300.155 90.0493 300.382 89.6343C300.609 89.2192 300.723 88.7433 300.723 88.2065V88.1899C300.723 87.6587 300.606 87.1883 300.374 86.7788C300.147 86.3638 299.834 86.04 299.436 85.8076C299.037 85.5752 298.578 85.459 298.058 85.459C297.66 85.459 297.292 85.5199 296.954 85.6416C296.622 85.7633 296.326 85.946 296.066 86.1895C295.961 86.2891 295.861 86.397 295.767 86.5132C295.678 86.6294 295.595 86.7594 295.518 86.9033H294.223L294.854 80.022H301.519V81.3584H296.033L295.626 85.4092H295.759C295.936 85.138 296.154 84.9111 296.414 84.7285C296.675 84.5459 296.965 84.4076 297.286 84.3135C297.613 84.2139 297.956 84.1641 298.315 84.1641C299.068 84.1641 299.735 84.3384 300.316 84.687C300.897 85.0301 301.353 85.5033 301.685 86.1064C302.017 86.7041 302.183 87.3903 302.183 88.165V88.1816C302.183 88.984 302.004 89.6951 301.644 90.3149C301.29 90.9292 300.8 91.4106 300.175 91.7593C299.549 92.1079 298.83 92.2822 298.016 92.2822Z" fill="#1D1617"/>
<path d="M401.254 79.7397C401.802 79.7397 402.342 79.8449 402.873 80.0552C403.41 80.2655 403.894 80.6058 404.326 81.0762C404.763 81.5465 405.112 82.1691 405.372 82.9438C405.632 83.7131 405.762 84.6621 405.762 85.791V85.8076C405.762 87.1689 405.579 88.3338 405.214 89.3022C404.849 90.2651 404.323 91.0039 403.637 91.5186C402.951 92.0277 402.123 92.2822 401.155 92.2822C400.485 92.2822 399.879 92.1605 399.337 91.917C398.8 91.668 398.352 91.3221 397.992 90.8794C397.633 90.4367 397.383 89.922 397.245 89.3354L397.22 89.2275H398.723L398.756 89.3188C398.878 89.6509 399.049 89.9386 399.271 90.1821C399.497 90.4256 399.769 90.6138 400.084 90.7466C400.405 90.8794 400.767 90.9458 401.171 90.9458C401.896 90.9458 402.486 90.7355 402.939 90.3149C403.393 89.8888 403.731 89.3244 403.952 88.6216C404.174 87.9188 404.298 87.1523 404.326 86.3223C404.331 86.2448 404.334 86.1701 404.334 86.0981C404.334 86.0207 404.334 85.946 404.334 85.874L403.977 83.8818C403.977 83.3561 403.855 82.8802 403.612 82.4541C403.374 82.028 403.05 81.6904 402.641 81.4414C402.237 81.1868 401.78 81.0596 401.271 81.0596C400.773 81.0596 400.319 81.1841 399.91 81.4331C399.5 81.6766 399.174 82.0086 398.93 82.4292C398.687 82.8442 398.565 83.3118 398.565 83.832V83.8486C398.565 84.3799 398.681 84.853 398.914 85.2681C399.146 85.6776 399.464 86.0013 399.868 86.2393C400.272 86.4717 400.731 86.5879 401.246 86.5879C401.766 86.5879 402.231 86.4717 402.641 86.2393C403.05 86.0068 403.374 85.6886 403.612 85.2847C403.855 84.8752 403.977 84.4103 403.977 83.8901V83.8818H404.467V86.04H404.176C404.032 86.3665 403.811 86.6709 403.512 86.9531C403.219 87.2354 402.859 87.4622 402.433 87.6338C402.013 87.8053 401.531 87.8911 400.989 87.8911C400.242 87.8911 399.572 87.7168 398.98 87.3682C398.388 87.0195 397.92 86.5436 397.577 85.9404C397.234 85.3317 397.063 84.6455 397.063 83.8818V83.8652C397.063 83.0684 397.242 82.36 397.602 81.7402C397.967 81.1149 398.465 80.6252 399.096 80.271C399.733 79.9168 400.452 79.7397 401.254 79.7397ZM411.823 92.1992C410.976 92.1992 410.226 92.0526 409.573 91.7593C408.92 91.466 408.406 91.062 408.03 90.5474C407.659 90.0272 407.473 89.4323 407.473 88.7627V88.7461C407.473 88.2536 407.581 87.797 407.797 87.3765C408.013 86.9559 408.314 86.599 408.702 86.3057C409.089 86.0068 409.537 85.7993 410.047 85.6831V85.6499C409.394 85.4451 408.873 85.1076 408.486 84.6372C408.099 84.1668 407.905 83.6162 407.905 82.9854V82.9688C407.905 82.3656 408.074 81.8288 408.411 81.3584C408.749 80.8825 409.214 80.509 409.806 80.2378C410.398 79.9611 411.07 79.8228 411.823 79.8228C412.581 79.8228 413.253 79.9611 413.84 80.2378C414.432 80.509 414.897 80.8825 415.235 81.3584C415.572 81.8288 415.741 82.3656 415.741 82.9688V82.9854C415.741 83.6162 415.547 84.1668 415.16 84.6372C414.778 85.1076 414.258 85.4451 413.599 85.6499V85.6831C414.114 85.7993 414.562 86.0068 414.944 86.3057C415.331 86.599 415.633 86.9559 415.849 87.3765C416.065 87.797 416.173 88.2536 416.173 88.7461V88.7627C416.173 89.4323 415.987 90.0272 415.616 90.5474C415.246 91.062 414.731 91.466 414.072 91.7593C413.419 92.0526 412.67 92.1992 411.823 92.1992ZM411.823 90.896C412.376 90.896 412.863 90.8019 413.284 90.6138C413.71 90.4201 414.045 90.1572 414.288 89.8252C414.532 89.4876 414.654 89.103 414.654 88.6714V88.6548C414.654 88.2176 414.532 87.8302 414.288 87.4927C414.05 87.1551 413.718 86.8895 413.292 86.6958C412.866 86.5021 412.376 86.4053 411.823 86.4053C411.27 86.4053 410.78 86.5021 410.354 86.6958C409.928 86.8895 409.593 87.1551 409.349 87.4927C409.111 87.8302 408.992 88.2176 408.992 88.6548V88.6714C408.992 89.103 409.114 89.4876 409.358 89.8252C409.601 90.1572 409.936 90.4201 410.362 90.6138C410.788 90.8019 411.275 90.896 411.823 90.896ZM411.823 85.0938C412.304 85.0938 412.728 85.0107 413.093 84.8447C413.458 84.6732 413.743 84.438 413.948 84.1392C414.153 83.8403 414.255 83.4972 414.255 83.1099V83.0933C414.255 82.7059 414.153 82.3628 413.948 82.064C413.743 81.7651 413.458 81.5327 413.093 81.3667C412.728 81.1951 412.304 81.1094 411.823 81.1094C411.342 81.1094 410.918 81.1951 410.553 81.3667C410.188 81.5327 409.903 81.7651 409.698 82.064C409.493 82.3628 409.391 82.7059 409.391 83.0933V83.1099C409.391 83.4972 409.493 83.8403 409.698 84.1392C409.903 84.438 410.188 84.6732 410.553 84.8447C410.918 85.0107 411.342 85.0938 411.823 85.0938Z" fill="#34C759"/>
<rect width="386" height="38" transform="translate(32 105)" fill="white"/>
<path d="M37.4536 130.282C36.5793 130.282 35.8156 130.141 35.1626 129.859C34.5151 129.571 34.0005 129.178 33.6187 128.68C33.2424 128.177 33.0238 127.601 32.9629 126.954L32.9546 126.862H34.4487L34.457 126.954C34.4958 127.352 34.6479 127.698 34.9136 127.991C35.1847 128.279 35.5444 128.503 35.9927 128.664C36.4465 128.824 36.9611 128.904 37.5366 128.904C38.0789 128.904 38.5604 128.819 38.981 128.647C39.4071 128.47 39.7419 128.226 39.9854 127.917C40.2288 127.607 40.3506 127.25 40.3506 126.846V126.837C40.3506 126.339 40.168 125.922 39.8027 125.584C39.4375 125.241 38.8426 124.978 38.0181 124.795L36.6899 124.505C35.4891 124.239 34.6147 123.83 34.0669 123.276C33.5246 122.717 33.2534 122.004 33.2534 121.135V121.126C33.259 120.462 33.4388 119.876 33.793 119.367C34.1527 118.858 34.6479 118.459 35.2788 118.171C35.9152 117.884 36.6457 117.74 37.4702 117.74C38.2671 117.74 38.9727 117.884 39.5869 118.171C40.2012 118.454 40.6882 118.835 41.0479 119.317C41.4131 119.798 41.6151 120.338 41.6538 120.936L41.6621 121.052H40.168L40.1514 120.944C40.096 120.59 39.9521 120.277 39.7197 120.006C39.4873 119.729 39.1774 119.511 38.79 119.35C38.4027 119.19 37.9489 119.112 37.4287 119.118C36.9307 119.118 36.4824 119.195 36.084 119.35C35.6855 119.505 35.3674 119.729 35.1294 120.022C34.897 120.31 34.7808 120.664 34.7808 121.085V121.093C34.7808 121.569 34.9578 121.97 35.312 122.297C35.6662 122.623 36.25 122.875 37.0635 123.052L38.3916 123.351C39.2272 123.534 39.8996 123.772 40.4087 124.065C40.9178 124.358 41.2886 124.718 41.521 125.144C41.759 125.565 41.8779 126.063 41.8779 126.638V126.646C41.8779 127.394 41.6953 128.038 41.3301 128.581C40.9648 129.123 40.4502 129.543 39.7861 129.842C39.1221 130.136 38.3446 130.282 37.4536 130.282ZM47.4079 130.158C46.5557 130.158 45.8224 129.97 45.2082 129.593C44.5995 129.217 44.1291 128.686 43.7971 128C43.4706 127.308 43.3073 126.494 43.3073 125.559V125.551C43.3073 124.627 43.4706 123.816 43.7971 123.119C44.1291 122.421 44.5967 121.876 45.1999 121.483C45.8031 121.09 46.5086 120.894 47.3166 120.894C48.1301 120.894 48.8273 121.082 49.4084 121.458C49.995 121.835 50.4432 122.361 50.7531 123.036C51.0685 123.705 51.2262 124.486 51.2262 125.376V125.941H44.0544V124.787H50.4875L49.7736 125.841V125.269C49.7736 124.566 49.6685 123.987 49.4582 123.534C49.2479 123.08 48.9574 122.742 48.5866 122.521C48.2158 122.294 47.7897 122.181 47.3083 122.181C46.8268 122.181 46.3952 122.3 46.0134 122.538C45.6371 122.77 45.3382 123.116 45.1169 123.575C44.8955 124.035 44.7848 124.599 44.7848 125.269V125.841C44.7848 126.478 44.8928 127.023 45.1086 127.477C45.3244 127.925 45.6315 128.271 46.03 128.514C46.4284 128.752 46.8988 128.871 47.4411 128.871C47.8451 128.871 48.1965 128.816 48.4953 128.705C48.7941 128.594 49.0404 128.453 49.2341 128.282C49.4277 128.11 49.5633 127.936 49.6408 127.759L49.674 127.684H51.1183L51.1017 127.75C51.0243 128.055 50.8859 128.351 50.6867 128.639C50.493 128.921 50.2412 129.178 49.9313 129.411C49.6214 129.638 49.2534 129.82 48.8273 129.958C48.4068 130.091 47.9336 130.158 47.4079 130.158ZM56.2167 130.066C55.298 130.066 54.6312 129.881 54.2162 129.51C53.8067 129.139 53.6019 128.528 53.6019 127.676V122.247H52.1908V121.052H53.6019V118.736H55.0961V121.052H57.055V122.247H55.0961V127.311C55.0961 127.836 55.1957 128.215 55.3949 128.448C55.5941 128.675 55.9261 128.788 56.391 128.788C56.5183 128.788 56.6262 128.785 56.7147 128.78C56.8088 128.774 56.9222 128.766 57.055 128.755V129.983C56.9167 130.006 56.7783 130.025 56.64 130.042C56.5017 130.058 56.3605 130.066 56.2167 130.066ZM63.1262 130V128.971L67.177 124.588C67.6861 124.035 68.0845 123.578 68.3723 123.218C68.66 122.853 68.862 122.524 68.9782 122.23C69.0945 121.937 69.1526 121.616 69.1526 121.268V121.251C69.1526 120.83 69.0613 120.454 68.8786 120.122C68.696 119.79 68.4359 119.527 68.0984 119.333C67.7608 119.14 67.3568 119.043 66.8864 119.043C66.4105 119.043 65.9927 119.143 65.633 119.342C65.2733 119.535 64.9939 119.809 64.7946 120.164C64.5954 120.512 64.4958 120.922 64.4958 121.392L64.4875 121.409L63.0598 121.4L63.0432 121.392C63.0487 120.684 63.2203 120.056 63.5578 119.508C63.8954 118.954 64.3602 118.523 64.9524 118.213C65.5445 117.897 66.2224 117.74 66.9861 117.74C67.6833 117.74 68.3114 117.886 68.8703 118.18C69.4293 118.467 69.8692 118.863 70.1902 119.367C70.5167 119.87 70.6799 120.446 70.6799 121.093V121.11C70.6799 121.564 70.5997 122.001 70.4392 122.421C70.2842 122.842 70.0075 123.31 69.6091 123.824C69.2107 124.333 68.649 124.961 67.924 125.708L64.8279 128.904L65.2014 128.215V128.904L64.8362 128.655H70.8791V130H63.1262Z" fill="#1D1617"/>
<path d="M184.604 130.282C183.863 130.282 183.202 130.136 182.62 129.842C182.039 129.549 181.572 129.151 181.218 128.647C180.869 128.138 180.664 127.565 180.603 126.929L180.595 126.837H182.031L182.039 126.904C182.089 127.286 182.228 127.634 182.454 127.95C182.687 128.26 182.988 128.506 183.359 128.688C183.736 128.871 184.156 128.962 184.621 128.962C185.152 128.962 185.62 128.846 186.024 128.614C186.428 128.376 186.743 128.049 186.97 127.634C187.197 127.219 187.31 126.743 187.31 126.207V126.19C187.31 125.659 187.194 125.188 186.962 124.779C186.735 124.364 186.422 124.04 186.024 123.808C185.625 123.575 185.166 123.459 184.646 123.459C184.247 123.459 183.879 123.52 183.542 123.642C183.21 123.763 182.914 123.946 182.654 124.189C182.549 124.289 182.449 124.397 182.355 124.513C182.266 124.629 182.183 124.759 182.106 124.903H180.811L181.442 118.022H188.107V119.358H182.62L182.214 123.409H182.347C182.524 123.138 182.742 122.911 183.002 122.729C183.262 122.546 183.553 122.408 183.874 122.313C184.2 122.214 184.543 122.164 184.903 122.164C185.656 122.164 186.323 122.338 186.904 122.687C187.485 123.03 187.941 123.503 188.273 124.106C188.605 124.704 188.771 125.39 188.771 126.165V126.182C188.771 126.984 188.591 127.695 188.232 128.315C187.878 128.929 187.388 129.411 186.763 129.759C186.137 130.108 185.418 130.282 184.604 130.282Z" fill="#1D1617"/>
<path d="M287.938 130.282C287.196 130.282 286.535 130.136 285.954 129.842C285.373 129.549 284.905 129.151 284.551 128.647C284.202 128.138 283.998 127.565 283.937 126.929L283.928 126.837H285.364L285.373 126.904C285.423 127.286 285.561 127.634 285.788 127.95C286.02 128.26 286.322 128.506 286.693 128.688C287.069 128.871 287.489 128.962 287.954 128.962C288.486 128.962 288.953 128.846 289.357 128.614C289.761 128.376 290.077 128.049 290.303 127.634C290.53 127.219 290.644 126.743 290.644 126.207V126.19C290.644 125.659 290.528 125.188 290.295 124.779C290.068 124.364 289.756 124.04 289.357 123.808C288.959 123.575 288.499 123.459 287.979 123.459C287.581 123.459 287.213 123.52 286.875 123.642C286.543 123.763 286.247 123.946 285.987 124.189C285.882 124.289 285.782 124.397 285.688 124.513C285.6 124.629 285.517 124.759 285.439 124.903H284.144L284.775 118.022H291.441V119.358H285.954L285.547 123.409H285.68C285.857 123.138 286.076 122.911 286.336 122.729C286.596 122.546 286.886 122.408 287.207 122.313C287.534 122.214 287.877 122.164 288.237 122.164C288.989 122.164 289.656 122.338 290.237 122.687C290.818 123.03 291.275 123.503 291.607 124.106C291.939 124.704 292.105 125.39 292.105 126.165V126.182C292.105 126.984 291.925 127.695 291.565 128.315C291.211 128.929 290.721 129.411 290.096 129.759C289.471 130.108 288.751 130.282 287.938 130.282ZM298.016 130.282C297.275 130.282 296.614 130.136 296.033 129.842C295.452 129.549 294.984 129.151 294.63 128.647C294.281 128.138 294.076 127.565 294.015 126.929L294.007 126.837H295.443L295.452 126.904C295.501 127.286 295.64 127.634 295.867 127.95C296.099 128.26 296.401 128.506 296.771 128.688C297.148 128.871 297.568 128.962 298.033 128.962C298.564 128.962 299.032 128.846 299.436 128.614C299.84 128.376 300.155 128.049 300.382 127.634C300.609 127.219 300.723 126.743 300.723 126.207V126.19C300.723 125.659 300.606 125.188 300.374 124.779C300.147 124.364 299.834 124.04 299.436 123.808C299.037 123.575 298.578 123.459 298.058 123.459C297.66 123.459 297.292 123.52 296.954 123.642C296.622 123.763 296.326 123.946 296.066 124.189C295.961 124.289 295.861 124.397 295.767 124.513C295.678 124.629 295.595 124.759 295.518 124.903H294.223L294.854 118.022H301.519V119.358H296.033L295.626 123.409H295.759C295.936 123.138 296.154 122.911 296.414 122.729C296.675 122.546 296.965 122.408 297.286 122.313C297.613 122.214 297.956 122.164 298.315 122.164C299.068 122.164 299.735 122.338 300.316 122.687C300.897 123.03 301.353 123.503 301.685 124.106C302.017 124.704 302.183 125.39 302.183 126.165V126.182C302.183 126.984 302.004 127.695 301.644 128.315C301.29 128.929 300.8 129.411 300.175 129.759C299.549 130.108 298.83 130.282 298.016 130.282Z" fill="#1D1617"/>
<path d="M401.254 117.74C401.802 117.74 402.342 117.845 402.873 118.055C403.41 118.265 403.894 118.606 404.326 119.076C404.763 119.547 405.112 120.169 405.372 120.944C405.632 121.713 405.762 122.662 405.762 123.791V123.808C405.762 125.169 405.579 126.334 405.214 127.302C404.849 128.265 404.323 129.004 403.637 129.519C402.951 130.028 402.123 130.282 401.155 130.282C400.485 130.282 399.879 130.16 399.337 129.917C398.8 129.668 398.352 129.322 397.992 128.879C397.633 128.437 397.383 127.922 397.245 127.335L397.22 127.228H398.723L398.756 127.319C398.878 127.651 399.049 127.939 399.271 128.182C399.497 128.426 399.769 128.614 400.084 128.747C400.405 128.879 400.767 128.946 401.171 128.946C401.896 128.946 402.486 128.736 402.939 128.315C403.393 127.889 403.731 127.324 403.952 126.622C404.174 125.919 404.298 125.152 404.326 124.322C404.331 124.245 404.334 124.17 404.334 124.098C404.334 124.021 404.334 123.946 404.334 123.874L403.977 121.882C403.977 121.356 403.855 120.88 403.612 120.454C403.374 120.028 403.05 119.69 402.641 119.441C402.237 119.187 401.78 119.06 401.271 119.06C400.773 119.06 400.319 119.184 399.91 119.433C399.5 119.677 399.174 120.009 398.93 120.429C398.687 120.844 398.565 121.312 398.565 121.832V121.849C398.565 122.38 398.681 122.853 398.914 123.268C399.146 123.678 399.464 124.001 399.868 124.239C400.272 124.472 400.731 124.588 401.246 124.588C401.766 124.588 402.231 124.472 402.641 124.239C403.05 124.007 403.374 123.689 403.612 123.285C403.855 122.875 403.977 122.41 403.977 121.89V121.882H404.467V124.04H404.176C404.032 124.367 403.811 124.671 403.512 124.953C403.219 125.235 402.859 125.462 402.433 125.634C402.013 125.805 401.531 125.891 400.989 125.891C400.242 125.891 399.572 125.717 398.98 125.368C398.388 125.02 397.92 124.544 397.577 123.94C397.234 123.332 397.063 122.646 397.063 121.882V121.865C397.063 121.068 397.242 120.36 397.602 119.74C397.967 119.115 398.465 118.625 399.096 118.271C399.733 117.917 400.452 117.74 401.254 117.74ZM411.964 130.282C411.416 130.282 410.874 130.177 410.337 129.967C409.806 129.757 409.322 129.416 408.884 128.946C408.453 128.475 408.107 127.856 407.847 127.086C407.587 126.312 407.457 125.36 407.457 124.231V124.214C407.457 122.853 407.639 121.691 408.005 120.728C408.37 119.76 408.896 119.021 409.582 118.512C410.268 117.997 411.095 117.74 412.064 117.74C412.733 117.74 413.336 117.864 413.873 118.113C414.416 118.357 414.867 118.7 415.226 119.143C415.592 119.58 415.841 120.094 415.973 120.687L415.998 120.794H414.496L414.463 120.703C414.341 120.366 414.167 120.078 413.94 119.84C413.718 119.596 413.447 119.408 413.126 119.275C412.811 119.143 412.451 119.076 412.047 119.076C411.322 119.076 410.733 119.289 410.279 119.715C409.825 120.136 409.488 120.698 409.266 121.4C409.05 122.098 408.926 122.864 408.893 123.7C408.887 123.772 408.884 123.846 408.884 123.924C408.884 123.996 408.884 124.07 408.884 124.148L409.241 126.14C409.241 126.666 409.36 127.142 409.598 127.568C409.842 127.994 410.168 128.334 410.578 128.589C410.987 128.838 411.444 128.962 411.947 128.962C412.451 128.962 412.908 128.841 413.317 128.597C413.727 128.348 414.05 128.013 414.288 127.593C414.532 127.172 414.654 126.705 414.654 126.19V126.173C414.654 125.642 414.537 125.172 414.305 124.762C414.078 124.347 413.763 124.023 413.359 123.791C412.955 123.553 412.493 123.434 411.972 123.434C411.458 123.434 410.993 123.55 410.578 123.783C410.168 124.015 409.842 124.336 409.598 124.746C409.36 125.15 409.241 125.612 409.241 126.132V126.14H408.752V123.982H409.042C409.192 123.655 409.413 123.351 409.706 123.069C410 122.787 410.359 122.56 410.785 122.388C411.211 122.217 411.693 122.131 412.23 122.131C412.982 122.131 413.655 122.305 414.247 122.654C414.839 123.002 415.304 123.478 415.641 124.082C415.984 124.685 416.156 125.371 416.156 126.14V126.157C416.156 126.954 415.973 127.662 415.608 128.282C415.248 128.902 414.753 129.391 414.122 129.751C413.491 130.105 412.772 130.282 411.964 130.282Z" fill="#34C759"/>
<rect width="386" height="38" transform="translate(32 143)" fill="white"/>
<path d="M37.4536 168.282C36.5793 168.282 35.8156 168.141 35.1626 167.859C34.5151 167.571 34.0005 167.178 33.6187 166.68C33.2424 166.177 33.0238 165.601 32.9629 164.954L32.9546 164.862H34.4487L34.457 164.954C34.4958 165.352 34.6479 165.698 34.9136 165.991C35.1847 166.279 35.5444 166.503 35.9927 166.664C36.4465 166.824 36.9611 166.904 37.5366 166.904C38.0789 166.904 38.5604 166.819 38.981 166.647C39.4071 166.47 39.7419 166.226 39.9854 165.917C40.2288 165.607 40.3506 165.25 40.3506 164.846V164.837C40.3506 164.339 40.168 163.922 39.8027 163.584C39.4375 163.241 38.8426 162.978 38.0181 162.795L36.6899 162.505C35.4891 162.239 34.6147 161.83 34.0669 161.276C33.5246 160.717 33.2534 160.004 33.2534 159.135V159.126C33.259 158.462 33.4388 157.876 33.793 157.367C34.1527 156.858 34.6479 156.459 35.2788 156.171C35.9152 155.884 36.6457 155.74 37.4702 155.74C38.2671 155.74 38.9727 155.884 39.5869 156.171C40.2012 156.454 40.6882 156.835 41.0479 157.317C41.4131 157.798 41.6151 158.338 41.6538 158.936L41.6621 159.052H40.168L40.1514 158.944C40.096 158.59 39.9521 158.277 39.7197 158.006C39.4873 157.729 39.1774 157.511 38.79 157.35C38.4027 157.19 37.9489 157.112 37.4287 157.118C36.9307 157.118 36.4824 157.195 36.084 157.35C35.6855 157.505 35.3674 157.729 35.1294 158.022C34.897 158.31 34.7808 158.664 34.7808 159.085V159.093C34.7808 159.569 34.9578 159.97 35.312 160.297C35.6662 160.623 36.25 160.875 37.0635 161.052L38.3916 161.351C39.2272 161.534 39.8996 161.772 40.4087 162.065C40.9178 162.358 41.2886 162.718 41.521 163.144C41.759 163.565 41.8779 164.063 41.8779 164.638V164.646C41.8779 165.394 41.6953 166.038 41.3301 166.581C40.9648 167.123 40.4502 167.543 39.7861 167.842C39.1221 168.136 38.3446 168.282 37.4536 168.282ZM47.4079 168.158C46.5557 168.158 45.8224 167.97 45.2082 167.593C44.5995 167.217 44.1291 166.686 43.7971 166C43.4706 165.308 43.3073 164.494 43.3073 163.559V163.551C43.3073 162.627 43.4706 161.816 43.7971 161.119C44.1291 160.421 44.5967 159.876 45.1999 159.483C45.8031 159.09 46.5086 158.894 47.3166 158.894C48.1301 158.894 48.8273 159.082 49.4084 159.458C49.995 159.835 50.4432 160.361 50.7531 161.036C51.0685 161.705 51.2262 162.486 51.2262 163.376V163.941H44.0544V162.787H50.4875L49.7736 163.841V163.269C49.7736 162.566 49.6685 161.987 49.4582 161.534C49.2479 161.08 48.9574 160.742 48.5866 160.521C48.2158 160.294 47.7897 160.181 47.3083 160.181C46.8268 160.181 46.3952 160.3 46.0134 160.538C45.6371 160.77 45.3382 161.116 45.1169 161.575C44.8955 162.035 44.7848 162.599 44.7848 163.269V163.841C44.7848 164.478 44.8928 165.023 45.1086 165.477C45.3244 165.925 45.6315 166.271 46.03 166.514C46.4284 166.752 46.8988 166.871 47.4411 166.871C47.8451 166.871 48.1965 166.816 48.4953 166.705C48.7941 166.594 49.0404 166.453 49.2341 166.282C49.4277 166.11 49.5633 165.936 49.6408 165.759L49.674 165.684H51.1183L51.1017 165.75C51.0243 166.055 50.8859 166.351 50.6867 166.639C50.493 166.921 50.2412 167.178 49.9313 167.411C49.6214 167.638 49.2534 167.82 48.8273 167.958C48.4068 168.091 47.9336 168.158 47.4079 168.158ZM56.2167 168.066C55.298 168.066 54.6312 167.881 54.2162 167.51C53.8067 167.139 53.6019 166.528 53.6019 165.676V160.247H52.1908V159.052H53.6019V156.736H55.0961V159.052H57.055V160.247H55.0961V165.311C55.0961 165.836 55.1957 166.215 55.3949 166.448C55.5941 166.675 55.9261 166.788 56.391 166.788C56.5183 166.788 56.6262 166.785 56.7147 166.78C56.8088 166.774 56.9222 166.766 57.055 166.755V167.983C56.9167 168.006 56.7783 168.025 56.64 168.042C56.5017 168.058 56.3605 168.066 56.2167 168.066ZM67.2019 168.199C66.3773 168.199 65.6579 168.058 65.0437 167.776C64.4294 167.494 63.9424 167.106 63.5827 166.614C63.2286 166.121 63.0238 165.56 62.9685 164.929L62.9602 164.829H64.3962L64.4045 164.912C64.4432 165.305 64.5816 165.651 64.8196 165.95C65.063 166.249 65.3868 166.484 65.7907 166.655C66.2002 166.821 66.6706 166.904 67.2019 166.904C67.7276 166.904 68.1869 166.813 68.5798 166.63C68.9782 166.448 69.2881 166.196 69.5095 165.875C69.7308 165.549 69.8415 165.175 69.8415 164.754V164.738C69.8415 164.002 69.5953 163.437 69.1028 163.044C68.6158 162.646 67.9517 162.447 67.1106 162.447H65.6081V161.185H67.0442C67.5201 161.185 67.9406 161.097 68.3059 160.919C68.6711 160.737 68.9561 160.491 69.1609 160.181C69.3656 159.865 69.468 159.508 69.468 159.11V159.093C69.468 158.673 69.3794 158.316 69.2024 158.022C69.0253 157.729 68.7652 157.505 68.4221 157.35C68.0845 157.195 67.6723 157.118 67.1853 157.118C66.7149 157.118 66.2943 157.198 65.9236 157.358C65.5583 157.513 65.265 157.737 65.0437 158.031C64.8223 158.324 64.6895 158.673 64.6452 159.077L64.6369 159.16H63.2009L63.2092 159.077C63.2756 158.424 63.4804 157.854 63.8235 157.367C64.1721 156.88 64.6314 156.501 65.2014 156.229C65.7769 155.958 66.4382 155.823 67.1853 155.823C67.9489 155.823 68.613 155.956 69.1775 156.221C69.7474 156.481 70.1874 156.844 70.4973 157.309C70.8127 157.768 70.9704 158.302 70.9704 158.911V158.927C70.9704 159.42 70.8625 159.857 70.6467 160.239C70.4309 160.621 70.1321 160.939 69.7502 161.193C69.3684 161.448 68.9284 161.628 68.4304 161.733V161.766C69.3047 161.838 70.0103 162.134 70.5471 162.654C71.0894 163.169 71.3606 163.852 71.3606 164.705V164.721C71.3606 165.385 71.1807 165.98 70.821 166.506C70.4613 167.032 69.9688 167.447 69.3435 167.751C68.7182 168.05 68.0043 168.199 67.2019 168.199Z" fill="#1D1617"/>
<path d="M184.604 168.282C183.863 168.282 183.202 168.136 182.62 167.842C182.039 167.549 181.572 167.151 181.218 166.647C180.869 166.138 180.664 165.565 180.603 164.929L180.595 164.837H182.031L182.039 164.904C182.089 165.286 182.228 165.634 182.454 165.95C182.687 166.26 182.988 166.506 183.359 166.688C183.736 166.871 184.156 166.962 184.621 166.962C185.152 166.962 185.62 166.846 186.024 166.614C186.428 166.376 186.743 166.049 186.97 165.634C187.197 165.219 187.31 164.743 187.31 164.207V164.19C187.31 163.659 187.194 163.188 186.962 162.779C186.735 162.364 186.422 162.04 186.024 161.808C185.625 161.575 185.166 161.459 184.646 161.459C184.247 161.459 183.879 161.52 183.542 161.642C183.21 161.763 182.914 161.946 182.654 162.189C182.549 162.289 182.449 162.397 182.355 162.513C182.266 162.629 182.183 162.759 182.106 162.903H180.811L181.442 156.022H188.107V157.358H182.62L182.214 161.409H182.347C182.524 161.138 182.742 160.911 183.002 160.729C183.262 160.546 183.553 160.408 183.874 160.313C184.2 160.214 184.543 160.164 184.903 160.164C185.656 160.164 186.323 160.338 186.904 160.687C187.485 161.03 187.941 161.503 188.273 162.106C188.605 162.704 188.771 163.39 188.771 164.165V164.182C188.771 164.984 188.591 165.695 188.232 166.315C187.878 166.929 187.388 167.411 186.763 167.759C186.137 168.108 185.418 168.282 184.604 168.282Z" fill="#1D1617"/>
<path d="M287.938 168.282C287.196 168.282 286.535 168.136 285.954 167.842C285.373 167.549 284.905 167.151 284.551 166.647C284.202 166.138 283.998 165.565 283.937 164.929L283.928 164.837H285.364L285.373 164.904C285.423 165.286 285.561 165.634 285.788 165.95C286.02 166.26 286.322 166.506 286.693 166.688C287.069 166.871 287.489 166.962 287.954 166.962C288.486 166.962 288.953 166.846 289.357 166.614C289.761 166.376 290.077 166.049 290.303 165.634C290.53 165.219 290.644 164.743 290.644 164.207V164.19C290.644 163.659 290.528 163.188 290.295 162.779C290.068 162.364 289.756 162.04 289.357 161.808C288.959 161.575 288.499 161.459 287.979 161.459C287.581 161.459 287.213 161.52 286.875 161.642C286.543 161.763 286.247 161.946 285.987 162.189C285.882 162.289 285.782 162.397 285.688 162.513C285.6 162.629 285.517 162.759 285.439 162.903H284.144L284.775 156.022H291.441V157.358H285.954L285.547 161.409H285.68C285.857 161.138 286.076 160.911 286.336 160.729C286.596 160.546 286.886 160.408 287.207 160.313C287.534 160.214 287.877 160.164 288.237 160.164C288.989 160.164 289.656 160.338 290.237 160.687C290.818 161.03 291.275 161.503 291.607 162.106C291.939 162.704 292.105 163.39 292.105 164.165V164.182C292.105 164.984 291.925 165.695 291.565 166.315C291.211 166.929 290.721 167.411 290.096 167.759C289.471 168.108 288.751 168.282 287.938 168.282ZM298.016 168.282C297.275 168.282 296.614 168.136 296.033 167.842C295.452 167.549 294.984 167.151 294.63 166.647C294.281 166.138 294.076 165.565 294.015 164.929L294.007 164.837H295.443L295.452 164.904C295.501 165.286 295.64 165.634 295.867 165.95C296.099 166.26 296.401 166.506 296.771 166.688C297.148 166.871 297.568 166.962 298.033 166.962C298.564 166.962 299.032 166.846 299.436 166.614C299.84 166.376 300.155 166.049 300.382 165.634C300.609 165.219 300.723 164.743 300.723 164.207V164.19C300.723 163.659 300.606 163.188 300.374 162.779C300.147 162.364 299.834 162.04 299.436 161.808C299.037 161.575 298.578 161.459 298.058 161.459C297.66 161.459 297.292 161.52 296.954 161.642C296.622 161.763 296.326 161.946 296.066 162.189C295.961 162.289 295.861 162.397 295.767 162.513C295.678 162.629 295.595 162.759 295.518 162.903H294.223L294.854 156.022H301.519V157.358H296.033L295.626 161.409H295.759C295.936 161.138 296.154 160.911 296.414 160.729C296.675 160.546 296.965 160.408 297.286 160.313C297.613 160.214 297.956 160.164 298.315 160.164C299.068 160.164 299.735 160.338 300.316 160.687C300.897 161.03 301.353 161.503 301.685 162.106C302.017 162.704 302.183 163.39 302.183 164.165V164.182C302.183 164.984 302.004 165.695 301.644 166.315C301.29 166.929 300.8 167.411 300.175 167.759C299.549 168.108 298.83 168.282 298.016 168.282Z" fill="#1D1617"/>
<path d="M401.254 155.74C401.802 155.74 402.342 155.845 402.873 156.055C403.41 156.265 403.894 156.606 404.326 157.076C404.763 157.547 405.112 158.169 405.372 158.944C405.632 159.713 405.762 160.662 405.762 161.791V161.808C405.762 163.169 405.579 164.334 405.214 165.302C404.849 166.265 404.323 167.004 403.637 167.519C402.951 168.028 402.123 168.282 401.155 168.282C400.485 168.282 399.879 168.16 399.337 167.917C398.8 167.668 398.352 167.322 397.992 166.879C397.633 166.437 397.383 165.922 397.245 165.335L397.22 165.228H398.723L398.756 165.319C398.878 165.651 399.049 165.939 399.271 166.182C399.497 166.426 399.769 166.614 400.084 166.747C400.405 166.879 400.767 166.946 401.171 166.946C401.896 166.946 402.486 166.736 402.939 166.315C403.393 165.889 403.731 165.324 403.952 164.622C404.174 163.919 404.298 163.152 404.326 162.322C404.331 162.245 404.334 162.17 404.334 162.098C404.334 162.021 404.334 161.946 404.334 161.874L403.977 159.882C403.977 159.356 403.855 158.88 403.612 158.454C403.374 158.028 403.05 157.69 402.641 157.441C402.237 157.187 401.78 157.06 401.271 157.06C400.773 157.06 400.319 157.184 399.91 157.433C399.5 157.677 399.174 158.009 398.93 158.429C398.687 158.844 398.565 159.312 398.565 159.832V159.849C398.565 160.38 398.681 160.853 398.914 161.268C399.146 161.678 399.464 162.001 399.868 162.239C400.272 162.472 400.731 162.588 401.246 162.588C401.766 162.588 402.231 162.472 402.641 162.239C403.05 162.007 403.374 161.689 403.612 161.285C403.855 160.875 403.977 160.41 403.977 159.89V159.882H404.467V162.04H404.176C404.032 162.367 403.811 162.671 403.512 162.953C403.219 163.235 402.859 163.462 402.433 163.634C402.013 163.805 401.531 163.891 400.989 163.891C400.242 163.891 399.572 163.717 398.98 163.368C398.388 163.02 397.92 162.544 397.577 161.94C397.234 161.332 397.063 160.646 397.063 159.882V159.865C397.063 159.068 397.242 158.36 397.602 157.74C397.967 157.115 398.465 156.625 399.096 156.271C399.733 155.917 400.452 155.74 401.254 155.74ZM411.806 168.199C410.982 168.199 410.262 168.058 409.648 167.776C409.034 167.494 408.547 167.106 408.187 166.614C407.833 166.121 407.628 165.56 407.573 164.929L407.565 164.829H409.001L409.009 164.912C409.048 165.305 409.186 165.651 409.424 165.95C409.668 166.249 409.991 166.484 410.395 166.655C410.805 166.821 411.275 166.904 411.806 166.904C412.332 166.904 412.791 166.813 413.184 166.63C413.583 166.448 413.893 166.196 414.114 165.875C414.335 165.549 414.446 165.175 414.446 164.754V164.738C414.446 164.002 414.2 163.437 413.707 163.044C413.22 162.646 412.556 162.447 411.715 162.447H410.213V161.185H411.649C412.125 161.185 412.545 161.097 412.91 160.919C413.276 160.737 413.561 160.491 413.765 160.181C413.97 159.865 414.072 159.508 414.072 159.11V159.093C414.072 158.673 413.984 158.316 413.807 158.022C413.63 157.729 413.37 157.505 413.027 157.35C412.689 157.195 412.277 157.118 411.79 157.118C411.319 157.118 410.899 157.198 410.528 157.358C410.163 157.513 409.87 157.737 409.648 158.031C409.427 158.324 409.294 158.673 409.25 159.077L409.241 159.16H407.805L407.814 159.077C407.88 158.424 408.085 157.854 408.428 157.367C408.777 156.88 409.236 156.501 409.806 156.229C410.381 155.958 411.043 155.823 411.79 155.823C412.553 155.823 413.217 155.956 413.782 156.221C414.352 156.481 414.792 156.844 415.102 157.309C415.417 157.768 415.575 158.302 415.575 158.911V158.927C415.575 159.42 415.467 159.857 415.251 160.239C415.035 160.621 414.737 160.939 414.355 161.193C413.973 161.448 413.533 161.628 413.035 161.733V161.766C413.909 161.838 414.615 162.134 415.152 162.654C415.694 163.169 415.965 163.852 415.965 164.705V164.721C415.965 165.385 415.785 165.98 415.425 166.506C415.066 167.032 414.573 167.447 413.948 167.751C413.323 168.05 412.609 168.199 411.806 168.199Z" fill="#34C759"/>
<rect width="386" height="38" transform="translate(32 181)" fill="white"/>
<path d="M37.4536 206.282C36.5793 206.282 35.8156 206.141 35.1626 205.859C34.5151 205.571 34.0005 205.178 33.6187 204.68C33.2424 204.177 33.0238 203.601 32.9629 202.954L32.9546 202.862H34.4487L34.457 202.954C34.4958 203.352 34.6479 203.698 34.9136 203.991C35.1847 204.279 35.5444 204.503 35.9927 204.664C36.4465 204.824 36.9611 204.904 37.5366 204.904C38.0789 204.904 38.5604 204.819 38.981 204.647C39.4071 204.47 39.7419 204.226 39.9854 203.917C40.2288 203.607 40.3506 203.25 40.3506 202.846V202.837C40.3506 202.339 40.168 201.922 39.8027 201.584C39.4375 201.241 38.8426 200.978 38.0181 200.795L36.6899 200.505C35.4891 200.239 34.6147 199.83 34.0669 199.276C33.5246 198.717 33.2534 198.004 33.2534 197.135V197.126C33.259 196.462 33.4388 195.876 33.793 195.367C34.1527 194.858 34.6479 194.459 35.2788 194.171C35.9152 193.884 36.6457 193.74 37.4702 193.74C38.2671 193.74 38.9727 193.884 39.5869 194.171C40.2012 194.454 40.6882 194.835 41.0479 195.317C41.4131 195.798 41.6151 196.338 41.6538 196.936L41.6621 197.052H40.168L40.1514 196.944C40.096 196.59 39.9521 196.277 39.7197 196.006C39.4873 195.729 39.1774 195.511 38.79 195.35C38.4027 195.19 37.9489 195.112 37.4287 195.118C36.9307 195.118 36.4824 195.195 36.084 195.35C35.6855 195.505 35.3674 195.729 35.1294 196.022C34.897 196.31 34.7808 196.664 34.7808 197.085V197.093C34.7808 197.569 34.9578 197.97 35.312 198.297C35.6662 198.623 36.25 198.875 37.0635 199.052L38.3916 199.351C39.2272 199.534 39.8996 199.772 40.4087 200.065C40.9178 200.358 41.2886 200.718 41.521 201.144C41.759 201.565 41.8779 202.063 41.8779 202.638V202.646C41.8779 203.394 41.6953 204.038 41.3301 204.581C40.9648 205.123 40.4502 205.543 39.7861 205.842C39.1221 206.136 38.3446 206.282 37.4536 206.282ZM47.4079 206.158C46.5557 206.158 45.8224 205.97 45.2082 205.593C44.5995 205.217 44.1291 204.686 43.7971 204C43.4706 203.308 43.3073 202.494 43.3073 201.559V201.551C43.3073 200.627 43.4706 199.816 43.7971 199.119C44.1291 198.421 44.5967 197.876 45.1999 197.483C45.8031 197.09 46.5086 196.894 47.3166 196.894C48.1301 196.894 48.8273 197.082 49.4084 197.458C49.995 197.835 50.4432 198.361 50.7531 199.036C51.0685 199.705 51.2262 200.486 51.2262 201.376V201.941H44.0544V200.787H50.4875L49.7736 201.841V201.269C49.7736 200.566 49.6685 199.987 49.4582 199.534C49.2479 199.08 48.9574 198.742 48.5866 198.521C48.2158 198.294 47.7897 198.181 47.3083 198.181C46.8268 198.181 46.3952 198.3 46.0134 198.538C45.6371 198.77 45.3382 199.116 45.1169 199.575C44.8955 200.035 44.7848 200.599 44.7848 201.269V201.841C44.7848 202.478 44.8928 203.023 45.1086 203.477C45.3244 203.925 45.6315 204.271 46.03 204.514C46.4284 204.752 46.8988 204.871 47.4411 204.871C47.8451 204.871 48.1965 204.816 48.4953 204.705C48.7941 204.594 49.0404 204.453 49.2341 204.282C49.4277 204.11 49.5633 203.936 49.6408 203.759L49.674 203.684H51.1183L51.1017 203.75C51.0243 204.055 50.8859 204.351 50.6867 204.639C50.493 204.921 50.2412 205.178 49.9313 205.411C49.6214 205.638 49.2534 205.82 48.8273 205.958C48.4068 206.091 47.9336 206.158 47.4079 206.158ZM56.2167 206.066C55.298 206.066 54.6312 205.881 54.2162 205.51C53.8067 205.139 53.6019 204.528 53.6019 203.676V198.247H52.1908V197.052H53.6019V194.736H55.0961V197.052H57.055V198.247H55.0961V203.311C55.0961 203.836 55.1957 204.215 55.3949 204.448C55.5941 204.675 55.9261 204.788 56.391 204.788C56.5183 204.788 56.6262 204.785 56.7147 204.78C56.8088 204.774 56.9222 204.766 57.055 204.755V205.983C56.9167 206.006 56.7783 206.025 56.64 206.042C56.5017 206.058 56.3605 206.066 56.2167 206.066ZM68.5964 206V203.518H62.761V202.157C63.0875 201.614 63.4195 201.067 63.7571 200.513C64.0946 199.954 64.4349 199.398 64.778 198.845C65.1267 198.286 65.4753 197.732 65.8239 197.185C66.1726 196.637 66.5184 196.097 66.8615 195.566C67.2102 195.035 67.5533 194.52 67.8908 194.022H70.0573V202.182H71.759V203.518H70.0573V206H68.5964ZM64.2883 202.19H68.6047V195.408H68.5051C68.2339 195.812 67.9572 196.233 67.675 196.67C67.3928 197.102 67.105 197.544 66.8117 197.998C66.524 198.452 66.2362 198.908 65.9485 199.368C65.6607 199.827 65.3757 200.286 65.0935 200.746C64.8168 201.199 64.5484 201.648 64.2883 202.09V202.19Z" fill="#1D1617"/>
<path d="M184.938 206.282C184.196 206.282 183.535 206.136 182.954 205.842C182.373 205.549 181.905 205.151 181.551 204.647C181.202 204.138 180.998 203.565 180.937 202.929L180.928 202.837H182.364L182.373 202.904C182.423 203.286 182.561 203.634 182.788 203.95C183.02 204.26 183.322 204.506 183.693 204.688C184.069 204.871 184.489 204.962 184.954 204.962C185.486 204.962 185.953 204.846 186.357 204.614C186.761 204.376 187.076 204.049 187.303 203.634C187.53 203.219 187.644 202.743 187.644 202.207V202.19C187.644 201.659 187.527 201.188 187.295 200.779C187.068 200.364 186.756 200.04 186.357 199.808C185.959 199.575 185.499 199.459 184.979 199.459C184.581 199.459 184.213 199.52 183.875 199.642C183.543 199.763 183.247 199.946 182.987 200.189C182.882 200.289 182.782 200.397 182.688 200.513C182.6 200.629 182.517 200.759 182.439 200.903H181.144L181.775 194.022H188.441V195.358H182.954L182.547 199.409H182.68C182.857 199.138 183.076 198.911 183.336 198.729C183.596 198.546 183.886 198.408 184.207 198.313C184.534 198.214 184.877 198.164 185.236 198.164C185.989 198.164 186.656 198.338 187.237 198.687C187.818 199.03 188.275 199.503 188.607 200.106C188.939 200.704 189.105 201.39 189.105 202.165V202.182C189.105 202.984 188.925 203.695 188.565 204.315C188.211 204.929 187.721 205.411 187.096 205.759C186.471 206.108 185.751 206.282 184.938 206.282Z" fill="#1D1617"/>
<path d="M288.604 206.282C287.863 206.282 287.201 206.136 286.62 205.842C286.039 205.549 285.572 205.151 285.218 204.647C284.869 204.138 284.664 203.565 284.603 202.929L284.595 202.837H286.031L286.039 202.904C286.089 203.286 286.228 203.634 286.454 203.95C286.687 204.26 286.988 204.506 287.359 204.688C287.735 204.871 288.156 204.962 288.621 204.962C289.152 204.962 289.62 204.846 290.024 204.614C290.428 204.376 290.743 204.049 290.97 203.634C291.197 203.219 291.31 202.743 291.31 202.207V202.19C291.31 201.659 291.194 201.188 290.962 200.779C290.735 200.364 290.422 200.04 290.024 199.808C289.625 199.575 289.166 199.459 288.646 199.459C288.247 199.459 287.879 199.52 287.542 199.642C287.21 199.763 286.914 199.946 286.654 200.189C286.548 200.289 286.449 200.397 286.355 200.513C286.266 200.629 286.183 200.759 286.106 200.903H284.811L285.442 194.022H292.107V195.358H286.62L286.214 199.409H286.346C286.524 199.138 286.742 198.911 287.002 198.729C287.262 198.546 287.553 198.408 287.874 198.313C288.2 198.214 288.543 198.164 288.903 198.164C289.656 198.164 290.323 198.338 290.904 198.687C291.485 199.03 291.941 199.503 292.273 200.106C292.605 200.704 292.771 201.39 292.771 202.165V202.182C292.771 202.984 292.591 203.695 292.232 204.315C291.878 204.929 291.388 205.411 290.763 205.759C290.137 206.108 289.418 206.282 288.604 206.282ZM298.683 206.282C297.942 206.282 297.28 206.136 296.699 205.842C296.118 205.549 295.651 205.151 295.296 204.647C294.948 204.138 294.743 203.565 294.682 202.929L294.674 202.837H296.11L296.118 202.904C296.168 203.286 296.306 203.634 296.533 203.95C296.766 204.26 297.067 204.506 297.438 204.688C297.814 204.871 298.235 204.962 298.7 204.962C299.231 204.962 299.699 204.846 300.103 204.614C300.507 204.376 300.822 204.049 301.049 203.634C301.276 203.219 301.389 202.743 301.389 202.207V202.19C301.389 201.659 301.273 201.188 301.041 200.779C300.814 200.364 300.501 200.04 300.103 199.808C299.704 199.575 299.245 199.459 298.725 199.459C298.326 199.459 297.958 199.52 297.621 199.642C297.289 199.763 296.993 199.946 296.732 200.189C296.627 200.289 296.528 200.397 296.434 200.513C296.345 200.629 296.262 200.759 296.185 200.903H294.89L295.521 194.022H302.186V195.358H296.699L296.292 199.409H296.425C296.602 199.138 296.821 198.911 297.081 198.729C297.341 198.546 297.632 198.408 297.953 198.313C298.279 198.214 298.622 198.164 298.982 198.164C299.735 198.164 300.401 198.338 300.982 198.687C301.563 199.03 302.02 199.503 302.352 200.106C302.684 200.704 302.85 201.39 302.85 202.165V202.182C302.85 202.984 302.67 203.695 302.311 204.315C301.956 204.929 301.467 205.411 300.841 205.759C300.216 206.108 299.497 206.282 298.683 206.282Z" fill="#1D1617"/>
<path d="M402.254 193.74C402.802 193.74 403.342 193.845 403.873 194.055C404.41 194.265 404.894 194.606 405.326 195.076C405.763 195.547 406.111 196.169 406.372 196.944C406.632 197.713 406.762 198.662 406.762 199.791V199.808C406.762 201.169 406.579 202.334 406.214 203.302C405.849 204.265 405.323 205.004 404.637 205.519C403.95 206.028 403.123 206.282 402.155 206.282C401.485 206.282 400.879 206.16 400.337 205.917C399.8 205.668 399.352 205.322 398.992 204.879C398.632 204.437 398.383 203.922 398.245 203.335L398.22 203.228H399.723L399.756 203.319C399.878 203.651 400.049 203.939 400.27 204.182C400.497 204.426 400.769 204.614 401.084 204.747C401.405 204.879 401.767 204.946 402.171 204.946C402.896 204.946 403.486 204.736 403.939 204.315C404.393 203.889 404.731 203.324 404.952 202.622C405.173 201.919 405.298 201.152 405.326 200.322C405.331 200.245 405.334 200.17 405.334 200.098C405.334 200.021 405.334 199.946 405.334 199.874L404.977 197.882C404.977 197.356 404.855 196.88 404.612 196.454C404.374 196.028 404.05 195.69 403.641 195.441C403.237 195.187 402.78 195.06 402.271 195.06C401.773 195.06 401.319 195.184 400.91 195.433C400.5 195.677 400.174 196.009 399.93 196.429C399.687 196.844 399.565 197.312 399.565 197.832V197.849C399.565 198.38 399.681 198.853 399.914 199.268C400.146 199.678 400.464 200.001 400.868 200.239C401.272 200.472 401.731 200.588 402.246 200.588C402.766 200.588 403.231 200.472 403.641 200.239C404.05 200.007 404.374 199.689 404.612 199.285C404.855 198.875 404.977 198.41 404.977 197.89V197.882H405.467V200.04H405.176C405.032 200.367 404.811 200.671 404.512 200.953C404.219 201.235 403.859 201.462 403.433 201.634C403.013 201.805 402.531 201.891 401.989 201.891C401.242 201.891 400.572 201.717 399.98 201.368C399.388 201.02 398.92 200.544 398.577 199.94C398.234 199.332 398.062 198.646 398.062 197.882V197.865C398.062 197.068 398.242 196.36 398.602 195.74C398.967 195.115 399.465 194.625 400.096 194.271C400.733 193.917 401.452 193.74 402.254 193.74ZM408.731 206V204.971L412.781 200.588C413.291 200.035 413.689 199.578 413.977 199.218C414.264 198.853 414.466 198.524 414.583 198.23C414.699 197.937 414.757 197.616 414.757 197.268V197.251C414.757 196.83 414.666 196.454 414.483 196.122C414.3 195.79 414.04 195.527 413.703 195.333C413.365 195.14 412.961 195.043 412.491 195.043C412.015 195.043 411.597 195.143 411.237 195.342C410.878 195.535 410.598 195.809 410.399 196.164C410.2 196.512 410.1 196.922 410.1 197.392L410.092 197.409L408.664 197.4L408.648 197.392C408.653 196.684 408.825 196.056 409.162 195.508C409.5 194.954 409.965 194.523 410.557 194.213C411.149 193.897 411.827 193.74 412.59 193.74C413.288 193.74 413.916 193.886 414.475 194.18C415.034 194.467 415.474 194.863 415.795 195.367C416.121 195.87 416.284 196.446 416.284 197.093V197.11C416.284 197.564 416.204 198.001 416.044 198.421C415.889 198.842 415.612 199.31 415.214 199.824C414.815 200.333 414.253 200.961 413.528 201.708L410.432 204.904L410.806 204.215V204.904L410.441 204.655H416.484V206H408.731Z" fill="#34C759"/>
<rect width="386" height="38" transform="translate(32 219)" fill="white"/>
<path d="M37.4536 244.282C36.5793 244.282 35.8156 244.141 35.1626 243.859C34.5151 243.571 34.0005 243.178 33.6187 242.68C33.2424 242.177 33.0238 241.601 32.9629 240.954L32.9546 240.862H34.4487L34.457 240.954C34.4958 241.352 34.6479 241.698 34.9136 241.991C35.1847 242.279 35.5444 242.503 35.9927 242.664C36.4465 242.824 36.9611 242.904 37.5366 242.904C38.0789 242.904 38.5604 242.819 38.981 242.647C39.4071 242.47 39.7419 242.226 39.9854 241.917C40.2288 241.607 40.3506 241.25 40.3506 240.846V240.837C40.3506 240.339 40.168 239.922 39.8027 239.584C39.4375 239.241 38.8426 238.978 38.0181 238.795L36.6899 238.505C35.4891 238.239 34.6147 237.83 34.0669 237.276C33.5246 236.717 33.2534 236.004 33.2534 235.135V235.126C33.259 234.462 33.4388 233.876 33.793 233.367C34.1527 232.858 34.6479 232.459 35.2788 232.171C35.9152 231.884 36.6457 231.74 37.4702 231.74C38.2671 231.74 38.9727 231.884 39.5869 232.171C40.2012 232.454 40.6882 232.835 41.0479 233.317C41.4131 233.798 41.6151 234.338 41.6538 234.936L41.6621 235.052H40.168L40.1514 234.944C40.096 234.59 39.9521 234.277 39.7197 234.006C39.4873 233.729 39.1774 233.511 38.79 233.35C38.4027 233.19 37.9489 233.112 37.4287 233.118C36.9307 233.118 36.4824 233.195 36.084 233.35C35.6855 233.505 35.3674 233.729 35.1294 234.022C34.897 234.31 34.7808 234.664 34.7808 235.085V235.093C34.7808 235.569 34.9578 235.97 35.312 236.297C35.6662 236.623 36.25 236.875 37.0635 237.052L38.3916 237.351C39.2272 237.534 39.8996 237.772 40.4087 238.065C40.9178 238.358 41.2886 238.718 41.521 239.144C41.759 239.565 41.8779 240.063 41.8779 240.638V240.646C41.8779 241.394 41.6953 242.038 41.3301 242.581C40.9648 243.123 40.4502 243.543 39.7861 243.842C39.1221 244.136 38.3446 244.282 37.4536 244.282ZM47.4079 244.158C46.5557 244.158 45.8224 243.97 45.2082 243.593C44.5995 243.217 44.1291 242.686 43.7971 242C43.4706 241.308 43.3073 240.494 43.3073 239.559V239.551C43.3073 238.627 43.4706 237.816 43.7971 237.119C44.1291 236.421 44.5967 235.876 45.1999 235.483C45.8031 235.09 46.5086 234.894 47.3166 234.894C48.1301 234.894 48.8273 235.082 49.4084 235.458C49.995 235.835 50.4432 236.361 50.7531 237.036C51.0685 237.705 51.2262 238.486 51.2262 239.376V239.941H44.0544V238.787H50.4875L49.7736 239.841V239.269C49.7736 238.566 49.6685 237.987 49.4582 237.534C49.2479 237.08 48.9574 236.742 48.5866 236.521C48.2158 236.294 47.7897 236.181 47.3083 236.181C46.8268 236.181 46.3952 236.3 46.0134 236.538C45.6371 236.77 45.3382 237.116 45.1169 237.575C44.8955 238.035 44.7848 238.599 44.7848 239.269V239.841C44.7848 240.478 44.8928 241.023 45.1086 241.477C45.3244 241.925 45.6315 242.271 46.03 242.514C46.4284 242.752 46.8988 242.871 47.4411 242.871C47.8451 242.871 48.1965 242.816 48.4953 242.705C48.7941 242.594 49.0404 242.453 49.2341 242.282C49.4277 242.11 49.5633 241.936 49.6408 241.759L49.674 241.684H51.1183L51.1017 241.75C51.0243 242.055 50.8859 242.351 50.6867 242.639C50.493 242.921 50.2412 243.178 49.9313 243.411C49.6214 243.638 49.2534 243.82 48.8273 243.958C48.4068 244.091 47.9336 244.158 47.4079 244.158ZM56.2167 244.066C55.298 244.066 54.6312 243.881 54.2162 243.51C53.8067 243.139 53.6019 242.528 53.6019 241.676V236.247H52.1908V235.052H53.6019V232.736H55.0961V235.052H57.055V236.247H55.0961V241.311C55.0961 241.836 55.1957 242.215 55.3949 242.448C55.5941 242.675 55.9261 242.788 56.391 242.788C56.5183 242.788 56.6262 242.785 56.7147 242.78C56.8088 242.774 56.9222 242.766 57.055 242.755V243.983C56.9167 244.006 56.7783 244.025 56.64 244.042C56.5017 244.058 56.3605 244.066 56.2167 244.066ZM67.0608 244.282C66.3192 244.282 65.6579 244.136 65.0769 243.842C64.4958 243.549 64.0282 243.151 63.674 242.647C63.3254 242.138 63.1207 241.565 63.0598 240.929L63.0515 240.837H64.4875L64.4958 240.904C64.5456 241.286 64.684 241.634 64.9109 241.95C65.1433 242.26 65.4449 242.506 65.8156 242.688C66.1919 242.871 66.6125 242.962 67.0774 242.962C67.6086 242.962 68.0762 242.846 68.4802 242.614C68.8842 242.376 69.1996 242.049 69.4265 241.634C69.6534 241.219 69.7668 240.743 69.7668 240.207V240.19C69.7668 239.659 69.6506 239.188 69.4182 238.779C69.1913 238.364 68.8786 238.04 68.4802 237.808C68.0818 237.575 67.6224 237.459 67.1023 237.459C66.7038 237.459 66.3358 237.52 65.9983 237.642C65.6662 237.763 65.3702 237.946 65.1101 238.189C65.0049 238.289 64.9053 238.397 64.8113 238.513C64.7227 238.629 64.6397 238.759 64.5622 238.903H63.2673L63.8982 232.022H70.5637V233.358H65.0769L64.6701 237.409H64.8029C64.98 237.138 65.1986 236.911 65.4587 236.729C65.7188 236.546 66.0093 236.408 66.3303 236.313C66.6568 236.214 66.9999 236.164 67.3596 236.164C68.1122 236.164 68.779 236.338 69.3601 236.687C69.9411 237.03 70.3977 237.503 70.7297 238.106C71.0617 238.704 71.2278 239.39 71.2278 240.165V240.182C71.2278 240.984 71.0479 241.695 70.6882 242.315C70.334 242.929 69.8443 243.411 69.219 243.759C68.5936 244.108 67.8742 244.282 67.0608 244.282Z" fill="#1D1617"/>
<path d="M186.807 244V241.518H180.971V240.157C181.298 239.614 181.63 239.067 181.967 238.513C182.305 237.954 182.645 237.398 182.988 236.845C183.337 236.286 183.686 235.732 184.034 235.185C184.383 234.637 184.729 234.097 185.072 233.566C185.42 233.035 185.764 232.52 186.101 232.022H188.268V240.182H189.969V241.518H188.268V244H186.807ZM182.499 240.19H186.815V233.408H186.715C186.444 233.812 186.167 234.233 185.885 234.67C185.603 235.102 185.315 235.544 185.022 235.998C184.734 236.452 184.446 236.908 184.159 237.368C183.871 237.827 183.586 238.286 183.304 238.746C183.027 239.199 182.759 239.648 182.499 240.09V240.19Z" fill="#1D1617"/>
<path d="M289.271 244.282C288.529 244.282 287.868 244.136 287.287 243.842C286.706 243.549 286.238 243.151 285.884 242.647C285.536 242.138 285.331 241.565 285.27 240.929L285.262 240.837H286.698L286.706 240.904C286.756 241.286 286.894 241.634 287.121 241.95C287.354 242.26 287.655 242.506 288.026 242.688C288.402 242.871 288.823 242.962 289.288 242.962C289.819 242.962 290.286 242.846 290.69 242.614C291.094 242.376 291.41 242.049 291.637 241.634C291.864 241.219 291.977 240.743 291.977 240.207V240.19C291.977 239.659 291.861 239.188 291.628 238.779C291.402 238.364 291.089 238.04 290.69 237.808C290.292 237.575 289.833 237.459 289.312 237.459C288.914 237.459 288.546 237.52 288.208 237.642C287.876 237.763 287.58 237.946 287.32 238.189C287.215 238.289 287.116 238.397 287.021 238.513C286.933 238.629 286.85 238.759 286.772 238.903H285.478L286.108 232.022H292.774V233.358H287.287L286.88 237.409H287.013C287.19 237.138 287.409 236.911 287.669 236.729C287.929 236.546 288.22 236.408 288.541 236.313C288.867 236.214 289.21 236.164 289.57 236.164C290.322 236.164 290.989 236.338 291.57 236.687C292.151 237.03 292.608 237.503 292.94 238.106C293.272 238.704 293.438 239.39 293.438 240.165V240.182C293.438 240.984 293.258 241.695 292.898 242.315C292.544 242.929 292.055 243.411 291.429 243.759C290.804 244.108 290.084 244.282 289.271 244.282ZM299.35 244.282C298.608 244.282 297.947 244.136 297.366 243.842C296.785 243.549 296.317 243.151 295.963 242.647C295.614 242.138 295.41 241.565 295.349 240.929L295.341 240.837H296.777L296.785 240.904C296.835 241.286 296.973 241.634 297.2 241.95C297.432 242.26 297.734 242.506 298.105 242.688C298.481 242.871 298.902 242.962 299.366 242.962C299.898 242.962 300.365 242.846 300.769 242.614C301.173 242.376 301.489 242.049 301.716 241.634C301.942 241.219 302.056 240.743 302.056 240.207V240.19C302.056 239.659 301.94 239.188 301.707 238.779C301.48 238.364 301.168 238.04 300.769 237.808C300.371 237.575 299.911 237.459 299.391 237.459C298.993 237.459 298.625 237.52 298.287 237.642C297.955 237.763 297.659 237.946 297.399 238.189C297.294 238.289 297.194 238.397 297.1 238.513C297.012 238.629 296.929 238.759 296.851 238.903H295.556L296.187 232.022H302.853V233.358H297.366L296.959 237.409H297.092C297.269 237.138 297.488 236.911 297.748 236.729C298.008 236.546 298.298 236.408 298.619 236.313C298.946 236.214 299.289 236.164 299.649 236.164C300.401 236.164 301.068 236.338 301.649 236.687C302.23 237.03 302.687 237.503 303.019 238.106C303.351 238.704 303.517 239.39 303.517 240.165V240.182C303.517 240.984 303.337 241.695 302.977 242.315C302.623 242.929 302.133 243.411 301.508 243.759C300.883 244.108 300.163 244.282 299.35 244.282Z" fill="#1D1617"/>
<path d="M403.254 231.74C403.802 231.74 404.342 231.845 404.873 232.055C405.41 232.265 405.894 232.606 406.326 233.076C406.763 233.547 407.111 234.169 407.372 234.944C407.632 235.713 407.762 236.662 407.762 237.791V237.808C407.762 239.169 407.579 240.334 407.214 241.302C406.849 242.265 406.323 243.004 405.637 243.519C404.951 244.028 404.123 244.282 403.155 244.282C402.485 244.282 401.879 244.16 401.337 243.917C400.8 243.668 400.352 243.322 399.992 242.879C399.632 242.437 399.383 241.922 399.245 241.335L399.22 241.228H400.723L400.756 241.319C400.878 241.651 401.049 241.939 401.271 242.182C401.497 242.426 401.769 242.614 402.084 242.747C402.405 242.879 402.767 242.946 403.171 242.946C403.896 242.946 404.486 242.736 404.939 242.315C405.393 241.889 405.731 241.324 405.952 240.622C406.174 239.919 406.298 239.152 406.326 238.322C406.331 238.245 406.334 238.17 406.334 238.098C406.334 238.021 406.334 237.946 406.334 237.874L405.977 235.882C405.977 235.356 405.855 234.88 405.612 234.454C405.374 234.028 405.05 233.69 404.641 233.441C404.237 233.187 403.78 233.06 403.271 233.06C402.773 233.06 402.319 233.184 401.91 233.433C401.5 233.677 401.174 234.009 400.93 234.429C400.687 234.844 400.565 235.312 400.565 235.832V235.849C400.565 236.38 400.681 236.853 400.914 237.268C401.146 237.678 401.464 238.001 401.868 238.239C402.272 238.472 402.731 238.588 403.246 238.588C403.766 238.588 404.231 238.472 404.641 238.239C405.05 238.007 405.374 237.689 405.612 237.285C405.855 236.875 405.977 236.41 405.977 235.89V235.882H406.467V238.04H406.176C406.032 238.367 405.811 238.671 405.512 238.953C405.219 239.235 404.859 239.462 404.433 239.634C404.013 239.805 403.531 239.891 402.989 239.891C402.242 239.891 401.572 239.717 400.98 239.368C400.388 239.02 399.92 238.544 399.577 237.94C399.234 237.332 399.062 236.646 399.062 235.882V235.865C399.062 235.068 399.242 234.36 399.602 233.74C399.967 233.115 400.465 232.625 401.096 232.271C401.733 231.917 402.452 231.74 403.254 231.74ZM409.897 244L415.276 233.475V233.358H408.867V232.022H416.795V233.408L411.466 244H409.897Z" fill="#34C759"/>
</svg>
