<svg width="440" height="216" viewBox="0 0 440 216" fill="none" xmlns="http://www.w3.org/2000/svg">
<rect width="440" height="216" rx="16" fill="#FFFEFD"/>
<rect x="0.5" y="0.5" width="439" height="215" rx="15.5" stroke="#F3EFEA" stroke-opacity="0.8"/>
<path d="M25.4775 33V21.022H30.3169C31.1746 21.022 31.9106 21.1742 32.5249 21.4785C33.1392 21.7829 33.6095 22.2118 33.936 22.7651C34.2625 23.3185 34.4258 23.9771 34.4258 24.7407V24.7573C34.4258 25.5487 34.2266 26.2515 33.8281 26.8657C33.4352 27.4744 32.8846 27.9061 32.1763 28.1606L34.791 33H32.3506L29.9932 28.4927C29.9821 28.4927 29.9655 28.4927 29.9434 28.4927C29.9212 28.4927 29.9019 28.4927 29.8853 28.4927H27.6191V33H25.4775ZM27.6191 26.8491H30.0928C30.7734 26.8491 31.3019 26.6693 31.6782 26.3096C32.0545 25.9499 32.2427 25.4491 32.2427 24.8071V24.7905C32.2427 24.1652 32.0462 23.6699 31.6533 23.3047C31.266 22.9339 30.7319 22.7485 30.0513 22.7485H27.6191V26.8491ZM38.8268 33.1494C38.2568 33.1494 37.745 33.0387 37.2912 32.8174C36.8429 32.596 36.4888 32.2834 36.2287 31.8794C35.9741 31.4699 35.8469 30.9884 35.8469 30.4351V30.4185C35.8469 29.8817 35.9797 29.4196 36.2453 29.0322C36.5109 28.6393 36.9011 28.3322 37.4157 28.1108C37.9304 27.8895 38.5557 27.7594 39.2917 27.7207L42.6452 27.5132V28.8745L39.5822 29.0737C39.0012 29.1069 38.5723 29.2287 38.2956 29.439C38.0189 29.6493 37.8805 29.9425 37.8805 30.3188V30.3354C37.8805 30.7228 38.0272 31.0244 38.3205 31.2402C38.6193 31.4561 38.9984 31.564 39.4577 31.564C39.8727 31.564 40.2435 31.481 40.57 31.3149C40.8965 31.1489 41.1538 30.9248 41.342 30.6426C41.5301 30.3548 41.6242 30.0311 41.6242 29.6714V26.7993C41.6242 26.3455 41.4803 25.9997 41.1926 25.7617C40.9048 25.5182 40.4787 25.3965 39.9142 25.3965C39.4439 25.3965 39.0593 25.4795 38.7604 25.6455C38.4616 25.806 38.2596 26.0356 38.1545 26.3345L38.1462 26.3677H36.1955L36.2038 26.293C36.2702 25.7839 36.4694 25.3384 36.8014 24.9565C37.1335 24.5747 37.5734 24.2786 38.1213 24.0684C38.6691 23.8581 39.3 23.7529 40.0138 23.7529C40.7997 23.7529 41.4637 23.8747 42.006 24.1182C42.5484 24.3561 42.9606 24.7048 43.2429 25.1641C43.5251 25.6178 43.6662 26.1629 43.6662 26.7993V33H41.6242V31.7549H41.4831C41.3171 32.0426 41.1012 32.2917 40.8356 32.502C40.5755 32.7122 40.2767 32.8727 39.9391 32.9834C39.6016 33.0941 39.2308 33.1494 38.8268 33.1494ZM45.7181 33V23.9272H47.785V25.3218H47.9261C48.142 24.8293 48.4684 24.4447 48.9056 24.168C49.3428 23.8913 49.8879 23.7529 50.5409 23.7529C51.5536 23.7529 52.3283 24.0462 52.8651 24.6328C53.4019 25.2194 53.6703 26.0522 53.6703 27.1313V33H51.6034V27.6128C51.6034 26.9045 51.454 26.3732 51.1551 26.019C50.8618 25.6649 50.4025 25.4878 49.7772 25.4878C49.3677 25.4878 49.0135 25.5791 48.7147 25.7617C48.4159 25.9443 48.1862 26.2017 48.0257 26.5337C47.8653 26.8657 47.785 27.2586 47.785 27.7124V33H45.7181ZM59.5821 36.1875C58.7852 36.1875 58.0962 36.0824 57.5152 35.8721C56.9397 35.6618 56.4859 35.363 56.1538 34.9756C55.8218 34.5938 55.6198 34.1483 55.5479 33.6392L55.5562 33.6143H57.6148L57.6314 33.6392C57.6978 33.9269 57.8998 34.1621 58.2373 34.3447C58.5804 34.5329 59.0398 34.627 59.6153 34.627C60.3236 34.627 60.8715 34.4692 61.2588 34.1538C61.6517 33.8384 61.8482 33.3901 61.8482 32.8091V31.0659H61.7071C61.5355 31.3924 61.3114 31.6691 61.0347 31.896C60.7635 32.1229 60.4509 32.2944 60.0967 32.4106C59.7481 32.5213 59.3635 32.5767 58.9429 32.5767C58.1792 32.5767 57.5179 32.394 56.959 32.0288C56.4001 31.658 55.9685 31.1462 55.6641 30.4932C55.3653 29.8402 55.2159 29.0848 55.2159 28.2271V28.2104C55.2159 27.3361 55.368 26.5669 55.6724 25.9028C55.9768 25.2388 56.4084 24.7186 56.9673 24.3423C57.5318 23.966 58.2041 23.7778 58.9844 23.7778C59.405 23.7778 59.7896 23.8442 60.1382 23.9771C60.4924 24.1099 60.8023 24.298 61.0679 24.5415C61.3391 24.785 61.5604 25.0783 61.732 25.4214H61.8399V23.9272H63.9068V32.7759C63.9068 33.4731 63.7297 34.0763 63.3755 34.5854C63.0269 35.1001 62.5288 35.4958 61.8814 35.7725C61.2339 36.0492 60.4675 36.1875 59.5821 36.1875ZM59.5821 30.9331C60.058 30.9331 60.4675 30.8197 60.8106 30.5928C61.1537 30.3604 61.4165 30.0422 61.5992 29.6382C61.7873 29.2342 61.8814 28.7638 61.8814 28.2271V28.2104C61.8814 27.6737 61.7873 27.2033 61.5992 26.7993C61.4165 26.3898 61.1537 26.0716 60.8106 25.8447C60.4675 25.6123 60.058 25.4961 59.5821 25.4961C59.1006 25.4961 58.6911 25.6123 58.3536 25.8447C58.0215 26.0716 57.767 26.3898 57.5899 26.7993C57.4183 27.2033 57.3326 27.6737 57.3326 28.2104V28.2271C57.3326 28.7583 57.4183 29.2287 57.5899 29.6382C57.767 30.0422 58.0215 30.3604 58.3536 30.5928C58.6911 30.8197 59.1006 30.9331 59.5821 30.9331ZM69.8933 33.1826C68.9913 33.1826 68.2165 32.9917 67.5691 32.6099C66.9271 32.228 66.4319 31.6857 66.0832 30.9829C65.7346 30.2801 65.5603 29.4473 65.5603 28.4844V28.4761C65.5603 27.5243 65.7318 26.6942 66.0749 25.9858C66.4236 25.2775 66.9161 24.7297 67.5525 24.3423C68.1889 23.9494 68.9359 23.7529 69.7937 23.7529C70.657 23.7529 71.3985 23.9438 72.0183 24.3257C72.6436 24.702 73.1251 25.2305 73.4626 25.9111C73.8002 26.5918 73.969 27.3887 73.969 28.3018V28.9824H66.5979V27.5962H72.9563L71.9768 28.8911V28.0693C71.9768 27.4661 71.8855 26.9653 71.7029 26.5669C71.5202 26.1685 71.2657 25.8696 70.9392 25.6704C70.6182 25.4712 70.2447 25.3716 69.8186 25.3716C69.3925 25.3716 69.0134 25.4767 68.6814 25.687C68.3549 25.8918 68.0948 26.1961 67.9011 26.6001C67.7129 26.9985 67.6189 27.4883 67.6189 28.0693V28.8994C67.6189 29.4583 67.7129 29.937 67.9011 30.3354C68.0892 30.7284 68.3549 31.0327 68.698 31.2485C69.0466 31.4588 69.4589 31.564 69.9348 31.564C70.3056 31.564 70.6237 31.5114 70.8894 31.4062C71.1605 31.2956 71.3791 31.1655 71.5451 31.0161C71.7112 30.8612 71.8274 30.7145 71.8938 30.5762L71.9187 30.5181H73.8777L73.8611 30.5928C73.7891 30.8861 73.6563 31.1849 73.4626 31.4893C73.2745 31.7881 73.0171 32.0675 72.6906 32.3276C72.3697 32.5822 71.9768 32.7897 71.5119 32.9502C71.0471 33.1051 70.5075 33.1826 69.8933 33.1826ZM83.6261 33.1826C82.724 33.1826 81.9465 32.9945 81.2935 32.6182C80.6405 32.2363 80.137 31.694 79.7828 30.9912C79.4342 30.2884 79.2598 29.4473 79.2598 28.4678V28.4512C79.2598 27.4827 79.4369 26.6471 79.7911 25.9443C80.1453 25.236 80.6461 24.6937 81.2935 24.3174C81.9465 23.9411 82.724 23.7529 83.6261 23.7529C84.5281 23.7529 85.3028 23.9411 85.9503 24.3174C86.6033 24.6937 87.1068 25.2332 87.461 25.936C87.8152 26.6388 87.9923 27.4772 87.9923 28.4512V28.4678C87.9923 29.4473 87.8152 30.2884 87.461 30.9912C87.1124 31.694 86.6116 32.2363 85.9586 32.6182C85.3111 32.9945 84.5336 33.1826 83.6261 33.1826ZM83.6261 31.5059C84.102 31.5059 84.5059 31.3869 84.838 31.1489C85.1755 30.9054 85.4329 30.5596 85.6099 30.1113C85.787 29.6576 85.8756 29.1125 85.8756 28.4761V28.4595C85.8756 27.8175 85.787 27.2725 85.6099 26.8242C85.4329 26.3704 85.1755 26.0246 84.838 25.7866C84.5059 25.5431 84.102 25.4214 83.6261 25.4214C83.1501 25.4214 82.7434 25.5431 82.4058 25.7866C82.0683 26.0246 81.8109 26.3704 81.6339 26.8242C81.4568 27.2725 81.3682 27.8175 81.3682 28.4595V28.4761C81.3682 29.1125 81.4568 29.6576 81.6339 30.1113C81.8109 30.5651 82.0655 30.911 82.3975 31.1489C82.7351 31.3869 83.1446 31.5059 83.6261 31.5059ZM90.3015 33V25.5293H88.8157V23.9272H90.3015V23.0308C90.3015 22.422 90.4039 21.9185 90.6087 21.52C90.8189 21.1216 91.1427 20.8255 91.5798 20.6318C92.017 20.4326 92.5704 20.333 93.24 20.333C93.4614 20.333 93.6661 20.3413 93.8543 20.3579C94.0424 20.369 94.2167 20.3883 94.3772 20.416V21.8604C94.2997 21.8493 94.2001 21.841 94.0784 21.8354C93.9566 21.8244 93.8238 21.8188 93.6799 21.8188C93.193 21.8188 92.8471 21.9323 92.6423 22.1592C92.4376 22.3805 92.3352 22.7098 92.3352 23.147V23.9272H94.3025V25.5293H92.3684V33H90.3015ZM100.183 33V21.022H102.64L106.242 30.2441H106.383L109.978 21.022H112.435V33H110.509V24.4834H109.463L111.588 21.354L107.039 33H105.578L101.038 21.354L103.163 24.4834H102.109V33H100.183ZM118.662 33.1826C117.76 33.1826 116.982 32.9945 116.329 32.6182C115.676 32.2363 115.173 31.694 114.819 30.9912C114.47 30.2884 114.296 29.4473 114.296 28.4678V28.4512C114.296 27.4827 114.473 26.6471 114.827 25.9443C115.181 25.236 115.682 24.6937 116.329 24.3174C116.982 23.9411 117.76 23.7529 118.662 23.7529C119.564 23.7529 120.339 23.9411 120.986 24.3174C121.639 24.6937 122.143 25.2332 122.497 25.936C122.851 26.6388 123.028 27.4772 123.028 28.4512V28.4678C123.028 29.4473 122.851 30.2884 122.497 30.9912C122.148 31.694 121.647 32.2363 120.994 32.6182C120.347 32.9945 119.569 33.1826 118.662 33.1826ZM118.662 31.5059C119.138 31.5059 119.542 31.3869 119.874 31.1489C120.211 30.9054 120.469 30.5596 120.646 30.1113C120.823 29.6576 120.911 29.1125 120.911 28.4761V28.4595C120.911 27.8175 120.823 27.2725 120.646 26.8242C120.469 26.3704 120.211 26.0246 119.874 25.7866C119.542 25.5431 119.138 25.4214 118.662 25.4214C118.186 25.4214 117.779 25.5431 117.442 25.7866C117.104 26.0246 116.847 26.3704 116.67 26.8242C116.493 27.2725 116.404 27.8175 116.404 28.4595V28.4761C116.404 29.1125 116.493 29.6576 116.67 30.1113C116.847 30.5651 117.101 30.911 117.433 31.1489C117.771 31.3869 118.18 31.5059 118.662 31.5059ZM128.243 33.0415C127.202 33.0415 126.452 32.8506 125.993 32.4688C125.534 32.0869 125.304 31.4616 125.304 30.5928V25.5293H123.893V23.9272H125.304V21.7026H127.404V23.9272H129.313V25.5293H127.404V30.103C127.404 30.5513 127.498 30.8805 127.687 31.0908C127.88 31.2956 128.19 31.3979 128.616 31.3979C128.766 31.3979 128.887 31.3952 128.981 31.3896C129.081 31.3786 129.192 31.3675 129.313 31.3564V32.9502C129.17 32.9779 129.004 33 128.815 33.0166C128.633 33.0332 128.442 33.0415 128.243 33.0415ZM130.975 33V23.9272H133.034V33H130.975ZM132.013 22.4082C131.675 22.4082 131.385 22.2892 131.141 22.0513C130.898 21.8133 130.776 21.5283 130.776 21.1963C130.776 20.8532 130.898 20.5654 131.141 20.333C131.385 20.0951 131.675 19.9761 132.013 19.9761C132.35 19.9761 132.638 20.0951 132.876 20.333C133.12 20.5654 133.241 20.8532 133.241 21.1963C133.241 21.5283 133.12 21.8133 132.876 22.0513C132.638 22.2892 132.35 22.4082 132.013 22.4082ZM139.07 33.1826C138.168 33.1826 137.391 32.9945 136.738 32.6182C136.085 32.2363 135.581 31.694 135.227 30.9912C134.878 30.2884 134.704 29.4473 134.704 28.4678V28.4512C134.704 27.4827 134.881 26.6471 135.235 25.9443C135.589 25.236 136.09 24.6937 136.738 24.3174C137.391 23.9411 138.168 23.7529 139.07 23.7529C139.972 23.7529 140.747 23.9411 141.394 24.3174C142.047 24.6937 142.551 25.2332 142.905 25.936C143.259 26.6388 143.436 27.4772 143.436 28.4512V28.4678C143.436 29.4473 143.259 30.2884 142.905 30.9912C142.556 31.694 142.056 32.2363 141.403 32.6182C140.755 32.9945 139.978 33.1826 139.07 33.1826ZM139.07 31.5059C139.546 31.5059 139.95 31.3869 140.282 31.1489C140.62 30.9054 140.877 30.5596 141.054 30.1113C141.231 29.6576 141.32 29.1125 141.32 28.4761V28.4595C141.32 27.8175 141.231 27.2725 141.054 26.8242C140.877 26.3704 140.62 26.0246 140.282 25.7866C139.95 25.5431 139.546 25.4214 139.07 25.4214C138.594 25.4214 138.188 25.5431 137.85 25.7866C137.512 26.0246 137.255 26.3704 137.078 26.8242C136.901 27.2725 136.812 27.8175 136.812 28.4595V28.4761C136.812 29.1125 136.901 29.6576 137.078 30.1113C137.255 30.5651 137.51 30.911 137.842 31.1489C138.179 31.3869 138.589 31.5059 139.07 31.5059ZM145.082 33V23.9272H147.148V25.3218H147.29C147.505 24.8293 147.832 24.4447 148.269 24.168C148.706 23.8913 149.251 23.7529 149.904 23.7529C150.917 23.7529 151.692 24.0462 152.229 24.6328C152.765 25.2194 153.034 26.0522 153.034 27.1313V33H150.967V27.6128C150.967 26.9045 150.817 26.3732 150.519 26.019C150.225 25.6649 149.766 25.4878 149.141 25.4878C148.731 25.4878 148.377 25.5791 148.078 25.7617C147.779 25.9443 147.55 26.2017 147.389 26.5337C147.229 26.8657 147.148 27.2586 147.148 27.7124V33H145.082Z" fill="#4B4647"/>
<path d="M25.168 52V42.8403H30.7285V43.8687H26.3105V47.0171H30.3667V48.0327H26.3105V52H25.168ZM32.3878 52V45.1572H33.4923V46.1729H33.5938C33.725 45.8132 33.9472 45.5339 34.2603 45.335C34.5735 45.1361 34.9607 45.0366 35.422 45.0366C35.5277 45.0366 35.6314 45.043 35.733 45.0557C35.8388 45.0641 35.9192 45.0726 35.9742 45.0811V46.1538C35.8599 46.1326 35.7478 46.1178 35.6378 46.1094C35.532 46.0967 35.4177 46.0903 35.295 46.0903C34.9438 46.0903 34.6327 46.1602 34.3619 46.2998C34.0911 46.4395 33.8774 46.6341 33.7208 46.8838C33.5684 47.1335 33.4923 47.4255 33.4923 47.7598V52H32.3878ZM39.8805 52.1206C39.2331 52.1206 38.6724 51.9788 38.1984 51.6953C37.7287 51.4076 37.3647 50.9992 37.1066 50.4702C36.8527 49.9412 36.7257 49.3128 36.7257 48.585V48.5723C36.7257 47.8402 36.8527 47.2096 37.1066 46.6807C37.3647 46.1517 37.7287 45.7454 38.1984 45.4619C38.6724 45.1784 39.2331 45.0366 39.8805 45.0366C40.5322 45.0366 41.0929 45.1784 41.5627 45.4619C42.0324 45.7454 42.3942 46.1517 42.6481 46.6807C42.9062 47.2096 43.0353 47.8402 43.0353 48.5723V48.585C43.0353 49.3128 42.9062 49.9412 42.6481 50.4702C42.3942 50.9992 42.0324 51.4076 41.5627 51.6953C41.0929 51.9788 40.5322 52.1206 39.8805 52.1206ZM39.8805 51.1431C40.3122 51.1431 40.6782 51.0415 40.9787 50.8384C41.2791 50.6353 41.5076 50.3433 41.6642 49.9624C41.825 49.5815 41.9054 49.1224 41.9054 48.585V48.5723C41.9054 48.0306 41.825 47.5693 41.6642 47.1885C41.5076 46.8076 41.2791 46.5177 40.9787 46.3188C40.6782 46.1157 40.3122 46.0142 39.8805 46.0142C39.4489 46.0142 39.0828 46.1157 38.7824 46.3188C38.4819 46.5177 38.2513 46.8076 38.0905 47.1885C37.9339 47.5693 37.8556 48.0306 37.8556 48.5723V48.585C37.8556 49.1224 37.9339 49.5815 38.0905 49.9624C38.2513 50.3433 38.4819 50.6353 38.7824 50.8384C39.0828 51.0415 39.4489 51.1431 39.8805 51.1431ZM44.6692 52V45.1572H45.7737V46.1855H45.8752C46.0487 45.8216 46.2984 45.5402 46.6243 45.3413C46.9501 45.1382 47.3648 45.0366 47.8684 45.0366C48.6386 45.0366 49.2289 45.2567 49.6394 45.6968C50.0541 46.1326 50.2615 46.7568 50.2615 47.5693V52H49.157V47.8359C49.157 47.2181 49.0258 46.7611 48.7634 46.4648C48.5053 46.1644 48.1033 46.0142 47.5574 46.0142C47.1934 46.0142 46.8782 46.0924 46.6116 46.249C46.345 46.4056 46.1376 46.6278 45.9895 46.9155C45.8456 47.2033 45.7737 47.5482 45.7737 47.9502V52H44.6692ZM54.6121 52.0508C53.9097 52.0508 53.3997 51.909 53.0823 51.6255C52.7692 51.342 52.6126 50.8743 52.6126 50.2227V46.0713H51.5335V45.1572H52.6126V43.3862H53.7552V45.1572H55.2532V46.0713H53.7552V49.9434C53.7552 50.3454 53.8314 50.6353 53.9837 50.813C54.1361 50.9865 54.39 51.0732 54.7454 51.0732C54.8428 51.0732 54.9253 51.0711 54.993 51.0669C55.0649 51.0627 55.1517 51.0563 55.2532 51.0479V51.9873C55.1474 52.0042 55.0417 52.019 54.9359 52.0317C54.8301 52.0444 54.7222 52.0508 54.6121 52.0508ZM63.542 52.2158C62.8734 52.2158 62.2894 52.1079 61.79 51.8921C61.2949 51.672 60.9013 51.3716 60.6094 50.9907C60.3216 50.6056 60.1544 50.1655 60.1079 49.6704L60.1015 49.6006H61.2441L61.2505 49.6704C61.2801 49.9751 61.3965 50.2396 61.5996 50.4639C61.8069 50.6839 62.082 50.8553 62.4248 50.978C62.7718 51.1007 63.1653 51.1621 63.6054 51.1621C64.0202 51.1621 64.3883 51.0965 64.7099 50.9653C65.0358 50.8299 65.2918 50.6437 65.478 50.4067C65.6642 50.1698 65.7573 49.8968 65.7573 49.5879V49.5815C65.7573 49.2007 65.6177 48.8812 65.3384 48.623C65.0591 48.3607 64.6041 48.1597 63.9736 48.02L62.958 47.7979C62.0397 47.5947 61.3711 47.2816 60.9521 46.8584C60.5374 46.431 60.3301 45.8851 60.3301 45.2207V45.2144C60.3343 44.7065 60.4718 44.258 60.7427 43.8687C61.0177 43.4793 61.3965 43.1746 61.8789 42.9546C62.3655 42.7345 62.9241 42.6245 63.5547 42.6245C64.164 42.6245 64.7036 42.7345 65.1733 42.9546C65.643 43.1704 66.0154 43.4624 66.2905 43.8306C66.5698 44.1987 66.7243 44.6113 66.7539 45.0684L66.7602 45.1572H65.6177L65.605 45.0747C65.5626 44.8039 65.4526 44.5648 65.2749 44.3574C65.0971 44.1458 64.8602 43.9787 64.5639 43.856C64.2677 43.7332 63.9207 43.674 63.5229 43.6782C63.1421 43.6782 62.7993 43.7375 62.4946 43.856C62.1899 43.9744 61.9466 44.1458 61.7646 44.3701C61.5869 44.5902 61.498 44.861 61.498 45.1826V45.189C61.498 45.5529 61.6334 45.8597 61.9043 46.1094C62.1751 46.359 62.6216 46.5516 63.2436 46.687L64.2593 46.9155C64.8983 47.0552 65.4124 47.2371 65.8017 47.4614C66.1911 47.6857 66.4746 47.9608 66.6523 48.2866C66.8343 48.6082 66.9253 48.9891 66.9253 49.4292V49.4355C66.9253 50.0068 66.7856 50.4998 66.5063 50.9146C66.227 51.3293 65.8335 51.6509 65.3257 51.8794C64.8179 52.1037 64.2233 52.2158 63.542 52.2158ZM73.3834 54.2852V50.9717H73.2818C73.1591 51.2129 72.9919 51.4202 72.7803 51.5938C72.5687 51.763 72.3233 51.8942 72.044 51.9873C71.7689 52.0762 71.4685 52.1206 71.1426 52.1206C70.5629 52.1206 70.0572 51.9746 69.6255 51.6826C69.1939 51.3906 68.8596 50.9801 68.6226 50.4512C68.3856 49.918 68.2671 49.2959 68.2671 48.585V48.5723C68.2671 47.8571 68.3856 47.235 68.6226 46.7061C68.8596 46.1771 69.1939 45.7666 69.6255 45.4746C70.0572 45.1826 70.5629 45.0366 71.1426 45.0366C71.4516 45.0366 71.7414 45.0874 72.0123 45.189C72.2873 45.2905 72.5349 45.4365 72.7549 45.627C72.9792 45.8132 73.1633 46.0374 73.3072 46.2998H73.3834V45.1572H74.4879V54.2852H73.3834ZM71.4029 51.1431C71.8134 51.1431 72.1688 51.0394 72.4693 50.832C72.7698 50.6204 73.0025 50.3242 73.1675 49.9434C73.3326 49.5583 73.4151 49.1055 73.4151 48.585V48.5723C73.4151 48.0475 73.3326 47.5947 73.1675 47.2139C73.0025 46.8288 72.7698 46.5326 72.4693 46.3252C72.1688 46.1178 71.8113 46.0142 71.3965 46.0142C70.9818 46.0142 70.6242 46.1178 70.3238 46.3252C70.0233 46.5283 69.7927 46.8203 69.6319 47.2012C69.4753 47.582 69.397 48.0391 69.397 48.5723V48.585C69.397 49.1139 69.4774 49.571 69.6382 49.9561C69.799 50.3369 70.0276 50.631 70.3238 50.8384C70.6242 51.0415 70.9839 51.1431 71.4029 51.1431ZM78.7433 52.1206C78.227 52.1206 77.7933 52.0233 77.442 51.8286C77.0908 51.6297 76.8263 51.342 76.6486 50.9653C76.4751 50.5845 76.3883 50.1253 76.3883 49.5879V45.1572H77.4928V49.3213C77.4928 49.9349 77.6113 50.3919 77.8483 50.6924C78.0895 50.9928 78.483 51.1431 79.0289 51.1431C79.3294 51.1431 79.5939 51.0986 79.8224 51.0098C80.0552 50.9209 80.2498 50.7939 80.4064 50.6289C80.563 50.4596 80.6793 50.2565 80.7555 50.0195C80.8359 49.7783 80.8761 49.5075 80.8761 49.207V45.1572H81.9806V52H80.8761V50.978H80.7746C80.6645 51.2192 80.5143 51.4266 80.3239 51.6001C80.1334 51.7694 79.9049 51.8984 79.6383 51.9873C79.376 52.0762 79.0776 52.1206 78.7433 52.1206ZM85.8425 52.1206C85.4109 52.1206 85.0215 52.0381 84.6745 51.873C84.3318 51.708 84.0588 51.4731 83.8557 51.1685C83.6568 50.8638 83.5573 50.5041 83.5573 50.0894V50.0767C83.5573 49.6704 83.6547 49.3234 83.8493 49.0356C84.044 48.7437 84.3275 48.5151 84.6999 48.3501C85.0723 48.1851 85.523 48.0877 86.052 48.0581L88.5656 47.9058V48.7881L86.1853 48.9404C85.6648 48.9701 85.2839 49.078 85.0427 49.2642C84.8057 49.4504 84.6872 49.7127 84.6872 50.0513V50.064C84.6872 50.411 84.8184 50.6818 85.0808 50.8765C85.3431 51.0669 85.6732 51.1621 86.071 51.1621C86.4476 51.1621 86.782 51.0881 87.0739 50.9399C87.3659 50.7876 87.5945 50.5824 87.7595 50.3242C87.9288 50.0661 88.0134 49.7741 88.0134 49.4482V47.3154C88.0134 46.8923 87.8843 46.5706 87.6262 46.3506C87.3723 46.1263 86.9893 46.0142 86.4773 46.0142C86.0668 46.0142 85.7304 46.0882 85.468 46.2363C85.2056 46.3802 85.03 46.5854 84.9411 46.8521L84.9348 46.8711H83.8303L83.8366 46.833C83.8959 46.4733 84.044 46.1602 84.281 45.8936C84.5222 45.6227 84.8332 45.4132 85.2141 45.2651C85.5949 45.1128 86.0287 45.0366 86.5154 45.0366C87.0739 45.0366 87.5458 45.1276 87.9309 45.3096C88.3202 45.4915 88.6143 45.7539 88.8132 46.0967C89.0163 46.4352 89.1179 46.8415 89.1179 47.3154V52H88.0134V50.9907H87.9118C87.768 51.2319 87.5923 51.4372 87.385 51.6064C87.1819 51.7757 86.9512 51.9048 86.6931 51.9937C86.4349 52.0783 86.1514 52.1206 85.8425 52.1206ZM93.4876 52.0508C92.7851 52.0508 92.2752 51.909 91.9578 51.6255C91.6447 51.342 91.4881 50.8743 91.4881 50.2227V46.0713H90.409V45.1572H91.4881V43.3862H92.6307V45.1572H94.1287V46.0713H92.6307V49.9434C92.6307 50.3454 92.7068 50.6353 92.8592 50.813C93.0115 50.9865 93.2654 51.0732 93.6209 51.0732C93.7182 51.0732 93.8007 51.0711 93.8685 51.0669C93.9404 51.0627 94.0271 51.0563 94.1287 51.0479V51.9873C94.0229 52.0042 93.9171 52.019 93.8113 52.0317C93.7055 52.0444 93.5976 52.0508 93.4876 52.0508ZM97.9208 52.1206C97.413 52.1206 96.9644 52.0444 96.5751 51.8921C96.1858 51.7355 95.8726 51.5176 95.6356 51.2383C95.4029 50.959 95.2653 50.631 95.223 50.2544H96.3529C96.446 50.5379 96.628 50.7664 96.8988 50.9399C97.1696 51.1134 97.523 51.2002 97.9589 51.2002C98.2678 51.2002 98.5386 51.1558 98.7714 51.0669C99.0083 50.9738 99.1945 50.849 99.33 50.6924C99.4654 50.5316 99.5331 50.3475 99.5331 50.1401V50.1274C99.5331 49.8947 99.44 49.6979 99.2538 49.5371C99.0676 49.3721 98.7629 49.2388 98.3397 49.1372L97.2797 48.8833C96.8523 48.7817 96.501 48.6506 96.226 48.4897C95.9509 48.3247 95.7478 48.1237 95.6166 47.8867C95.4854 47.6455 95.4198 47.362 95.4198 47.0361V47.0298C95.4198 46.6489 95.5298 46.3083 95.7499 46.0078C95.9742 45.7074 96.2789 45.4704 96.6639 45.2969C97.049 45.1234 97.4828 45.0366 97.9652 45.0366C98.4434 45.0366 98.8666 45.1128 99.2347 45.2651C99.6071 45.4132 99.9055 45.6248 100.13 45.8999C100.358 46.175 100.498 46.4987 100.549 46.8711H99.4633C99.3913 46.6003 99.2263 46.3802 98.9681 46.2109C98.71 46.0417 98.3736 45.957 97.9589 45.957C97.688 45.957 97.4468 46.0015 97.2352 46.0903C97.0236 46.175 96.8565 46.2935 96.7338 46.4458C96.6111 46.5981 96.5497 46.7759 96.5497 46.979V46.9917C96.5497 47.144 96.5899 47.2795 96.6703 47.3979C96.7507 47.5164 96.8755 47.6201 97.0448 47.709C97.2141 47.7979 97.432 47.8761 97.6986 47.9438L98.7523 48.1978C99.3956 48.3543 99.8737 48.5786 100.187 48.8706C100.504 49.1626 100.663 49.554 100.663 50.0449V50.0576C100.663 50.4639 100.542 50.8236 100.301 51.1367C100.06 51.4456 99.732 51.6868 99.3173 51.8604C98.9068 52.0339 98.4413 52.1206 97.9208 52.1206ZM105.778 48.8262V47.7979H110.043V48.8262H105.778ZM118.643 52.2158C117.975 52.2158 117.391 52.1079 116.891 51.8921C116.396 51.672 116.003 51.3716 115.711 50.9907C115.423 50.6056 115.256 50.1655 115.209 49.6704L115.203 49.6006H116.345L116.352 49.6704C116.381 49.9751 116.498 50.2396 116.701 50.4639C116.908 50.6839 117.183 50.8553 117.526 50.978C117.873 51.1007 118.267 51.1621 118.707 51.1621C119.121 51.1621 119.49 51.0965 119.811 50.9653C120.137 50.8299 120.393 50.6437 120.579 50.4067C120.765 50.1698 120.859 49.8968 120.859 49.5879V49.5815C120.859 49.2007 120.719 48.8812 120.44 48.623C120.16 48.3607 119.705 48.1597 119.075 48.02L118.059 47.7979C117.141 47.5947 116.472 47.2816 116.053 46.8584C115.639 46.431 115.431 45.8851 115.431 45.2207V45.2144C115.436 44.7065 115.573 44.258 115.844 43.8687C116.119 43.4793 116.498 43.1746 116.98 42.9546C117.467 42.7345 118.025 42.6245 118.656 42.6245C119.265 42.6245 119.805 42.7345 120.275 42.9546C120.744 43.1704 121.117 43.4624 121.392 43.8306C121.671 44.1987 121.826 44.6113 121.855 45.0684L121.862 45.1572H120.719L120.706 45.0747C120.664 44.8039 120.554 44.5648 120.376 44.3574C120.198 44.1458 119.961 43.9787 119.665 43.856C119.369 43.7332 119.022 43.674 118.624 43.6782C118.243 43.6782 117.901 43.7375 117.596 43.856C117.291 43.9744 117.048 44.1458 116.866 44.3701C116.688 44.5902 116.599 44.861 116.599 45.1826V45.189C116.599 45.5529 116.735 45.8597 117.006 46.1094C117.276 46.359 117.723 46.5516 118.345 46.687L119.361 46.9155C120 47.0552 120.514 47.2371 120.903 47.4614C121.292 47.6857 121.576 47.9608 121.754 48.2866C121.936 48.6082 122.027 48.9891 122.027 49.4292V49.4355C122.027 50.0068 121.887 50.4998 121.608 50.9146C121.328 51.3293 120.935 51.6509 120.427 51.8794C119.919 52.1037 119.325 52.2158 118.643 52.2158ZM126.504 52.1206C125.852 52.1206 125.292 51.9767 124.822 51.689C124.357 51.4012 123.997 50.995 123.743 50.4702C123.493 49.9412 123.368 49.3192 123.368 48.604V48.5977C123.368 47.891 123.493 47.271 123.743 46.7378C123.997 46.2046 124.354 45.7878 124.816 45.4873C125.277 45.1868 125.817 45.0366 126.434 45.0366C127.056 45.0366 127.59 45.1805 128.034 45.4683C128.483 45.756 128.825 46.158 129.062 46.6743C129.303 47.1864 129.424 47.783 129.424 48.4644V48.896H123.94V48.0137H128.859L128.313 48.8198V48.3818C128.313 47.8444 128.233 47.4022 128.072 47.0552C127.911 46.7082 127.689 46.45 127.406 46.2808C127.122 46.1073 126.796 46.0205 126.428 46.0205C126.06 46.0205 125.73 46.1115 125.438 46.2935C125.15 46.4712 124.921 46.7357 124.752 47.0869C124.583 47.4382 124.498 47.8698 124.498 48.3818V48.8198C124.498 49.3065 124.581 49.7233 124.746 50.0703C124.911 50.4131 125.146 50.6776 125.45 50.8638C125.755 51.0457 126.115 51.1367 126.53 51.1367C126.838 51.1367 127.107 51.0944 127.336 51.0098C127.564 50.9251 127.753 50.8172 127.901 50.686C128.049 50.5549 128.152 50.4215 128.212 50.2861L128.237 50.229H129.342L129.329 50.2798C129.27 50.5125 129.164 50.7389 129.012 50.959C128.863 51.1748 128.671 51.3716 128.434 51.5493C128.197 51.7228 127.915 51.8625 127.59 51.9683C127.268 52.0698 126.906 52.1206 126.504 52.1206ZM133.489 52.0508C132.787 52.0508 132.277 51.909 131.959 51.6255C131.646 51.342 131.49 50.8743 131.49 50.2227V46.0713H130.411V45.1572H131.49V43.3862H132.632V45.1572H134.13V46.0713H132.632V49.9434C132.632 50.3454 132.708 50.6353 132.861 50.813C133.013 50.9865 133.267 51.0732 133.622 51.0732C133.72 51.0732 133.802 51.0711 133.87 51.0669C133.942 51.0627 134.029 51.0563 134.13 51.0479V51.9873C134.024 52.0042 133.919 52.019 133.813 52.0317C133.707 52.0444 133.599 52.0508 133.489 52.0508ZM142.387 52.1523C141.757 52.1523 141.207 52.0444 140.737 51.8286C140.267 51.6128 139.895 51.3166 139.62 50.9399C139.349 50.5633 139.192 50.1338 139.15 49.6514L139.144 49.5752H140.242L140.248 49.6387C140.278 49.9391 140.383 50.2036 140.565 50.4321C140.752 50.6606 140.999 50.8405 141.308 50.9717C141.621 51.0986 141.981 51.1621 142.387 51.1621C142.789 51.1621 143.14 51.0923 143.441 50.9526C143.746 50.813 143.983 50.6204 144.152 50.375C144.321 50.1253 144.406 49.8397 144.406 49.5181V49.5054C144.406 48.9425 144.217 48.5109 143.841 48.2104C143.468 47.9058 142.961 47.7534 142.317 47.7534H141.168V46.7886H142.267C142.631 46.7886 142.952 46.7209 143.231 46.5854C143.511 46.4458 143.729 46.2575 143.885 46.0205C144.042 45.7793 144.12 45.5063 144.12 45.2017V45.189C144.12 44.8674 144.052 44.5944 143.917 44.3701C143.782 44.1458 143.583 43.9744 143.32 43.856C143.062 43.7375 142.747 43.6782 142.375 43.6782C142.015 43.6782 141.693 43.7396 141.41 43.8623C141.13 43.9808 140.906 44.1522 140.737 44.3765C140.568 44.6007 140.466 44.8674 140.432 45.1763L140.426 45.2397H139.328L139.334 45.1763C139.385 44.6769 139.541 44.241 139.804 43.8687C140.07 43.4963 140.422 43.2064 140.857 42.999C141.298 42.7917 141.803 42.688 142.375 42.688C142.959 42.688 143.466 42.7896 143.898 42.9927C144.334 43.1916 144.67 43.4688 144.907 43.8242C145.148 44.1755 145.269 44.5838 145.269 45.0493V45.062C145.269 45.4386 145.187 45.7729 145.022 46.0649C144.856 46.3569 144.628 46.6003 144.336 46.7949C144.044 46.9896 143.708 47.1271 143.327 47.2075V47.2329C143.995 47.2879 144.535 47.5143 144.945 47.9121C145.36 48.3057 145.567 48.8283 145.567 49.48V49.4927C145.567 50.0005 145.43 50.4554 145.155 50.8574C144.88 51.2594 144.503 51.5768 144.025 51.8096C143.547 52.0381 143.001 52.1523 142.387 52.1523Z" fill="#4B4647"/>
<path d="M25.1797 84V75.5449H26.4043L29.2988 82.5996H29.3926L32.2871 75.5449H33.5117V84H32.5273V77.543H32.0117L33.1953 75.7793L29.791 84H28.9004L25.502 75.7793L26.6797 77.543H26.1641V84H25.1797ZM37.2734 84.1113C36.875 84.1113 36.5156 84.0352 36.1953 83.8828C35.8789 83.7305 35.627 83.5137 35.4395 83.2324C35.2559 82.9512 35.1641 82.6191 35.1641 82.2363V82.2246C35.1641 81.8496 35.2539 81.5293 35.4336 81.2637C35.6133 80.9941 35.875 80.7832 36.2188 80.6309C36.5625 80.4785 36.9785 80.3887 37.4668 80.3613L39.7871 80.2207V81.0352L37.5898 81.1758C37.1094 81.2031 36.7578 81.3027 36.5352 81.4746C36.3164 81.6465 36.207 81.8887 36.207 82.2012V82.2129C36.207 82.5332 36.3281 82.7832 36.5703 82.9629C36.8125 83.1387 37.1172 83.2266 37.4844 83.2266C37.832 83.2266 38.1406 83.1582 38.4102 83.0215C38.6797 82.8809 38.8906 82.6914 39.043 82.4531C39.1992 82.2148 39.2773 81.9453 39.2773 81.6445V79.6758C39.2773 79.2852 39.1582 78.9883 38.9199 78.7852C38.6855 78.5781 38.332 78.4746 37.8594 78.4746C37.4805 78.4746 37.1699 78.543 36.9277 78.6797C36.6855 78.8125 36.5234 79.002 36.4414 79.248L36.4355 79.2656H35.416L35.4219 79.2305C35.4766 78.8984 35.6133 78.6094 35.832 78.3633C36.0547 78.1133 36.3418 77.9199 36.6934 77.7832C37.0449 77.6426 37.4453 77.5723 37.8945 77.5723C38.4102 77.5723 38.8457 77.6562 39.2012 77.8242C39.5605 77.9922 39.832 78.2344 40.0156 78.5508C40.2031 78.8633 40.2969 79.2383 40.2969 79.6758V84H39.2773V83.0684H39.1836C39.0508 83.291 38.8887 83.4805 38.6973 83.6367C38.5098 83.793 38.2969 83.9121 38.0586 83.9941C37.8203 84.0723 37.5586 84.1113 37.2734 84.1113ZM41.6562 84L43.8184 80.8418L41.6328 77.6836H42.834L44.334 80.0332H44.4277L45.9102 77.6836H47.0527L44.9082 80.8008L47.082 84H45.8867L44.3926 81.6152H44.2988L42.7988 84H41.6562ZM52.4844 84V83.0684H55.0977C55.7344 83.0684 56.2168 82.9414 56.5449 82.6875C56.873 82.4336 57.0371 82.0645 57.0371 81.5801V81.5684C57.0371 81.2441 56.9609 80.9727 56.8086 80.7539C56.6562 80.5352 56.4277 80.3711 56.123 80.2617C55.8223 80.1523 55.4473 80.0977 54.998 80.0977H52.4844V79.1895H54.6992C55.3398 79.1895 55.8203 79.0762 56.1406 78.8496C56.4648 78.623 56.627 78.2871 56.627 77.8418V77.8301C56.627 77.4004 56.4805 77.0684 56.1875 76.834C55.8984 76.5957 55.4922 76.4766 54.9688 76.4766H52.4844V75.5449H55.1914C55.7109 75.5449 56.1562 75.6309 56.5273 75.8027C56.9023 75.9746 57.1895 76.2188 57.3887 76.5352C57.5918 76.8477 57.6934 77.2188 57.6934 77.6484V77.6602C57.6934 77.9531 57.627 78.2285 57.4941 78.4863C57.3652 78.7441 57.1914 78.9609 56.9727 79.1367C56.7539 79.3125 56.5078 79.4258 56.2344 79.4766V79.5703C56.6211 79.6172 56.9551 79.7324 57.2363 79.916C57.5176 80.0996 57.7344 80.3379 57.8867 80.6309C58.043 80.9199 58.1211 81.25 58.1211 81.6211V81.6328C58.1211 82.125 58.0059 82.5488 57.7754 82.9043C57.5488 83.2559 57.2227 83.5273 56.7969 83.7188C56.3711 83.9062 55.8574 84 55.2559 84H52.4844ZM51.957 84V75.5449H53.0117V84H51.957ZM62.293 84.1113C61.6914 84.1113 61.1738 83.9785 60.7402 83.7129C60.3105 83.4473 59.9785 83.0723 59.7441 82.5879C59.5137 82.0996 59.3984 81.5254 59.3984 80.8652V80.8594C59.3984 80.207 59.5137 79.6348 59.7441 79.1426C59.9785 78.6504 60.3086 78.2656 60.7344 77.9883C61.1602 77.7109 61.6582 77.5723 62.2285 77.5723C62.8027 77.5723 63.2949 77.7051 63.7051 77.9707C64.1191 78.2363 64.4355 78.6074 64.6543 79.084C64.877 79.5566 64.9883 80.1074 64.9883 80.7363V81.1348H59.9258V80.3203H64.4668L63.9629 81.0645V80.6602C63.9629 80.1641 63.8887 79.7559 63.7402 79.4355C63.5918 79.1152 63.3867 78.877 63.125 78.7207C62.8633 78.5605 62.5625 78.4805 62.2227 78.4805C61.8828 78.4805 61.5781 78.5645 61.3086 78.7324C61.043 78.8965 60.832 79.1406 60.6758 79.4648C60.5195 79.7891 60.4414 80.1875 60.4414 80.6602V81.0645C60.4414 81.5137 60.5176 81.8984 60.6699 82.2188C60.8223 82.5352 61.0391 82.7793 61.3203 82.9512C61.6016 83.1191 61.9336 83.2031 62.3164 83.2031C62.6016 83.2031 62.8496 83.1641 63.0605 83.0859C63.2715 83.0078 63.4453 82.9082 63.582 82.7871C63.7188 82.666 63.8145 82.543 63.8691 82.418L63.8926 82.3652H64.9121L64.9004 82.4121C64.8457 82.627 64.748 82.8359 64.6074 83.0391C64.4707 83.2383 64.293 83.4199 64.0742 83.584C63.8555 83.7441 63.5957 83.873 63.2949 83.9707C62.998 84.0645 62.6641 84.1113 62.293 84.1113ZM66.5703 84V77.6836H67.5898V78.6328H67.6836C67.8438 78.2969 68.0742 78.0371 68.375 77.8535C68.6758 77.666 69.0586 77.5723 69.5234 77.5723C70.2344 77.5723 70.7793 77.7754 71.1582 78.1816C71.541 78.584 71.7324 79.1602 71.7324 79.9102V84H70.7129V80.1562C70.7129 79.5859 70.5918 79.1641 70.3496 78.8906C70.1113 78.6133 69.7402 78.4746 69.2363 78.4746C68.9004 78.4746 68.6094 78.5469 68.3633 78.6914C68.1172 78.8359 67.9258 79.041 67.7891 79.3066C67.6562 79.5723 67.5898 79.8906 67.5898 80.2617V84H66.5703ZM75.9102 84.1113C75.3789 84.1113 74.9141 83.9766 74.5156 83.707C74.1172 83.4375 73.8086 83.0586 73.5898 82.5703C73.3711 82.0781 73.2617 81.5039 73.2617 80.8477V80.8359C73.2617 80.1758 73.3711 79.6016 73.5898 79.1133C73.8086 78.625 74.1152 78.2461 74.5098 77.9766C74.9082 77.707 75.375 77.5723 75.9102 77.5723C76.1992 77.5723 76.4707 77.6191 76.7246 77.7129C76.9824 77.8027 77.2109 77.9297 77.4102 78.0938C77.6094 78.2578 77.7656 78.4531 77.8789 78.6797H77.9727V75.1758H78.9922V84H77.9727V82.9922H77.8789C77.75 83.2266 77.5879 83.4277 77.3926 83.5957C77.1973 83.7598 76.9746 83.8867 76.7246 83.9766C76.4746 84.0664 76.2031 84.1113 75.9102 84.1113ZM76.1445 83.209C76.5273 83.209 76.8574 83.1133 77.1348 82.9219C77.4121 82.7305 77.625 82.459 77.7734 82.1074C77.9219 81.752 77.9961 81.332 77.9961 80.8477V80.8359C77.9961 80.3477 77.9219 79.9277 77.7734 79.5762C77.625 79.2246 77.4121 78.9531 77.1348 78.7617C76.8574 78.5703 76.5273 78.4746 76.1445 78.4746C75.7617 78.4746 75.4316 78.5703 75.1543 78.7617C74.8809 78.9492 74.6699 79.2188 74.5215 79.5703C74.377 79.9219 74.3047 80.3438 74.3047 80.8359V80.8477C74.3047 81.3359 74.377 81.7578 74.5215 82.1133C74.6699 82.4648 74.8809 82.7363 75.1543 82.9277C75.4316 83.1152 75.7617 83.209 76.1445 83.209Z" fill="#615B5B"/>
<path d="M40.4375 116.982V116.045H42.8281C43.4336 116.045 43.9023 115.889 44.2344 115.576C44.5664 115.26 44.7324 114.824 44.7324 114.27V114.258C44.7324 113.699 44.5664 113.264 44.2344 112.951C43.9023 112.639 43.4336 112.482 42.8281 112.482H40.4375V111.545H43.0977C43.6289 111.545 44.0977 111.658 44.5039 111.885C44.9102 112.111 45.2285 112.428 45.459 112.834C45.6934 113.24 45.8105 113.711 45.8105 114.246V114.258C45.8105 114.793 45.6934 115.266 45.459 115.676C45.2285 116.086 44.9102 116.406 44.5039 116.637C44.0977 116.867 43.6289 116.982 43.0977 116.982H40.4375ZM39.9102 120V111.545H40.9648V120H39.9102ZM48.9102 120.111C48.5117 120.111 48.1523 120.035 47.832 119.883C47.5156 119.73 47.2637 119.514 47.0762 119.232C46.8926 118.951 46.8008 118.619 46.8008 118.236V118.225C46.8008 117.85 46.8906 117.529 47.0703 117.264C47.25 116.994 47.5117 116.783 47.8555 116.631C48.1992 116.479 48.6152 116.389 49.1035 116.361L51.4238 116.221V117.035L49.2266 117.176C48.7461 117.203 48.3945 117.303 48.1719 117.475C47.9531 117.646 47.8438 117.889 47.8438 118.201V118.213C47.8438 118.533 47.9648 118.783 48.207 118.963C48.4492 119.139 48.7539 119.227 49.1211 119.227C49.4688 119.227 49.7773 119.158 50.0469 119.021C50.3164 118.881 50.5273 118.691 50.6797 118.453C50.8359 118.215 50.9141 117.945 50.9141 117.645V115.676C50.9141 115.285 50.7949 114.988 50.5566 114.785C50.3223 114.578 49.9688 114.475 49.4961 114.475C49.1172 114.475 48.8066 114.543 48.5645 114.68C48.3223 114.812 48.1602 115.002 48.0781 115.248L48.0723 115.266H47.0527L47.0586 115.23C47.1133 114.898 47.25 114.609 47.4688 114.363C47.6914 114.113 47.9785 113.92 48.3301 113.783C48.6816 113.643 49.082 113.572 49.5312 113.572C50.0469 113.572 50.4824 113.656 50.8379 113.824C51.1973 113.992 51.4688 114.234 51.6523 114.551C51.8398 114.863 51.9336 115.238 51.9336 115.676V120H50.9141V119.068H50.8203C50.6875 119.291 50.5254 119.48 50.334 119.637C50.1465 119.793 49.9336 119.912 49.6953 119.994C49.457 120.072 49.1953 120.111 48.9102 120.111ZM53.7969 120V113.684H54.8164V114.621H54.9102C55.0312 114.289 55.2363 114.031 55.5254 113.848C55.8145 113.664 56.1719 113.572 56.5977 113.572C56.6953 113.572 56.791 113.578 56.8848 113.59C56.9824 113.598 57.0566 113.605 57.1074 113.613V114.604C57.002 114.584 56.8984 114.57 56.7969 114.562C56.6992 114.551 56.5938 114.545 56.4805 114.545C56.1562 114.545 55.8691 114.609 55.6191 114.738C55.3691 114.867 55.1719 115.047 55.0273 115.277C54.8867 115.508 54.8164 115.777 54.8164 116.086V120H53.7969ZM60.1016 120.111C59.7031 120.111 59.3438 120.035 59.0234 119.883C58.707 119.73 58.4551 119.514 58.2676 119.232C58.084 118.951 57.9922 118.619 57.9922 118.236V118.225C57.9922 117.85 58.082 117.529 58.2617 117.264C58.4414 116.994 58.7031 116.783 59.0469 116.631C59.3906 116.479 59.8066 116.389 60.2949 116.361L62.6152 116.221V117.035L60.418 117.176C59.9375 117.203 59.5859 117.303 59.3633 117.475C59.1445 117.646 59.0352 117.889 59.0352 118.201V118.213C59.0352 118.533 59.1562 118.783 59.3984 118.963C59.6406 119.139 59.9453 119.227 60.3125 119.227C60.6602 119.227 60.9688 119.158 61.2383 119.021C61.5078 118.881 61.7188 118.691 61.8711 118.453C62.0273 118.215 62.1055 117.945 62.1055 117.645V115.676C62.1055 115.285 61.9863 114.988 61.748 114.785C61.5137 114.578 61.1602 114.475 60.6875 114.475C60.3086 114.475 59.998 114.543 59.7559 114.68C59.5137 114.812 59.3516 115.002 59.2695 115.248L59.2637 115.266H58.2441L58.25 115.23C58.3047 114.898 58.4414 114.609 58.6602 114.363C58.8828 114.113 59.1699 113.92 59.5215 113.783C59.873 113.643 60.2734 113.572 60.7227 113.572C61.2383 113.572 61.6738 113.656 62.0293 113.824C62.3887 113.992 62.6602 114.234 62.8438 114.551C63.0312 114.863 63.125 115.238 63.125 115.676V120H62.1055V119.068H62.0117C61.8789 119.291 61.7168 119.48 61.5254 119.637C61.3379 119.793 61.125 119.912 60.8867 119.994C60.6484 120.072 60.3867 120.111 60.1016 120.111ZM65.0469 120V111.176H66.0664V120H65.0469ZM68.082 120V111.176H69.1016V120H68.082ZM73.6367 120.111C73.0352 120.111 72.5176 119.979 72.084 119.713C71.6543 119.447 71.3223 119.072 71.0879 118.588C70.8574 118.1 70.7422 117.525 70.7422 116.865V116.859C70.7422 116.207 70.8574 115.635 71.0879 115.143C71.3223 114.65 71.6523 114.266 72.0781 113.988C72.5039 113.711 73.002 113.572 73.5723 113.572C74.1465 113.572 74.6387 113.705 75.0488 113.971C75.4629 114.236 75.7793 114.607 75.998 115.084C76.2207 115.557 76.332 116.107 76.332 116.736V117.135H71.2695V116.32H75.8105L75.3066 117.064V116.66C75.3066 116.164 75.2324 115.756 75.084 115.436C74.9355 115.115 74.7305 114.877 74.4688 114.721C74.207 114.561 73.9062 114.48 73.5664 114.48C73.2266 114.48 72.9219 114.564 72.6523 114.732C72.3867 114.896 72.1758 115.141 72.0195 115.465C71.8633 115.789 71.7852 116.188 71.7852 116.66V117.064C71.7852 117.514 71.8613 117.898 72.0137 118.219C72.166 118.535 72.3828 118.779 72.6641 118.951C72.9453 119.119 73.2773 119.203 73.6602 119.203C73.9453 119.203 74.1934 119.164 74.4043 119.086C74.6152 119.008 74.7891 118.908 74.9258 118.787C75.0625 118.666 75.1582 118.543 75.2129 118.418L75.2363 118.365H76.2559L76.2441 118.412C76.1895 118.627 76.0918 118.836 75.9512 119.039C75.8145 119.238 75.6367 119.42 75.418 119.584C75.1992 119.744 74.9395 119.873 74.6387 119.971C74.3418 120.064 74.0078 120.111 73.6367 120.111ZM77.9727 120V111.176H78.9922V120H77.9727Z" fill="#615B5B"/>
<path d="M32.5859 156V147.545H33.6113L38.457 154.494L37.7539 154.125H38.293V147.545H39.3359V156H38.3105L33.4648 149.074L34.168 149.443H33.6289V156H32.5859ZM43.959 156.111C43.3613 156.111 42.8438 155.98 42.4062 155.719C41.9727 155.453 41.6367 155.076 41.3984 154.588C41.1641 154.1 41.0469 153.52 41.0469 152.848V152.836C41.0469 152.16 41.1641 151.578 41.3984 151.09C41.6367 150.602 41.9727 150.227 42.4062 149.965C42.8438 149.703 43.3613 149.572 43.959 149.572C44.5605 149.572 45.0781 149.703 45.5117 149.965C45.9453 150.227 46.2793 150.602 46.5137 151.09C46.752 151.578 46.8711 152.16 46.8711 152.836V152.848C46.8711 153.52 46.752 154.1 46.5137 154.588C46.2793 155.076 45.9453 155.453 45.5117 155.719C45.0781 155.98 44.5605 156.111 43.959 156.111ZM43.959 155.209C44.3574 155.209 44.6953 155.115 44.9727 154.928C45.25 154.74 45.4609 154.471 45.6055 154.119C45.7539 153.768 45.8281 153.344 45.8281 152.848V152.836C45.8281 152.336 45.7539 151.91 45.6055 151.559C45.4609 151.207 45.25 150.939 44.9727 150.756C44.6953 150.568 44.3574 150.475 43.959 150.475C43.5605 150.475 43.2227 150.568 42.9453 150.756C42.668 150.939 42.4551 151.207 42.3066 151.559C42.1621 151.91 42.0898 152.336 42.0898 152.836V152.848C42.0898 153.344 42.1621 153.768 42.3066 154.119C42.4551 154.471 42.668 154.74 42.9453 154.928C43.2227 155.115 43.5605 155.209 43.959 155.209ZM52.4844 156V155.068H55.0977C55.7344 155.068 56.2168 154.941 56.5449 154.688C56.873 154.434 57.0371 154.064 57.0371 153.58V153.568C57.0371 153.244 56.9609 152.973 56.8086 152.754C56.6562 152.535 56.4277 152.371 56.123 152.262C55.8223 152.152 55.4473 152.098 54.998 152.098H52.4844V151.189H54.6992C55.3398 151.189 55.8203 151.076 56.1406 150.85C56.4648 150.623 56.627 150.287 56.627 149.842V149.83C56.627 149.4 56.4805 149.068 56.1875 148.834C55.8984 148.596 55.4922 148.477 54.9688 148.477H52.4844V147.545H55.1914C55.7109 147.545 56.1562 147.631 56.5273 147.803C56.9023 147.975 57.1895 148.219 57.3887 148.535C57.5918 148.848 57.6934 149.219 57.6934 149.648V149.66C57.6934 149.953 57.627 150.229 57.4941 150.486C57.3652 150.744 57.1914 150.961 56.9727 151.137C56.7539 151.312 56.5078 151.426 56.2344 151.477V151.57C56.6211 151.617 56.9551 151.732 57.2363 151.916C57.5176 152.1 57.7344 152.338 57.8867 152.631C58.043 152.92 58.1211 153.25 58.1211 153.621V153.633C58.1211 154.125 58.0059 154.549 57.7754 154.904C57.5488 155.256 57.2227 155.527 56.7969 155.719C56.3711 155.906 55.8574 156 55.2559 156H52.4844ZM51.957 156V147.545H53.0117V156H51.957ZM62.293 156.111C61.6914 156.111 61.1738 155.979 60.7402 155.713C60.3105 155.447 59.9785 155.072 59.7441 154.588C59.5137 154.1 59.3984 153.525 59.3984 152.865V152.859C59.3984 152.207 59.5137 151.635 59.7441 151.143C59.9785 150.65 60.3086 150.266 60.7344 149.988C61.1602 149.711 61.6582 149.572 62.2285 149.572C62.8027 149.572 63.2949 149.705 63.7051 149.971C64.1191 150.236 64.4355 150.607 64.6543 151.084C64.877 151.557 64.9883 152.107 64.9883 152.736V153.135H59.9258V152.32H64.4668L63.9629 153.064V152.66C63.9629 152.164 63.8887 151.756 63.7402 151.436C63.5918 151.115 63.3867 150.877 63.125 150.721C62.8633 150.561 62.5625 150.48 62.2227 150.48C61.8828 150.48 61.5781 150.564 61.3086 150.732C61.043 150.896 60.832 151.141 60.6758 151.465C60.5195 151.789 60.4414 152.188 60.4414 152.66V153.064C60.4414 153.514 60.5176 153.898 60.6699 154.219C60.8223 154.535 61.0391 154.779 61.3203 154.951C61.6016 155.119 61.9336 155.203 62.3164 155.203C62.6016 155.203 62.8496 155.164 63.0605 155.086C63.2715 155.008 63.4453 154.908 63.582 154.787C63.7188 154.666 63.8145 154.543 63.8691 154.418L63.8926 154.365H64.9121L64.9004 154.412C64.8457 154.627 64.748 154.836 64.6074 155.039C64.4707 155.238 64.293 155.42 64.0742 155.584C63.8555 155.744 63.5957 155.873 63.2949 155.971C62.998 156.064 62.6641 156.111 62.293 156.111ZM66.5703 156V149.684H67.5898V150.633H67.6836C67.8438 150.297 68.0742 150.037 68.375 149.854C68.6758 149.666 69.0586 149.572 69.5234 149.572C70.2344 149.572 70.7793 149.775 71.1582 150.182C71.541 150.584 71.7324 151.16 71.7324 151.91V156H70.7129V152.156C70.7129 151.586 70.5918 151.164 70.3496 150.891C70.1113 150.613 69.7402 150.475 69.2363 150.475C68.9004 150.475 68.6094 150.547 68.3633 150.691C68.1172 150.836 67.9258 151.041 67.7891 151.307C67.6562 151.572 67.5898 151.891 67.5898 152.262V156H66.5703ZM75.9102 156.111C75.3789 156.111 74.9141 155.977 74.5156 155.707C74.1172 155.438 73.8086 155.059 73.5898 154.57C73.3711 154.078 73.2617 153.504 73.2617 152.848V152.836C73.2617 152.176 73.3711 151.602 73.5898 151.113C73.8086 150.625 74.1152 150.246 74.5098 149.977C74.9082 149.707 75.375 149.572 75.9102 149.572C76.1992 149.572 76.4707 149.619 76.7246 149.713C76.9824 149.803 77.2109 149.93 77.4102 150.094C77.6094 150.258 77.7656 150.453 77.8789 150.68H77.9727V147.176H78.9922V156H77.9727V154.992H77.8789C77.75 155.227 77.5879 155.428 77.3926 155.596C77.1973 155.76 76.9746 155.887 76.7246 155.977C76.4746 156.066 76.2031 156.111 75.9102 156.111ZM76.1445 155.209C76.5273 155.209 76.8574 155.113 77.1348 154.922C77.4121 154.73 77.625 154.459 77.7734 154.107C77.9219 153.752 77.9961 153.332 77.9961 152.848V152.836C77.9961 152.348 77.9219 151.928 77.7734 151.576C77.625 151.225 77.4121 150.953 77.1348 150.762C76.8574 150.57 76.5273 150.475 76.1445 150.475C75.7617 150.475 75.4316 150.57 75.1543 150.762C74.8809 150.949 74.6699 151.219 74.5215 151.57C74.377 151.922 74.3047 152.344 74.3047 152.836V152.848C74.3047 153.336 74.377 153.758 74.5215 154.113C74.6699 154.465 74.8809 154.736 75.1543 154.928C75.4316 155.115 75.7617 155.209 76.1445 155.209Z" fill="#615B5B"/>
<path d="M59.1562 192V183.545H62.3848C62.9277 183.545 63.4004 183.65 63.8027 183.861C64.209 184.068 64.5234 184.359 64.7461 184.734C64.9688 185.109 65.0801 185.551 65.0801 186.059V186.07C65.0801 186.656 64.9297 187.164 64.6289 187.594C64.3281 188.023 63.9121 188.322 63.3809 188.49L65.3379 192H64.1016L62.291 188.654C62.2832 188.654 62.2734 188.654 62.2617 188.654C62.25 188.654 62.2402 188.654 62.2324 188.654H60.2109V192H59.1562ZM60.2109 187.717H62.291C62.834 187.717 63.252 187.578 63.5449 187.301C63.8418 187.02 63.9902 186.621 63.9902 186.105V186.094C63.9902 185.59 63.8359 185.195 63.5273 184.91C63.2188 184.625 62.791 184.482 62.2441 184.482H60.2109V187.717ZM69.2695 192.111C68.668 192.111 68.1504 191.979 67.7168 191.713C67.2871 191.447 66.9551 191.072 66.7207 190.588C66.4902 190.1 66.375 189.525 66.375 188.865V188.859C66.375 188.207 66.4902 187.635 66.7207 187.143C66.9551 186.65 67.2852 186.266 67.7109 185.988C68.1367 185.711 68.6348 185.572 69.2051 185.572C69.7793 185.572 70.2715 185.705 70.6816 185.971C71.0957 186.236 71.4121 186.607 71.6309 187.084C71.8535 187.557 71.9648 188.107 71.9648 188.736V189.135H66.9023V188.32H71.4434L70.9395 189.064V188.66C70.9395 188.164 70.8652 187.756 70.7168 187.436C70.5684 187.115 70.3633 186.877 70.1016 186.721C69.8398 186.561 69.5391 186.48 69.1992 186.48C68.8594 186.48 68.5547 186.564 68.2852 186.732C68.0195 186.896 67.8086 187.141 67.6523 187.465C67.4961 187.789 67.418 188.188 67.418 188.66V189.064C67.418 189.514 67.4941 189.898 67.6465 190.219C67.7988 190.535 68.0156 190.779 68.2969 190.951C68.5781 191.119 68.9102 191.203 69.293 191.203C69.5781 191.203 69.8262 191.164 70.0371 191.086C70.248 191.008 70.4219 190.908 70.5586 190.787C70.6953 190.666 70.791 190.543 70.8457 190.418L70.8691 190.365H71.8887L71.877 190.412C71.8223 190.627 71.7246 190.836 71.584 191.039C71.4473 191.238 71.2695 191.42 71.0508 191.584C70.832 191.744 70.5723 191.873 70.2715 191.971C69.9746 192.064 69.6406 192.111 69.2695 192.111ZM73.5469 194.109V185.684H74.5664V186.691H74.6602C74.7891 186.457 74.9512 186.258 75.1465 186.094C75.3418 185.926 75.5645 185.797 75.8145 185.707C76.0645 185.617 76.3359 185.572 76.6289 185.572C77.1641 185.572 77.6289 185.709 78.0234 185.982C78.4219 186.252 78.7305 186.631 78.9492 187.119C79.168 187.607 79.2773 188.18 79.2773 188.836V188.848C79.2773 189.508 79.168 190.082 78.9492 190.57C78.7305 191.059 78.4219 191.438 78.0234 191.707C77.6289 191.977 77.1641 192.111 76.6289 192.111C76.3398 192.111 76.0664 192.066 75.8086 191.977C75.5547 191.883 75.3281 191.754 75.1289 191.59C74.9336 191.426 74.7773 191.23 74.6602 191.004H74.5664V194.109H73.5469ZM76.3945 191.209C76.7812 191.209 77.1113 191.115 77.3848 190.928C77.6582 190.736 77.8672 190.465 78.0117 190.113C78.1602 189.758 78.2344 189.336 78.2344 188.848V188.836C78.2344 188.344 78.1602 187.922 78.0117 187.57C77.8672 187.219 77.6582 186.949 77.3848 186.762C77.1113 186.57 76.7812 186.475 76.3945 186.475C76.0117 186.475 75.6816 186.57 75.4043 186.762C75.127 186.953 74.9141 187.225 74.7656 187.576C74.6172 187.928 74.543 188.348 74.543 188.836V188.848C74.543 189.332 74.6172 189.752 74.7656 190.107C74.9141 190.459 75.127 190.73 75.4043 190.922C75.6816 191.113 76.0117 191.209 76.3945 191.209Z" fill="#615B5B"/>
<path d="M101.229 192V184.717H101.135L98.9844 186.275V185.162L101.234 183.545H102.283V192H101.229Z" fill="#615B5B"/>
<path d="M156.922 192V191.273L159.782 188.18C160.141 187.789 160.422 187.467 160.625 187.213C160.828 186.955 160.971 186.723 161.053 186.516C161.135 186.309 161.176 186.082 161.176 185.836V185.824C161.176 185.527 161.112 185.262 160.983 185.027C160.854 184.793 160.67 184.607 160.432 184.471C160.194 184.334 159.909 184.266 159.577 184.266C159.241 184.266 158.946 184.336 158.692 184.477C158.438 184.613 158.241 184.807 158.1 185.057C157.959 185.303 157.889 185.592 157.889 185.924L157.883 185.936L156.875 185.93L156.864 185.924C156.868 185.424 156.989 184.98 157.227 184.594C157.465 184.203 157.793 183.898 158.211 183.68C158.629 183.457 159.108 183.346 159.647 183.346C160.139 183.346 160.582 183.449 160.977 183.656C161.371 183.859 161.682 184.139 161.909 184.494C162.139 184.85 162.254 185.256 162.254 185.713V185.725C162.254 186.045 162.198 186.354 162.084 186.65C161.975 186.947 161.78 187.277 161.498 187.641C161.217 188 160.821 188.443 160.309 188.971L158.123 191.227L158.387 190.74V191.227L158.129 191.051H162.395V192H156.922Z" fill="#615B5B"/>
<path d="M219.259 192.141C218.677 192.141 218.169 192.041 217.735 191.842C217.302 191.643 216.958 191.369 216.704 191.021C216.454 190.674 216.309 190.277 216.27 189.832L216.264 189.762H217.278L217.284 189.82C217.311 190.098 217.409 190.342 217.577 190.553C217.749 190.764 217.977 190.93 218.263 191.051C218.552 191.168 218.884 191.227 219.259 191.227C219.63 191.227 219.954 191.162 220.231 191.033C220.513 190.904 220.731 190.727 220.888 190.5C221.044 190.27 221.122 190.006 221.122 189.709V189.697C221.122 189.178 220.948 188.779 220.6 188.502C220.257 188.221 219.788 188.08 219.194 188.08H218.134V187.189H219.147C219.483 187.189 219.78 187.127 220.038 187.002C220.296 186.873 220.497 186.699 220.641 186.48C220.786 186.258 220.858 186.006 220.858 185.725V185.713C220.858 185.416 220.796 185.164 220.671 184.957C220.546 184.75 220.362 184.592 220.12 184.482C219.882 184.373 219.591 184.318 219.247 184.318C218.915 184.318 218.618 184.375 218.356 184.488C218.098 184.598 217.891 184.756 217.735 184.963C217.579 185.17 217.485 185.416 217.454 185.701L217.448 185.76H216.434L216.44 185.701C216.487 185.24 216.632 184.838 216.874 184.494C217.12 184.15 217.444 183.883 217.846 183.691C218.253 183.5 218.72 183.404 219.247 183.404C219.786 183.404 220.255 183.498 220.653 183.686C221.055 183.869 221.366 184.125 221.585 184.453C221.807 184.777 221.919 185.154 221.919 185.584V185.596C221.919 185.943 221.843 186.252 221.69 186.521C221.538 186.791 221.327 187.016 221.057 187.195C220.788 187.375 220.477 187.502 220.126 187.576V187.6C220.743 187.65 221.241 187.859 221.62 188.227C222.003 188.59 222.194 189.072 222.194 189.674V189.686C222.194 190.154 222.067 190.574 221.813 190.945C221.559 191.316 221.212 191.609 220.77 191.824C220.329 192.035 219.825 192.141 219.259 192.141Z" fill="#615B5B"/>
<path d="M279.743 192V190.248H275.624V189.287C275.855 188.904 276.089 188.518 276.327 188.127C276.566 187.732 276.806 187.34 277.048 186.949C277.294 186.555 277.54 186.164 277.786 185.777C278.032 185.391 278.277 185.01 278.519 184.635C278.765 184.26 279.007 183.896 279.245 183.545H280.775V189.305H281.976V190.248H280.775V192H279.743ZM276.702 189.311H279.749V184.523H279.679C279.487 184.809 279.292 185.105 279.093 185.414C278.894 185.719 278.691 186.031 278.484 186.352C278.28 186.672 278.077 186.994 277.874 187.318C277.671 187.643 277.47 187.967 277.271 188.291C277.075 188.611 276.886 188.928 276.702 189.24V189.311Z" fill="#615B5B"/>
<path d="M338.412 192.199C337.888 192.199 337.422 192.096 337.011 191.889C336.601 191.682 336.271 191.4 336.021 191.045C335.775 190.686 335.63 190.281 335.588 189.832L335.582 189.768H336.595L336.601 189.814C336.636 190.084 336.734 190.33 336.894 190.553C337.058 190.771 337.271 190.945 337.533 191.074C337.798 191.203 338.095 191.268 338.423 191.268C338.798 191.268 339.129 191.186 339.414 191.021C339.699 190.854 339.922 190.623 340.082 190.33C340.242 190.037 340.322 189.701 340.322 189.322V189.311C340.322 188.936 340.24 188.604 340.076 188.314C339.916 188.021 339.695 187.793 339.414 187.629C339.132 187.465 338.808 187.383 338.441 187.383C338.16 187.383 337.9 187.426 337.662 187.512C337.427 187.598 337.218 187.727 337.035 187.898C336.961 187.969 336.89 188.045 336.824 188.127C336.761 188.209 336.703 188.301 336.648 188.402H335.734L336.179 183.545H340.884V184.488H337.011L336.724 187.348H336.818C336.943 187.156 337.097 186.996 337.281 186.867C337.464 186.738 337.67 186.641 337.896 186.574C338.127 186.504 338.369 186.469 338.623 186.469C339.154 186.469 339.625 186.592 340.035 186.838C340.445 187.08 340.767 187.414 341.002 187.84C341.236 188.262 341.353 188.746 341.353 189.293V189.305C341.353 189.871 341.226 190.373 340.972 190.811C340.722 191.244 340.377 191.584 339.935 191.83C339.494 192.076 338.986 192.199 338.412 192.199Z" fill="#615B5B"/>
<path d="M398.111 192.199C397.725 192.199 397.342 192.125 396.963 191.977C396.588 191.828 396.246 191.588 395.938 191.256C395.633 190.924 395.389 190.486 395.205 189.943C395.021 189.396 394.93 188.725 394.93 187.928V187.916C394.93 186.955 395.059 186.135 395.316 185.455C395.574 184.771 395.945 184.25 396.43 183.891C396.914 183.527 397.498 183.346 398.182 183.346C398.654 183.346 399.08 183.434 399.459 183.609C399.842 183.781 400.16 184.023 400.414 184.336C400.672 184.645 400.848 185.008 400.941 185.426L400.959 185.502H399.898L399.875 185.438C399.789 185.199 399.666 184.996 399.506 184.828C399.35 184.656 399.158 184.523 398.932 184.43C398.709 184.336 398.455 184.289 398.17 184.289C397.658 184.289 397.242 184.439 396.922 184.74C396.602 185.037 396.363 185.434 396.207 185.93C396.055 186.422 395.967 186.963 395.943 187.553C395.939 187.604 395.938 187.656 395.938 187.711C395.938 187.762 395.938 187.814 395.938 187.869L396.189 189.275C396.189 189.646 396.273 189.982 396.441 190.283C396.613 190.584 396.844 190.824 397.133 191.004C397.422 191.18 397.744 191.268 398.1 191.268C398.455 191.268 398.777 191.182 399.066 191.01C399.355 190.834 399.584 190.598 399.752 190.301C399.924 190.004 400.01 189.674 400.01 189.311V189.299C400.01 188.924 399.928 188.592 399.764 188.303C399.604 188.01 399.381 187.781 399.096 187.617C398.811 187.449 398.484 187.365 398.117 187.365C397.754 187.365 397.426 187.447 397.133 187.611C396.844 187.775 396.613 188.002 396.441 188.291C396.273 188.576 396.189 188.902 396.189 189.27V189.275H395.844V187.752H396.049C396.154 187.521 396.311 187.307 396.518 187.107C396.725 186.908 396.979 186.748 397.279 186.627C397.58 186.506 397.92 186.445 398.299 186.445C398.83 186.445 399.305 186.568 399.723 186.814C400.141 187.061 400.469 187.396 400.707 187.822C400.949 188.248 401.07 188.732 401.07 189.275V189.287C401.07 189.85 400.941 190.35 400.684 190.787C400.43 191.225 400.08 191.57 399.635 191.824C399.189 192.074 398.682 192.199 398.111 192.199Z" fill="#615B5B"/>
<line x1="401.814" y1="114.25" x2="98.25" y2="114.25" stroke="#D0D0D0" stroke-width="0.5" stroke-linecap="round"/>
<line x1="401.814" y1="155.25" x2="98.25" y2="155.25" stroke="#D0D0D0" stroke-width="0.5" stroke-linecap="round"/>
<line x1="401.814" y1="79.25" x2="98.25" y2="79.25" stroke="#D0D0D0" stroke-width="0.5" stroke-linecap="round"/>
<circle cx="101" cy="88" r="5" fill="#734B79"/>
<circle cx="155" cy="101" r="5" fill="#734B79"/>
<circle cx="280" cy="101" r="5" fill="#734B79"/>
<circle cx="219" cy="84" r="5" fill="#734B79"/>
<circle cx="399" cy="114" r="5" fill="#734B79"/>
<circle cx="343" cy="106" r="5" fill="#734B79"/>
</svg>
