<svg width="434" height="216" viewBox="0 0 434 216" fill="none" xmlns="http://www.w3.org/2000/svg">
<rect width="434" height="216" rx="16" fill="#FFFEFD"/>
<rect x="0.5" y="0.5" width="433" height="215" rx="15.5" stroke="#F3EFEA" stroke-opacity="0.8"/>
<path d="M25.4775 33V21.022H27.9346L31.5371 30.2441H31.6782L35.2725 21.022H37.7295V33H35.8037V24.4834H34.7578L36.8828 21.354L32.334 33H30.873L26.3325 21.354L28.4575 24.4834H27.4033V33H25.4775ZM43.0436 33.1826C42.3685 33.1826 41.8013 33.0526 41.342 32.7925C40.8827 32.5269 40.5368 32.1423 40.3044 31.6387C40.072 31.1296 39.9557 30.5153 39.9557 29.7959V23.9272H42.0226V29.3228C42.0226 30.0256 42.161 30.554 42.4377 30.9082C42.7144 31.2624 43.1654 31.4395 43.7907 31.4395C44.1227 31.4395 44.416 31.3896 44.6706 31.29C44.9307 31.1849 45.1465 31.0355 45.318 30.8418C45.4896 30.6481 45.6196 30.4157 45.7082 30.1445C45.7967 29.8678 45.841 29.5579 45.841 29.2148V23.9272H47.9079V33H45.841V31.6221H45.6999C45.5615 31.943 45.3679 32.2225 45.1188 32.4604C44.8698 32.6929 44.571 32.8727 44.2223 33C43.8737 33.1217 43.4808 33.1826 43.0436 33.1826ZM53.4296 33.1826C52.6603 33.1826 51.9963 33.0747 51.4374 32.8589C50.884 32.6375 50.4468 32.3332 50.1258 31.9458C49.8049 31.5529 49.614 31.0991 49.5531 30.5845V30.5679H51.6034L51.6117 30.5845C51.7224 30.8999 51.9299 31.1572 52.2342 31.3564C52.5386 31.5557 52.9481 31.6553 53.4628 31.6553C53.8059 31.6553 54.1074 31.6082 54.3675 31.5142C54.6276 31.4146 54.8324 31.279 54.9818 31.1074C55.1312 30.9359 55.2059 30.7367 55.2059 30.5098V30.4932C55.2059 30.2275 55.098 30.0062 54.8822 29.8291C54.6664 29.6465 54.3094 29.4998 53.8114 29.3892L52.3421 29.0571C51.7666 28.9299 51.2907 28.7528 50.9144 28.5259C50.5381 28.299 50.2559 28.0195 50.0677 27.6875C49.8851 27.3555 49.7938 26.9681 49.7938 26.5254V26.5171C49.7938 25.9692 49.946 25.4878 50.2504 25.0728C50.5602 24.6577 50.9891 24.334 51.537 24.1016C52.0848 23.8691 52.7157 23.7529 53.4296 23.7529C54.1656 23.7529 54.7992 23.8636 55.3304 24.085C55.8617 24.3063 56.2767 24.6107 56.5755 24.998C56.8744 25.3854 57.0459 25.8254 57.0902 26.3179V26.3345H55.1478L55.1395 26.3096C55.062 26.0218 54.8767 25.7783 54.5834 25.5791C54.2956 25.3743 53.9082 25.272 53.4212 25.272C53.1169 25.272 52.843 25.319 52.5995 25.4131C52.3615 25.5072 52.1734 25.64 52.035 25.8115C51.9022 25.9775 51.8358 26.174 51.8358 26.4009V26.4092C51.8358 26.5863 51.8801 26.7412 51.9686 26.874C52.0627 27.0068 52.2093 27.123 52.4086 27.2227C52.6078 27.3223 52.8706 27.4108 53.1971 27.4883L54.6664 27.812C55.5573 28.0112 56.2158 28.3073 56.642 28.7002C57.0681 29.0931 57.2811 29.6216 57.2811 30.2856V30.3022C57.2811 30.8778 57.1151 31.3813 56.7831 31.813C56.451 32.2446 55.9945 32.5822 55.4134 32.8257C54.8324 33.0636 54.1711 33.1826 53.4296 33.1826ZM62.8277 33.1826C61.9146 33.1826 61.1343 32.9945 60.4869 32.6182C59.8394 32.2419 59.3441 31.6995 59.001 30.9912C58.6579 30.2829 58.4864 29.4362 58.4864 28.4512V28.4346C58.4864 27.4551 58.6579 26.6167 59.001 25.9194C59.3441 25.2222 59.8394 24.6882 60.4869 24.3174C61.1343 23.9411 61.9118 23.7529 62.8194 23.7529C63.5996 23.7529 64.2692 23.8885 64.8282 24.1597C65.3926 24.4253 65.8381 24.7961 66.1646 25.272C66.4966 25.7424 66.7014 26.293 66.7788 26.9238V26.957H64.8282L64.8199 26.9321C64.7258 26.4894 64.51 26.127 64.1724 25.8447C63.8404 25.5625 63.3921 25.4214 62.8277 25.4214C62.3573 25.4214 61.9533 25.5404 61.6158 25.7783C61.2837 26.0163 61.0292 26.3594 60.8521 26.8076C60.675 27.2559 60.5865 27.7982 60.5865 28.4346V28.4512C60.5865 29.0931 60.675 29.6437 60.8521 30.103C61.0347 30.5568 61.292 30.9054 61.6241 31.1489C61.9561 31.3869 62.3573 31.5059 62.8277 31.5059C63.3645 31.5059 63.7961 31.3841 64.1226 31.1406C64.4546 30.8971 64.6843 30.5374 64.8116 30.0615L64.8282 30.0283L66.7705 30.02L66.7622 30.0947C66.6626 30.709 66.4468 31.2485 66.1148 31.7134C65.7883 32.1782 65.3511 32.5407 64.8033 32.8008C64.2554 33.0553 63.5969 33.1826 62.8277 33.1826ZM68.3991 33V20.416H70.466V33H68.3991ZM76.5189 33.1826C75.6169 33.1826 74.8422 32.9917 74.1947 32.6099C73.5528 32.228 73.0575 31.6857 72.7089 30.9829C72.3603 30.2801 72.1859 29.4473 72.1859 28.4844V28.4761C72.1859 27.5243 72.3575 26.6942 72.7006 25.9858C73.0492 25.2775 73.5417 24.7297 74.1781 24.3423C74.8145 23.9494 75.5616 23.7529 76.4193 23.7529C77.2826 23.7529 78.0242 23.9438 78.6439 24.3257C79.2693 24.702 79.7507 25.2305 80.0883 25.9111C80.4258 26.5918 80.5946 27.3887 80.5946 28.3018V28.9824H73.2235V27.5962H79.5819L78.6024 28.8911V28.0693C78.6024 27.4661 78.5111 26.9653 78.3285 26.5669C78.1459 26.1685 77.8913 25.8696 77.5648 25.6704C77.2439 25.4712 76.8703 25.3716 76.4442 25.3716C76.0181 25.3716 75.6391 25.4767 75.307 25.687C74.9805 25.8918 74.7204 26.1961 74.5268 26.6001C74.3386 26.9985 74.2445 27.4883 74.2445 28.0693V28.8994C74.2445 29.4583 74.3386 29.937 74.5268 30.3354C74.7149 30.7284 74.9805 31.0327 75.3236 31.2485C75.6723 31.4588 76.0845 31.564 76.5604 31.564C76.9312 31.564 77.2494 31.5114 77.515 31.4062C77.7862 31.2956 78.0048 31.1655 78.1708 31.0161C78.3368 30.8612 78.453 30.7145 78.5194 30.5762L78.5443 30.5181H80.5033L80.4867 30.5928C80.4148 30.8861 80.282 31.1849 80.0883 31.4893C79.9001 31.7881 79.6428 32.0675 79.3163 32.3276C78.9953 32.5822 78.6024 32.7897 78.1376 32.9502C77.6728 33.1051 77.1332 33.1826 76.5189 33.1826ZM85.6614 33L89.9114 21.022H91.6878V23.2466H91.0486L87.9026 33H85.6614ZM87.803 29.9038L88.3591 28.252H93.8543L94.4104 29.9038H87.803ZM94.3357 33L91.1897 23.2466V21.022H92.3186L96.5769 33H94.3357ZM101.385 33.1826C100.472 33.1826 99.6913 32.9945 99.0439 32.6182C98.3964 32.2419 97.9011 31.6995 97.558 30.9912C97.2149 30.2829 97.0434 29.4362 97.0434 28.4512V28.4346C97.0434 27.4551 97.2149 26.6167 97.558 25.9194C97.9011 25.2222 98.3964 24.6882 99.0439 24.3174C99.6913 23.9411 100.469 23.7529 101.376 23.7529C102.157 23.7529 102.826 23.8885 103.385 24.1597C103.95 24.4253 104.395 24.7961 104.722 25.272C105.054 25.7424 105.258 26.293 105.336 26.9238V26.957H103.385L103.377 26.9321C103.283 26.4894 103.067 26.127 102.729 25.8447C102.397 25.5625 101.949 25.4214 101.385 25.4214C100.914 25.4214 100.51 25.5404 100.173 25.7783C99.8408 26.0163 99.5862 26.3594 99.4091 26.8076C99.232 27.2559 99.1435 27.7982 99.1435 28.4346V28.4512C99.1435 29.0931 99.232 29.6437 99.4091 30.103C99.5917 30.5568 99.8491 30.9054 100.181 31.1489C100.513 31.3869 100.914 31.5059 101.385 31.5059C101.921 31.5059 102.353 31.3841 102.68 31.1406C103.012 30.8971 103.241 30.5374 103.369 30.0615L103.385 30.0283L105.328 30.02L105.319 30.0947C105.22 30.709 105.004 31.2485 104.672 31.7134C104.345 32.1782 103.908 32.5407 103.36 32.8008C102.812 33.0553 102.154 33.1826 101.385 33.1826ZM110.559 33.0415C109.518 33.0415 108.769 32.8506 108.309 32.4688C107.85 32.0869 107.62 31.4616 107.62 30.5928V25.5293H106.209V23.9272H107.62V21.7026H109.72V23.9272H111.63V25.5293H109.72V30.103C109.72 30.5513 109.814 30.8805 110.003 31.0908C110.196 31.2956 110.506 31.3979 110.932 31.3979C111.082 31.3979 111.203 31.3952 111.297 31.3896C111.397 31.3786 111.508 31.3675 111.63 31.3564V32.9502C111.486 32.9779 111.32 33 111.131 33.0166C110.949 33.0332 110.758 33.0415 110.559 33.0415ZM113.291 33V23.9272H115.35V33H113.291ZM114.329 22.4082C113.991 22.4082 113.701 22.2892 113.457 22.0513C113.214 21.8133 113.092 21.5283 113.092 21.1963C113.092 20.8532 113.214 20.5654 113.457 20.333C113.701 20.0951 113.991 19.9761 114.329 19.9761C114.666 19.9761 114.954 20.0951 115.192 20.333C115.436 20.5654 115.557 20.8532 115.557 21.1963C115.557 21.5283 115.436 21.8133 115.192 22.0513C114.954 22.2892 114.666 22.4082 114.329 22.4082ZM119.909 33L116.68 23.9272H118.888L120.979 30.9829H121.129L123.212 23.9272H125.387L122.166 33H119.909ZM128.875 33.1494C128.305 33.1494 127.793 33.0387 127.34 32.8174C126.891 32.596 126.537 32.2834 126.277 31.8794C126.022 31.4699 125.895 30.9884 125.895 30.4351V30.4185C125.895 29.8817 126.028 29.4196 126.294 29.0322C126.559 28.6393 126.949 28.3322 127.464 28.1108C127.979 27.8895 128.604 27.7594 129.34 27.7207L132.694 27.5132V28.8745L129.631 29.0737C129.049 29.1069 128.621 29.2287 128.344 29.439C128.067 29.6493 127.929 29.9425 127.929 30.3188V30.3354C127.929 30.7228 128.076 31.0244 128.369 31.2402C128.668 31.4561 129.047 31.564 129.506 31.564C129.921 31.564 130.292 31.481 130.618 31.3149C130.945 31.1489 131.202 30.9248 131.39 30.6426C131.578 30.3548 131.673 30.0311 131.673 29.6714V26.7993C131.673 26.3455 131.529 25.9997 131.241 25.7617C130.953 25.5182 130.527 25.3965 129.963 25.3965C129.492 25.3965 129.108 25.4795 128.809 25.6455C128.51 25.806 128.308 26.0356 128.203 26.3345L128.194 26.3677H126.244L126.252 26.293C126.319 25.7839 126.518 25.3384 126.85 24.9565C127.182 24.5747 127.622 24.2786 128.17 24.0684C128.717 23.8581 129.348 23.7529 130.062 23.7529C130.848 23.7529 131.512 23.8747 132.054 24.1182C132.597 24.3561 133.009 24.7048 133.291 25.1641C133.573 25.6178 133.715 26.1629 133.715 26.7993V33H131.673V31.7549H131.531C131.365 32.0426 131.15 32.2917 130.884 32.502C130.624 32.7122 130.325 32.8727 129.987 32.9834C129.65 33.0941 129.279 33.1494 128.875 33.1494ZM139.336 33.0415C138.295 33.0415 137.546 32.8506 137.086 32.4688C136.627 32.0869 136.397 31.4616 136.397 30.5928V25.5293H134.986V23.9272H136.397V21.7026H138.497V23.9272H140.407V25.5293H138.497V30.103C138.497 30.5513 138.591 30.8805 138.78 31.0908C138.973 31.2956 139.283 31.3979 139.709 31.3979C139.859 31.3979 139.98 31.3952 140.075 31.3896C140.174 31.3786 140.285 31.3675 140.407 31.3564V32.9502C140.263 32.9779 140.097 33 139.909 33.0166C139.726 33.0332 139.535 33.0415 139.336 33.0415ZM142.068 33V23.9272H144.127V33H142.068ZM143.106 22.4082C142.768 22.4082 142.478 22.2892 142.234 22.0513C141.991 21.8133 141.869 21.5283 141.869 21.1963C141.869 20.8532 141.991 20.5654 142.234 20.333C142.478 20.0951 142.768 19.9761 143.106 19.9761C143.444 19.9761 143.731 20.0951 143.969 20.333C144.213 20.5654 144.334 20.8532 144.334 21.1963C144.334 21.5283 144.213 21.8133 143.969 22.0513C143.731 22.2892 143.444 22.4082 143.106 22.4082ZM150.163 33.1826C149.261 33.1826 148.484 32.9945 147.831 32.6182C147.178 32.2363 146.674 31.694 146.32 30.9912C145.971 30.2884 145.797 29.4473 145.797 28.4678V28.4512C145.797 27.4827 145.974 26.6471 146.328 25.9443C146.682 25.236 147.183 24.6937 147.831 24.3174C148.484 23.9411 149.261 23.7529 150.163 23.7529C151.065 23.7529 151.84 23.9411 152.488 24.3174C153.14 24.6937 153.644 25.2332 153.998 25.936C154.352 26.6388 154.529 27.4772 154.529 28.4512V28.4678C154.529 29.4473 154.352 30.2884 153.998 30.9912C153.65 31.694 153.149 32.2363 152.496 32.6182C151.848 32.9945 151.071 33.1826 150.163 33.1826ZM150.163 31.5059C150.639 31.5059 151.043 31.3869 151.375 31.1489C151.713 30.9054 151.97 30.5596 152.147 30.1113C152.324 29.6576 152.413 29.1125 152.413 28.4761V28.4595C152.413 27.8175 152.324 27.2725 152.147 26.8242C151.97 26.3704 151.713 26.0246 151.375 25.7866C151.043 25.5431 150.639 25.4214 150.163 25.4214C149.687 25.4214 149.281 25.5431 148.943 25.7866C148.606 26.0246 148.348 26.3704 148.171 26.8242C147.994 27.2725 147.905 27.8175 147.905 28.4595V28.4761C147.905 29.1125 147.994 29.6576 148.171 30.1113C148.348 30.5651 148.603 30.911 148.935 31.1489C149.272 31.3869 149.682 31.5059 150.163 31.5059ZM156.175 33V23.9272H158.242V25.3218H158.383C158.599 24.8293 158.925 24.4447 159.362 24.168C159.799 23.8913 160.344 23.7529 160.997 23.7529C162.01 23.7529 162.785 24.0462 163.322 24.6328C163.858 25.2194 164.127 26.0522 164.127 27.1313V33H162.06V27.6128C162.06 26.9045 161.911 26.3732 161.612 26.019C161.318 25.6649 160.859 25.4878 160.234 25.4878C159.824 25.4878 159.47 25.5791 159.171 25.7617C158.872 25.9443 158.643 26.2017 158.482 26.5337C158.322 26.8657 158.242 27.2586 158.242 27.7124V33H156.175Z" fill="#4B4647"/>
<path d="M25.7393 52V50.9907H28.5703C29.2601 50.9907 29.7827 50.8532 30.1382 50.5781C30.4937 50.3031 30.6714 49.9032 30.6714 49.3784V49.3657C30.6714 49.0145 30.5889 48.7204 30.4238 48.4834C30.2588 48.2464 30.0112 48.0687 29.6812 47.9502C29.3553 47.8317 28.9491 47.7725 28.4624 47.7725H25.7393V46.7886H28.1387C28.8327 46.7886 29.3532 46.6659 29.7002 46.4204C30.0514 46.175 30.2271 45.811 30.2271 45.3286V45.3159C30.2271 44.8504 30.0684 44.4907 29.751 44.2368C29.4378 43.9787 28.9977 43.8496 28.4307 43.8496H25.7393V42.8403H28.6719C29.2347 42.8403 29.7171 42.9334 30.1191 43.1196C30.5254 43.3058 30.8364 43.5703 31.0522 43.9131C31.2723 44.2516 31.3823 44.6536 31.3823 45.1191V45.1318C31.3823 45.4492 31.3104 45.7476 31.1665 46.0269C31.0269 46.3062 30.8385 46.541 30.6016 46.7314C30.3646 46.9219 30.098 47.0446 29.8018 47.0996V47.2012C30.2207 47.252 30.5825 47.3768 30.8872 47.5757C31.1919 47.7746 31.4268 48.0327 31.5918 48.3501C31.7611 48.6632 31.8457 49.0208 31.8457 49.4229V49.4355C31.8457 49.9688 31.7209 50.4279 31.4712 50.813C31.2257 51.1938 30.8724 51.488 30.4111 51.6953C29.9499 51.8984 29.3934 52 28.7417 52H25.7393ZM25.168 52V42.8403H26.3105V52H25.168ZM33.5177 52V45.1572H34.6221V52H33.5177ZM34.0763 43.8369C33.8689 43.8369 33.689 43.7629 33.5367 43.6147C33.3886 43.4624 33.3145 43.2826 33.3145 43.0752C33.3145 42.8636 33.3886 42.6838 33.5367 42.5356C33.689 42.3875 33.8689 42.3135 34.0763 42.3135C34.2878 42.3135 34.4677 42.3875 34.6158 42.5356C34.7639 42.6838 34.838 42.8636 34.838 43.0752C34.838 43.2826 34.7639 43.4624 34.6158 43.6147C34.4677 43.7629 34.2878 43.8369 34.0763 43.8369ZM39.4235 52.1206C38.7845 52.1206 38.2301 51.9746 37.7604 51.6826C37.2907 51.3906 36.9268 50.978 36.6686 50.4448C36.4105 49.9116 36.2814 49.2832 36.2814 48.5596V48.5469C36.2814 47.8359 36.4084 47.2181 36.6623 46.6934C36.9204 46.1686 37.2843 45.7624 37.7541 45.4746C38.2238 45.1826 38.7782 45.0366 39.4171 45.0366C39.9715 45.0366 40.4497 45.134 40.8517 45.3286C41.2537 45.5233 41.5754 45.7856 41.8166 46.1157C42.0578 46.4416 42.2122 46.8076 42.2799 47.2139L42.2863 47.252H41.1881L41.1818 47.2329C41.0972 46.8944 40.9046 46.6066 40.6042 46.3696C40.3037 46.1326 39.908 46.0142 39.4171 46.0142C39.0067 46.0142 38.6512 46.1178 38.3507 46.3252C38.0503 46.5326 37.8175 46.8267 37.6525 47.2075C37.4917 47.5841 37.4113 48.0306 37.4113 48.5469V48.5596C37.4113 49.0843 37.4938 49.5413 37.6588 49.9307C37.8239 50.3158 38.0566 50.6141 38.3571 50.8257C38.6575 51.0373 39.0109 51.1431 39.4171 51.1431C39.8784 51.1431 40.255 51.0436 40.547 50.8447C40.839 50.6458 41.0485 50.356 41.1754 49.9751L41.1881 49.937L42.2799 49.9307L42.2672 50.0005C42.1741 50.411 42.0091 50.777 41.7721 51.0986C41.5351 51.416 41.222 51.6657 40.8327 51.8477C40.4434 52.0296 39.9736 52.1206 39.4235 52.1206ZM46.6116 52.1206C45.9599 52.1206 45.3992 51.9767 44.9294 51.689C44.4639 51.4012 44.1042 50.995 43.8503 50.4702C43.6007 49.9412 43.4758 49.3192 43.4758 48.604V48.5977C43.4758 47.891 43.6007 47.271 43.8503 46.7378C44.1042 46.2046 44.4618 45.7878 44.9231 45.4873C45.3843 45.1868 45.9239 45.0366 46.5417 45.0366C47.1638 45.0366 47.697 45.1805 48.1413 45.4683C48.5899 45.756 48.9327 46.158 49.1697 46.6743C49.4109 47.1864 49.5315 47.783 49.5315 48.4644V48.896H44.0471V48.0137H48.9665L48.4206 48.8198V48.3818C48.4206 47.8444 48.3402 47.4022 48.1794 47.0552C48.0186 46.7082 47.7965 46.45 47.5129 46.2808C47.2294 46.1073 46.9036 46.0205 46.5354 46.0205C46.1672 46.0205 45.8371 46.1115 45.5452 46.2935C45.2574 46.4712 45.0289 46.7357 44.8596 47.0869C44.6903 47.4382 44.6057 47.8698 44.6057 48.3818V48.8198C44.6057 49.3065 44.6882 49.7233 44.8533 50.0703C45.0183 50.4131 45.2532 50.6776 45.5579 50.8638C45.8625 51.0457 46.2222 51.1367 46.637 51.1367C46.9459 51.1367 47.2146 51.0944 47.4431 51.0098C47.6716 50.9251 47.8599 50.8172 48.008 50.686C48.1562 50.5549 48.2598 50.4215 48.3191 50.2861L48.3445 50.229H49.449L49.4363 50.2798C49.377 50.5125 49.2712 50.7389 49.1189 50.959C48.9708 51.1748 48.7782 51.3716 48.5413 51.5493C48.3043 51.7228 48.0229 51.8625 47.697 51.9683C47.3754 52.0698 47.0136 52.1206 46.6116 52.1206ZM51.1654 54.2852V45.1572H52.2698V46.249H52.3714C52.5111 45.9951 52.6867 45.7793 52.8983 45.6016C53.1099 45.4196 53.3511 45.2799 53.6219 45.1826C53.8927 45.0853 54.1868 45.0366 54.5042 45.0366C55.084 45.0366 55.5876 45.1847 56.015 45.481C56.4466 45.7729 56.7809 46.1834 57.0179 46.7124C57.2549 47.2414 57.3734 47.8613 57.3734 48.5723V48.585C57.3734 49.3001 57.2549 49.9222 57.0179 50.4512C56.7809 50.9801 56.4466 51.3906 56.015 51.6826C55.5876 51.9746 55.084 52.1206 54.5042 52.1206C54.1911 52.1206 53.8948 52.0719 53.6155 51.9746C53.3405 51.873 53.095 51.7334 52.8792 51.5557C52.6676 51.3779 52.4984 51.1663 52.3714 50.9209H52.2698V54.2852H51.1654ZM54.2503 51.1431C54.6693 51.1431 55.0268 51.0415 55.3231 50.8384C55.6193 50.631 55.8457 50.3369 56.0023 49.9561C56.1631 49.571 56.2435 49.1139 56.2435 48.585V48.5723C56.2435 48.0391 56.1631 47.582 56.0023 47.2012C55.8457 46.8203 55.6193 46.5283 55.3231 46.3252C55.0268 46.1178 54.6693 46.0142 54.2503 46.0142C53.8356 46.0142 53.478 46.1178 53.1776 46.3252C52.8771 46.5326 52.6465 46.8267 52.4857 47.2075C52.3249 47.5884 52.2445 48.0433 52.2445 48.5723V48.585C52.2445 49.1097 52.3249 49.5646 52.4857 49.9497C52.6465 50.3306 52.8771 50.6247 53.1776 50.832C53.478 51.0394 53.8356 51.1431 54.2503 51.1431ZM66.4238 52.2158C65.5944 52.2158 64.8771 52.0212 64.272 51.6318C63.6668 51.2425 63.1992 50.6903 62.8691 49.9751C62.5433 49.2599 62.3804 48.4115 62.3804 47.4297V47.417C62.3804 46.431 62.5433 45.5804 62.8691 44.8652C63.1992 44.1501 63.6647 43.5978 64.2656 43.2085C64.8707 42.8192 65.588 42.6245 66.4175 42.6245C67.0607 42.6245 67.6447 42.7515 68.1694 43.0054C68.6984 43.255 69.1343 43.6042 69.477 44.0527C69.8198 44.4971 70.0356 45.0112 70.1245 45.5952L70.1181 45.6079H68.9692L68.9629 45.5952C68.8613 45.2017 68.6899 44.8631 68.4487 44.5796C68.2075 44.2918 67.9134 44.0697 67.5664 43.9131C67.2236 43.7565 66.8406 43.6782 66.4175 43.6782C65.8335 43.6782 65.3257 43.8306 64.894 44.1353C64.4666 44.4399 64.1365 44.8716 63.9038 45.4302C63.671 45.9888 63.5547 46.651 63.5547 47.417V47.4297C63.5547 48.1914 63.671 48.8516 63.9038 49.4102C64.1365 49.9688 64.4666 50.4004 64.894 50.7051C65.3257 51.0098 65.8356 51.1621 66.4238 51.1621C66.8512 51.1621 67.2384 51.0944 67.5854 50.959C67.9324 50.8193 68.2244 50.6226 68.4614 50.3687C68.6984 50.1105 68.8634 49.8058 68.9565 49.4546L68.9692 49.4419H70.1245V49.4546C70.0229 50.0132 69.8029 50.4998 69.4643 50.9146C69.1258 51.325 68.6963 51.6445 68.1758 51.873C67.6595 52.1016 67.0755 52.2158 66.4238 52.2158ZM74.1133 52.1206C73.5971 52.1206 73.1633 52.0233 72.8121 51.8286C72.4608 51.6297 72.1963 51.342 72.0186 50.9653C71.8451 50.5845 71.7584 50.1253 71.7584 49.5879V45.1572H72.8629V49.3213C72.8629 49.9349 72.9813 50.3919 73.2183 50.6924C73.4595 50.9928 73.8531 51.1431 74.399 51.1431C74.6994 51.1431 74.9639 51.0986 75.1924 51.0098C75.4252 50.9209 75.6198 50.7939 75.7764 50.6289C75.933 50.4596 76.0494 50.2565 76.1255 50.0195C76.2059 49.7783 76.2462 49.5075 76.2462 49.207V45.1572H77.3506V52H76.2462V50.978H76.1446C76.0346 51.2192 75.8843 51.4266 75.6939 51.6001C75.5035 51.7694 75.275 51.8984 75.0084 51.9873C74.746 52.0762 74.4476 52.1206 74.1133 52.1206ZM79.3336 52V45.1572H80.4381V46.1729H80.5397C80.6709 45.8132 80.893 45.5339 81.2062 45.335C81.5193 45.1361 81.9066 45.0366 82.3678 45.0366C82.4736 45.0366 82.5773 45.043 82.6788 45.0557C82.7846 45.0641 82.865 45.0726 82.9201 45.0811V46.1538C82.8058 46.1326 82.6937 46.1178 82.5836 46.1094C82.4778 46.0967 82.3636 46.0903 82.2409 46.0903C81.8896 46.0903 81.5786 46.1602 81.3078 46.2998C81.0369 46.4395 80.8232 46.6341 80.6666 46.8838C80.5143 47.1335 80.4381 47.4255 80.4381 47.7598V52H79.3336ZM84.2683 52V42.4404H85.3728V52H84.2683ZM89.7615 52.1206C89.2537 52.1206 88.8051 52.0444 88.4158 51.8921C88.0265 51.7355 87.7133 51.5176 87.4764 51.2383C87.2436 50.959 87.1061 50.631 87.0638 50.2544H88.1937C88.2868 50.5379 88.4687 50.7664 88.7396 50.9399C89.0104 51.1134 89.3637 51.2002 89.7996 51.2002C90.1085 51.2002 90.3794 51.1558 90.6121 51.0669C90.8491 50.9738 91.0353 50.849 91.1707 50.6924C91.3061 50.5316 91.3738 50.3475 91.3738 50.1401V50.1274C91.3738 49.8947 91.2807 49.6979 91.0945 49.5371C90.9083 49.3721 90.6036 49.2388 90.1805 49.1372L89.1204 48.8833C88.693 48.7817 88.3418 48.6506 88.0667 48.4897C87.7916 48.3247 87.5885 48.1237 87.4573 47.8867C87.3261 47.6455 87.2605 47.362 87.2605 47.0361V47.0298C87.2605 46.6489 87.3706 46.3083 87.5906 46.0078C87.8149 45.7074 88.1196 45.4704 88.5047 45.2969C88.8898 45.1234 89.3235 45.0366 89.806 45.0366C90.2841 45.0366 90.7073 45.1128 91.0755 45.2651C91.4479 45.4132 91.7462 45.6248 91.9705 45.8999C92.199 46.175 92.3387 46.4987 92.3895 46.8711H91.304C91.2321 46.6003 91.067 46.3802 90.8089 46.2109C90.5507 46.0417 90.2143 45.957 89.7996 45.957C89.5288 45.957 89.2876 46.0015 89.076 46.0903C88.8644 46.175 88.6972 46.2935 88.5745 46.4458C88.4518 46.5981 88.3904 46.7759 88.3904 46.979V46.9917C88.3904 47.144 88.4306 47.2795 88.511 47.3979C88.5914 47.5164 88.7163 47.6201 88.8855 47.709C89.0548 47.7979 89.2728 47.8761 89.5394 47.9438L90.5931 48.1978C91.2363 48.3543 91.7145 48.5786 92.0276 48.8706C92.345 49.1626 92.5037 49.554 92.5037 50.0449V50.0576C92.5037 50.4639 92.3831 50.8236 92.1419 51.1367C91.9007 51.4456 91.5727 51.6868 91.158 51.8604C90.7475 52.0339 90.282 52.1206 89.7615 52.1206ZM97.6186 48.8262V47.7979H101.884V48.8262H97.6186ZM110.484 52.2158C109.815 52.2158 109.231 52.1079 108.732 51.8921C108.237 51.672 107.843 51.3716 107.551 50.9907C107.264 50.6056 107.096 50.1655 107.05 49.6704L107.044 49.6006H108.186L108.192 49.6704C108.222 49.9751 108.338 50.2396 108.542 50.4639C108.749 50.6839 109.024 50.8553 109.367 50.978C109.714 51.1007 110.107 51.1621 110.547 51.1621C110.962 51.1621 111.33 51.0965 111.652 50.9653C111.978 50.8299 112.234 50.6437 112.42 50.4067C112.606 50.1698 112.699 49.8968 112.699 49.5879V49.5815C112.699 49.2007 112.56 48.8812 112.28 48.623C112.001 48.3607 111.546 48.1597 110.916 48.02L109.9 47.7979C108.982 47.5947 108.313 47.2816 107.894 46.8584C107.479 46.431 107.272 45.8851 107.272 45.2207V45.2144C107.276 44.7065 107.414 44.258 107.685 43.8687C107.96 43.4793 108.338 43.1746 108.821 42.9546C109.308 42.7345 109.866 42.6245 110.497 42.6245C111.106 42.6245 111.646 42.7345 112.115 42.9546C112.585 43.1704 112.957 43.4624 113.233 43.8306C113.512 44.1987 113.666 44.6113 113.696 45.0684L113.702 45.1572H112.56L112.547 45.0747C112.505 44.8039 112.395 44.5648 112.217 44.3574C112.039 44.1458 111.802 43.9787 111.506 43.856C111.21 43.7332 110.863 43.674 110.465 43.6782C110.084 43.6782 109.741 43.7375 109.437 43.856C109.132 43.9744 108.889 44.1458 108.707 44.3701C108.529 44.5902 108.44 44.861 108.44 45.1826V45.189C108.44 45.5529 108.575 45.8597 108.846 46.1094C109.117 46.359 109.564 46.5516 110.186 46.687L111.201 46.9155C111.84 47.0552 112.354 47.2371 112.744 47.4614C113.133 47.6857 113.417 47.9608 113.594 48.2866C113.776 48.6082 113.867 48.9891 113.867 49.4292V49.4355C113.867 50.0068 113.728 50.4998 113.448 50.9146C113.169 51.3293 112.776 51.6509 112.268 51.8794C111.76 52.1037 111.165 52.2158 110.484 52.2158ZM118.345 52.1206C117.693 52.1206 117.133 51.9767 116.663 51.689C116.197 51.4012 115.838 50.995 115.584 50.4702C115.334 49.9412 115.209 49.3192 115.209 48.604V48.5977C115.209 47.891 115.334 47.271 115.584 46.7378C115.838 46.2046 116.195 45.7878 116.656 45.4873C117.118 45.1868 117.657 45.0366 118.275 45.0366C118.897 45.0366 119.43 45.1805 119.875 45.4683C120.323 45.756 120.666 46.158 120.903 46.6743C121.144 47.1864 121.265 47.783 121.265 48.4644V48.896H115.78V48.0137H120.7L120.154 48.8198V48.3818C120.154 47.8444 120.074 47.4022 119.913 47.0552C119.752 46.7082 119.53 46.45 119.246 46.2808C118.963 46.1073 118.637 46.0205 118.269 46.0205C117.901 46.0205 117.571 46.1115 117.279 46.2935C116.991 46.4712 116.762 46.7357 116.593 47.0869C116.424 47.4382 116.339 47.8698 116.339 48.3818V48.8198C116.339 49.3065 116.422 49.7233 116.587 50.0703C116.752 50.4131 116.987 50.6776 117.291 50.8638C117.596 51.0457 117.956 51.1367 118.37 51.1367C118.679 51.1367 118.948 51.0944 119.176 51.0098C119.405 50.9251 119.593 50.8172 119.741 50.686C119.89 50.5549 119.993 50.4215 120.052 50.2861L120.078 50.229H121.182L121.17 50.2798C121.11 50.5125 121.005 50.7389 120.852 50.959C120.704 51.1748 120.512 51.3716 120.275 51.5493C120.038 51.7228 119.756 51.8625 119.43 51.9683C119.109 52.0698 118.747 52.1206 118.345 52.1206ZM125.33 52.0508C124.627 52.0508 124.117 51.909 123.8 51.6255C123.487 51.342 123.33 50.8743 123.33 50.2227V46.0713H122.251V45.1572H123.33V43.3862H124.473V45.1572H125.971V46.0713H124.473V49.9434C124.473 50.3454 124.549 50.6353 124.701 50.813C124.854 50.9865 125.108 51.0732 125.463 51.0732C125.56 51.0732 125.643 51.0711 125.711 51.0669C125.783 51.0627 125.869 51.0563 125.971 51.0479V51.9873C125.865 52.0042 125.759 52.019 125.654 52.0317C125.548 52.0444 125.44 52.0508 125.33 52.0508ZM133.352 52V44.1099H133.25L130.921 45.7983V44.5923L133.358 42.8403H134.495V52H133.352Z" fill="#4B4647"/>
<path d="M32.3594 84V75.5449H33.584L36.4785 82.5996H36.5723L39.4668 75.5449H40.6914V84H39.707V77.543H39.1914L40.375 75.7793L36.9707 84H36.0801L32.6816 75.7793L33.8594 77.543H33.3438V84H32.3594ZM42.1738 84L45.291 75.5449H46.0996V76.9102H45.7656L43.2812 84H42.1738ZM43.5859 81.5801L43.9141 80.6836H47.7344L48.0625 81.5801H43.5859ZM48.3438 84L45.8594 76.9102V75.5449H46.334L49.4512 84H48.3438ZM50.377 84L53.5117 79.3828L53.2598 80.1973V79.7285L50.4121 75.5449H51.6836L53.9453 78.9492H54.4258L53.7285 79.3242L56.2656 75.5449H57.4668L54.543 79.7812V80.25L54.291 79.4355L57.4023 84H56.1367L53.8867 80.625H53.4062L54.1035 80.2559L51.5723 84H50.377Z" fill="#615B5B"/>
<path d="M54.1812 177.87C53.5562 177.87 53.021 177.69 52.5757 177.331C52.1343 176.971 51.7945 176.461 51.5562 175.801C51.3179 175.137 51.1988 174.352 51.1988 173.446V173.434C51.1988 172.528 51.3179 171.745 51.5562 171.084C51.7945 170.424 52.1343 169.915 52.5757 169.555C53.021 169.196 53.5562 169.016 54.1812 169.016C54.8062 169.016 55.3413 169.196 55.7866 169.555C56.232 169.915 56.5738 170.424 56.812 171.084C57.0542 171.745 57.1753 172.528 57.1753 173.434V173.446C57.1753 174.352 57.0542 175.137 56.812 175.801C56.5738 176.461 56.232 176.971 55.7866 177.331C55.3413 177.69 54.8062 177.87 54.1812 177.87ZM54.1812 176.95C54.5874 176.95 54.9331 176.807 55.2183 176.522C55.5073 176.237 55.728 175.833 55.8804 175.309C56.0366 174.786 56.1148 174.165 56.1148 173.446V173.434C56.1148 172.715 56.0366 172.096 55.8804 171.577C55.728 171.053 55.5073 170.651 55.2183 170.37C54.9331 170.084 54.5874 169.942 54.1812 169.942C53.7788 169.942 53.4331 170.084 53.1441 170.37C52.8589 170.651 52.6402 171.053 52.4878 171.577C52.3355 172.096 52.2593 172.715 52.2593 173.434V173.446C52.2593 174.165 52.3355 174.786 52.4878 175.309C52.6402 175.833 52.8589 176.237 53.1441 176.522C53.4331 176.807 53.7788 176.95 54.1812 176.95Z" fill="#615B5B"/>
<path d="M216.46 192.583C215.937 192.583 215.47 192.479 215.06 192.272C214.65 192.065 214.32 191.784 214.07 191.428C213.824 191.069 213.679 190.665 213.636 190.215L213.63 190.151H214.644L214.65 190.198C214.685 190.467 214.782 190.713 214.943 190.936C215.107 191.155 215.32 191.329 215.581 191.458C215.847 191.586 216.144 191.651 216.472 191.651C216.847 191.651 217.177 191.569 217.462 191.405C217.747 191.237 217.97 191.006 218.13 190.713C218.29 190.42 218.37 190.084 218.37 189.706V189.694C218.37 189.319 218.288 188.987 218.124 188.698C217.964 188.405 217.743 188.176 217.462 188.012C217.181 187.848 216.857 187.766 216.49 187.766C216.208 187.766 215.949 187.809 215.71 187.895C215.476 187.981 215.267 188.11 215.083 188.282C215.009 188.352 214.939 188.428 214.872 188.51C214.81 188.592 214.751 188.684 214.697 188.786H213.782L214.228 183.928H218.933V184.872H215.06L214.773 187.731H214.866C214.991 187.54 215.146 187.379 215.329 187.25C215.513 187.122 215.718 187.024 215.945 186.958C216.175 186.887 216.417 186.852 216.671 186.852C217.202 186.852 217.673 186.975 218.083 187.221C218.493 187.463 218.816 187.797 219.05 188.223C219.284 188.645 219.402 189.129 219.402 189.676V189.688C219.402 190.254 219.275 190.756 219.021 191.194C218.771 191.627 218.425 191.967 217.984 192.213C217.542 192.459 217.034 192.583 216.46 192.583ZM223.275 192.495C222.806 192.495 222.392 192.424 222.032 192.284C221.673 192.139 221.384 191.938 221.165 191.68C220.95 191.422 220.824 191.12 220.784 190.772H221.827C221.913 191.034 222.081 191.245 222.331 191.405C222.581 191.565 222.907 191.645 223.31 191.645C223.595 191.645 223.845 191.604 224.06 191.522C224.279 191.436 224.45 191.321 224.575 191.176C224.7 191.028 224.763 190.858 224.763 190.667V190.655C224.763 190.44 224.677 190.258 224.505 190.11C224.333 189.958 224.052 189.834 223.661 189.741L222.683 189.506C222.288 189.413 221.964 189.292 221.71 189.143C221.456 188.991 221.269 188.805 221.148 188.586C221.027 188.364 220.966 188.102 220.966 187.801V187.795C220.966 187.444 221.068 187.129 221.271 186.852C221.478 186.575 221.759 186.356 222.115 186.196C222.47 186.036 222.87 185.956 223.316 185.956C223.757 185.956 224.148 186.026 224.488 186.167C224.831 186.303 225.107 186.499 225.314 186.752C225.525 187.006 225.654 187.305 225.7 187.649H224.699C224.632 187.399 224.48 187.196 224.241 187.04C224.003 186.883 223.693 186.805 223.31 186.805C223.06 186.805 222.837 186.846 222.642 186.928C222.447 187.006 222.292 187.116 222.179 187.256C222.066 187.397 222.009 187.561 222.009 187.749V187.76C222.009 187.901 222.046 188.026 222.12 188.135C222.195 188.245 222.31 188.34 222.466 188.422C222.622 188.504 222.824 188.577 223.07 188.639L224.042 188.874C224.636 189.018 225.077 189.225 225.366 189.495C225.659 189.764 225.806 190.125 225.806 190.579V190.59C225.806 190.965 225.695 191.297 225.472 191.586C225.249 191.872 224.947 192.094 224.564 192.254C224.185 192.415 223.755 192.495 223.275 192.495Z" fill="#615B5B"/>
<path d="M376.809 191.893V184.609H376.715L374.564 186.168V185.055L376.814 183.438H377.863V191.893H376.809ZM383.137 192.092C382.512 192.092 381.977 191.912 381.531 191.553C381.09 191.193 380.75 190.684 380.512 190.023C380.273 189.359 380.154 188.574 380.154 187.668V187.656C380.154 186.75 380.273 185.967 380.512 185.307C380.75 184.646 381.09 184.137 381.531 183.777C381.977 183.418 382.512 183.238 383.137 183.238C383.762 183.238 384.297 183.418 384.742 183.777C385.188 184.137 385.529 184.646 385.768 185.307C386.01 185.967 386.131 186.75 386.131 187.656V187.668C386.131 188.574 386.01 189.359 385.768 190.023C385.529 190.684 385.188 191.193 384.742 191.553C384.297 191.912 383.762 192.092 383.137 192.092ZM383.137 191.172C383.543 191.172 383.889 191.029 384.174 190.744C384.463 190.459 384.684 190.055 384.836 189.531C384.992 189.008 385.07 188.387 385.07 187.668V187.656C385.07 186.938 384.992 186.318 384.836 185.799C384.684 185.275 384.463 184.873 384.174 184.592C383.889 184.307 383.543 184.164 383.137 184.164C382.734 184.164 382.389 184.307 382.1 184.592C381.814 184.873 381.596 185.275 381.443 185.799C381.291 186.318 381.215 186.938 381.215 187.656V187.668C381.215 188.387 381.291 189.008 381.443 189.531C381.596 190.055 381.814 190.459 382.1 190.744C382.389 191.029 382.734 191.172 383.137 191.172ZM390.039 192.004C389.57 192.004 389.156 191.934 388.797 191.793C388.438 191.648 388.148 191.447 387.93 191.189C387.715 190.932 387.588 190.629 387.549 190.281H388.592C388.678 190.543 388.846 190.754 389.096 190.914C389.346 191.074 389.672 191.154 390.074 191.154C390.359 191.154 390.609 191.113 390.824 191.031C391.043 190.945 391.215 190.83 391.34 190.686C391.465 190.537 391.527 190.367 391.527 190.176V190.164C391.527 189.949 391.441 189.768 391.27 189.619C391.098 189.467 390.816 189.344 390.426 189.25L389.447 189.016C389.053 188.922 388.729 188.801 388.475 188.652C388.221 188.5 388.033 188.314 387.912 188.096C387.791 187.873 387.73 187.611 387.73 187.311V187.305C387.73 186.953 387.832 186.639 388.035 186.361C388.242 186.084 388.523 185.865 388.879 185.705C389.234 185.545 389.635 185.465 390.08 185.465C390.521 185.465 390.912 185.535 391.252 185.676C391.596 185.812 391.871 186.008 392.078 186.262C392.289 186.516 392.418 186.814 392.465 187.158H391.463C391.396 186.908 391.244 186.705 391.006 186.549C390.768 186.393 390.457 186.314 390.074 186.314C389.824 186.314 389.602 186.355 389.406 186.438C389.211 186.516 389.057 186.625 388.943 186.766C388.83 186.906 388.773 187.07 388.773 187.258V187.27C388.773 187.41 388.811 187.535 388.885 187.645C388.959 187.754 389.074 187.85 389.23 187.932C389.387 188.014 389.588 188.086 389.834 188.148L390.807 188.383C391.4 188.527 391.842 188.734 392.131 189.004C392.424 189.273 392.57 189.635 392.57 190.088V190.1C392.57 190.475 392.459 190.807 392.236 191.096C392.014 191.381 391.711 191.604 391.328 191.764C390.949 191.924 390.52 192.004 390.039 192.004Z" fill="#615B5B"/>
<line x1="389.905" y1="128.648" x2="65.25" y2="128.648" stroke="#D0D0D0" stroke-width="0.5" stroke-linecap="round"/>
<line x1="389.905" y1="82.0586" x2="65.25" y2="82.0586" stroke="#D0D0D0" stroke-width="0.5" stroke-linecap="round"/>
<path d="M220 174.989C223.063 154.586 224.647 138.82 227.842 125.759C231.037 112.699 229.875 114.038 234.522 135.806C239.17 157.574 243.817 90.2607 245.559 82.8931C246.722 77.9787 248.015 93.3439 250.207 88.9211C251.368 86.5769 256.679 135.388 257 133.303C260.195 112.539 267.634 141.624 273.442 130.238C279.251 118.851 284.48 167.286 284.48 167.286C285.266 167.286 290.697 171.997 296.871 174.989H311.782C317.464 169.432 316.608 150.979 318.172 153.555C319.735 156.131 321.366 159.249 322.819 162.263C328.466 173.984 329.499 63.1344 334.146 84.5675C334.99 88.4596 335.889 96.9586 337.632 97.6284C338.738 98.0537 340.082 89.4375 341.407 85.5722C346.345 71.1718 348.143 136.936 352.5 130.238C354.695 126.864 360.956 136.868 364 134.529C366.614 132.52 377.21 127.61 377.5 133.303C377.915 141.437 373.639 174.989 387 174.989H311.782C307.86 178.824 302.099 177.523 296.871 174.989H220Z" fill="url(#paint0_linear_525_489)"/>
<path d="M69.7717 171.094C67.6127 174.729 65.9116 175.24 65 170.97L69.7717 171.094C78.6197 156.195 95.1577 88.8155 96.5585 82.8931C97.7209 77.9787 99.0138 93.3439 101.206 88.9211C102.367 86.5769 102.627 86.653 102.948 84.5675C106.143 63.8042 114.566 168.291 120.375 156.904C120.375 156.904 122.989 145.518 124.442 163.117C124.61 165.159 125.398 169.566 127.521 172.591L135.209 172.79C138.149 169.25 141.011 163.191 145.499 163.117C152.833 162.995 167.607 150.979 169.171 153.555C170.734 156.131 172.366 159.249 173.818 162.263C179.465 173.984 180.498 63.1344 185.145 84.5675C185.989 88.4596 186.888 96.9586 188.631 97.6284C189.737 98.0537 191.081 89.4375 192.406 85.5722C197.344 71.1718 192.987 125.09 197.344 118.392C199.539 115.018 200.109 110.684 203.153 108.345C205.767 106.336 204.315 127.769 204.605 133.462C205.001 141.225 200.937 171.996 212.181 174.786L214.498 174.846C215.925 174.131 216.355 170.97 217.385 170.97C219.086 170.97 219.999 174.989 219.999 174.989L214.498 174.846C214.316 174.937 214.117 174.989 213.9 174.989C213.29 174.989 212.718 174.919 212.181 174.786L135.209 172.79C133.345 175.035 131.45 176.267 129.089 174.319C128.499 173.832 127.979 173.244 127.521 172.591L69.7717 171.094Z" fill="url(#paint1_linear_525_489)"/>
<path d="M65 170.97C69.6472 192.738 94.8158 90.2607 96.5585 82.8931C97.7209 77.9787 99.0138 93.3439 101.206 88.9211C102.367 86.5769 102.627 86.653 102.948 84.5675C106.143 63.8042 114.566 168.291 120.375 156.904C120.375 156.904 122.989 145.518 124.442 163.117C124.647 165.6 125.767 171.579 129.089 174.319C135.175 179.339 138.165 163.238 145.499 163.117C152.833 162.995 167.607 150.979 169.171 153.555C170.734 156.131 172.366 159.249 173.818 162.263C179.465 173.984 180.498 63.1344 185.145 84.5675C185.989 88.4596 186.888 96.9586 188.631 97.6284C189.737 98.0537 191.081 89.4375 192.406 85.5722C197.344 71.1718 192.987 125.09 197.344 118.392C199.539 115.018 200.109 110.684 203.153 108.345C205.767 106.336 204.315 127.769 204.605 133.462C205.02 141.596 200.539 174.989 213.9 174.989C215.825 174.989 216.223 170.97 217.385 170.97C219.086 170.97 219.999 174.989 219.999 174.989" stroke="#F5801E" stroke-width="2" stroke-linecap="round"/>
<path d="M220 174.989C223.063 154.586 224.647 138.82 227.842 125.759C231.037 112.699 229.875 114.038 234.522 135.806C239.17 157.574 243.817 90.2607 245.559 82.8931C246.722 77.9787 248.015 93.3439 250.207 88.9211C251.368 86.5769 256.679 135.388 257 133.303C260.195 112.539 267.634 141.624 273.442 130.238C279.251 118.851 284.48 167.286 284.48 167.286C285.932 167.286 303.228 183.353 311.782 174.989C317.464 169.432 316.608 150.979 318.172 153.555C319.735 156.131 321.366 159.249 322.819 162.263C328.466 173.984 329.499 63.1344 334.146 84.5675C334.99 88.4596 335.889 96.9586 337.632 97.6284C338.738 98.0537 340.082 89.4375 341.407 85.5722C346.345 71.1718 348.143 136.936 352.5 130.238C354.695 126.864 360.956 136.868 364 134.529C366.614 132.52 377.21 127.61 377.5 133.303C377.915 141.437 373.639 174.989 387 174.989" stroke="#F5801E" stroke-width="2"/>
<defs>
<linearGradient id="paint0_linear_525_489" x1="303.5" y1="81.8086" x2="303.5" y2="177.402" gradientUnits="userSpaceOnUse">
<stop stop-color="#F5801E" stop-opacity="0.2"/>
<stop offset="1" stop-color="#F5801E" stop-opacity="0"/>
</linearGradient>
<linearGradient id="paint1_linear_525_489" x1="142.5" y1="175.289" x2="142.5" y2="81.8086" gradientUnits="userSpaceOnUse">
<stop stop-color="#F5801E" stop-opacity="0"/>
<stop offset="1" stop-color="#F5801E" stop-opacity="0.1"/>
</linearGradient>
</defs>
</svg>
