<svg width="418" height="216" viewBox="0 0 418 216" fill="none" xmlns="http://www.w3.org/2000/svg">
<rect width="418" height="216" rx="16" fill="#FFFEFD"/>
<path d="M30.6406 33.2988C29.4674 33.2988 28.4575 33.0443 27.6108 32.5352C26.7697 32.0205 26.1195 31.2928 25.6602 30.3521C25.2008 29.4113 24.9712 28.299 24.9712 27.0151V26.9985C24.9712 25.7091 25.2008 24.5968 25.6602 23.6616C26.125 22.7209 26.7808 21.9959 27.6274 21.4868C28.4797 20.9777 29.484 20.7231 30.6406 20.7231C31.8027 20.7231 32.8071 20.9777 33.6538 21.4868C34.5005 21.9959 35.1535 22.7209 35.6128 23.6616C36.0721 24.6024 36.3018 25.7147 36.3018 26.9985V27.0151C36.3018 28.299 36.0721 29.4113 35.6128 30.3521C35.159 31.2928 34.5088 32.0205 33.6621 32.5352C32.8154 33.0443 31.8083 33.2988 30.6406 33.2988ZM30.6406 31.4478C31.3545 31.4478 31.9715 31.2651 32.4917 30.8999C33.0119 30.5347 33.4131 30.02 33.6953 29.356C33.9831 28.6919 34.127 27.9116 34.127 27.0151V26.9985C34.127 26.0965 33.9831 25.3162 33.6953 24.6577C33.4131 23.9937 33.0119 23.4818 32.4917 23.1221C31.9715 22.7568 31.3545 22.5742 30.6406 22.5742C29.9323 22.5742 29.3153 22.7568 28.7896 23.1221C28.2694 23.4818 27.8654 23.9937 27.5776 24.6577C27.2954 25.3162 27.1543 26.0965 27.1543 26.9985V27.0151C27.1543 27.9116 27.2926 28.6919 27.5693 29.356C27.8516 30.02 28.2528 30.5347 28.7729 30.8999C29.2987 31.2651 29.9212 31.4478 30.6406 31.4478ZM38.113 33V23.9272H40.1799V25.3218H40.321C40.5368 24.8293 40.8633 24.4447 41.3005 24.168C41.7376 23.8913 42.2827 23.7529 42.9357 23.7529C43.9484 23.7529 44.7232 24.0462 45.2599 24.6328C45.7967 25.2194 46.0651 26.0522 46.0651 27.1313V33H43.9982V27.6128C43.9982 26.9045 43.8488 26.3732 43.55 26.019C43.2567 25.6649 42.7974 25.4878 42.1721 25.4878C41.7625 25.4878 41.4084 25.5791 41.1096 25.7617C40.8107 25.9443 40.5811 26.2017 40.4206 26.5337C40.2601 26.8657 40.1799 27.2586 40.1799 27.7124V33H38.113ZM51.9603 33.1826C51.0583 33.1826 50.2836 32.9917 49.6361 32.6099C48.9942 32.228 48.4989 31.6857 48.1503 30.9829C47.8016 30.2801 47.6273 29.4473 47.6273 28.4844V28.4761C47.6273 27.5243 47.7989 26.6942 48.142 25.9858C48.4906 25.2775 48.9831 24.7297 49.6195 24.3423C50.2559 23.9494 51.003 23.7529 51.8607 23.7529C52.724 23.7529 53.4655 23.9438 54.0853 24.3257C54.7106 24.702 55.1921 25.2305 55.5296 25.9111C55.8672 26.5918 56.036 27.3887 56.036 28.3018V28.9824H48.6649V27.5962H55.0233L54.0438 28.8911V28.0693C54.0438 27.4661 53.9525 26.9653 53.7699 26.5669C53.5873 26.1685 53.3327 25.8696 53.0062 25.6704C52.6852 25.4712 52.3117 25.3716 51.8856 25.3716C51.4595 25.3716 51.0804 25.4767 50.7484 25.687C50.4219 25.8918 50.1618 26.1961 49.9681 26.6001C49.78 26.9985 49.6859 27.4883 49.6859 28.0693V28.8994C49.6859 29.4583 49.78 29.937 49.9681 30.3354C50.1563 30.7284 50.4219 31.0327 50.765 31.2485C51.1136 31.4588 51.5259 31.564 52.0018 31.564C52.3726 31.564 52.6908 31.5114 52.9564 31.4062C53.2276 31.2956 53.4462 31.1655 53.6122 31.0161C53.7782 30.8612 53.8944 30.7145 53.9608 30.5762L53.9857 30.5181H55.9447L55.9281 30.5928C55.8561 30.8861 55.7233 31.1849 55.5296 31.4893C55.3415 31.7881 55.0842 32.0675 54.7577 32.3276C54.4367 32.5822 54.0438 32.7897 53.579 32.9502C53.1141 33.1051 52.5746 33.1826 51.9603 33.1826ZM61.9909 33V21.022H66.8303C67.688 21.022 68.424 21.1742 69.0383 21.4785C69.6526 21.7829 70.1229 22.2118 70.4494 22.7651C70.7759 23.3185 70.9392 23.9771 70.9392 24.7407V24.7573C70.9392 25.5487 70.74 26.2515 70.3415 26.8657C69.9486 27.4744 69.398 27.9061 68.6897 28.1606L71.3044 33H68.864L66.5066 28.4927C66.4955 28.4927 66.4789 28.4927 66.4568 28.4927C66.4346 28.4927 66.4153 28.4927 66.3987 28.4927H64.1325V33H61.9909ZM64.1325 26.8491H66.6062C67.2868 26.8491 67.8153 26.6693 68.1916 26.3096C68.5679 25.9499 68.7561 25.4491 68.7561 24.8071V24.7905C68.7561 24.1652 68.5596 23.6699 68.1667 23.3047C67.7793 22.9339 67.2453 22.7485 66.5647 22.7485H64.1325V26.8491ZM76.5023 33.1826C75.6003 33.1826 74.8256 32.9917 74.1781 32.6099C73.5362 32.228 73.0409 31.6857 72.6923 30.9829C72.3437 30.2801 72.1693 29.4473 72.1693 28.4844V28.4761C72.1693 27.5243 72.3409 26.6942 72.684 25.9858C73.0326 25.2775 73.5251 24.7297 74.1615 24.3423C74.7979 23.9494 75.545 23.7529 76.4027 23.7529C77.266 23.7529 78.0076 23.9438 78.6273 24.3257C79.2527 24.702 79.7341 25.2305 80.0717 25.9111C80.4092 26.5918 80.578 27.3887 80.578 28.3018V28.9824H73.2069V27.5962H79.5653L78.5858 28.8911V28.0693C78.5858 27.4661 78.4945 26.9653 78.3119 26.5669C78.1293 26.1685 77.8747 25.8696 77.5482 25.6704C77.2273 25.4712 76.8537 25.3716 76.4276 25.3716C76.0015 25.3716 75.6225 25.4767 75.2904 25.687C74.9639 25.8918 74.7038 26.1961 74.5102 26.6001C74.322 26.9985 74.2279 27.4883 74.2279 28.0693V28.8994C74.2279 29.4583 74.322 29.937 74.5102 30.3354C74.6983 30.7284 74.9639 31.0327 75.307 31.2485C75.6557 31.4588 76.0679 31.564 76.5438 31.564C76.9146 31.564 77.2328 31.5114 77.4984 31.4062C77.7696 31.2956 77.9882 31.1655 78.1542 31.0161C78.3202 30.8612 78.4364 30.7145 78.5028 30.5762L78.5277 30.5181H80.4867L80.4701 30.5928C80.3982 30.8861 80.2654 31.1849 80.0717 31.4893C79.8835 31.7881 79.6262 32.0675 79.2997 32.3276C78.9787 32.5822 78.5858 32.7897 78.121 32.9502C77.6562 33.1051 77.1166 33.1826 76.5023 33.1826ZM82.2149 36.0132V23.9272H84.2818V25.3467H84.4229C84.5889 25.0202 84.8048 24.7407 85.0704 24.5083C85.3415 24.2759 85.6542 24.096 86.0084 23.9688C86.3625 23.8415 86.7527 23.7778 87.1788 23.7778C87.9369 23.7778 88.5927 23.9688 89.1461 24.3506C89.705 24.7324 90.1366 25.2747 90.441 25.9775C90.7509 26.6748 90.9058 27.5021 90.9058 28.4595V28.4761C90.9058 29.439 90.7537 30.269 90.4493 30.9663C90.1449 31.6636 89.7133 32.2031 89.1544 32.585C88.601 32.9613 87.9425 33.1494 87.1788 33.1494C86.7637 33.1494 86.3764 33.0858 86.0167 32.9585C85.657 32.8257 85.3415 32.6403 85.0704 32.4023C84.7992 32.1644 84.5834 31.8822 84.4229 31.5557H84.2818V36.0132H82.2149ZM86.5313 31.4062C87.0017 31.4062 87.4057 31.29 87.7432 31.0576C88.0808 30.8197 88.3409 30.4821 88.5235 30.0449C88.7061 29.6022 88.7974 29.0793 88.7974 28.4761V28.4595C88.7974 27.8452 88.7061 27.3195 88.5235 26.8823C88.3409 26.4451 88.0808 26.1104 87.7432 25.8779C87.4057 25.64 87.0017 25.521 86.5313 25.521C86.0609 25.521 85.6542 25.64 85.3111 25.8779C84.9735 26.1104 84.7107 26.4451 84.5225 26.8823C84.3399 27.3195 84.2486 27.8424 84.2486 28.4512V28.4678C84.2486 29.0765 84.3399 29.6022 84.5225 30.0449C84.7107 30.4821 84.9763 30.8197 85.3194 31.0576C85.6625 31.29 86.0665 31.4062 86.5313 31.4062ZM96.8774 33V21.022H99.3344L102.937 30.2441H103.078L106.672 21.022H109.129V33H107.204V24.4834H106.158L108.283 21.354L103.734 33H102.273L97.7324 21.354L99.8574 24.4834H98.8032V33H96.8774ZM113.912 33.1494C113.342 33.1494 112.83 33.0387 112.377 32.8174C111.928 32.596 111.574 32.2834 111.314 31.8794C111.06 31.4699 110.932 30.9884 110.932 30.4351V30.4185C110.932 29.8817 111.065 29.4196 111.331 29.0322C111.596 28.6393 111.986 28.3322 112.501 28.1108C113.016 27.8895 113.641 27.7594 114.377 27.7207L117.731 27.5132V28.8745L114.668 29.0737C114.087 29.1069 113.658 29.2287 113.381 29.439C113.104 29.6493 112.966 29.9425 112.966 30.3188V30.3354C112.966 30.7228 113.113 31.0244 113.406 31.2402C113.705 31.4561 114.084 31.564 114.543 31.564C114.958 31.564 115.329 31.481 115.655 31.3149C115.982 31.1489 116.239 30.9248 116.427 30.6426C116.616 30.3548 116.71 30.0311 116.71 29.6714V26.7993C116.71 26.3455 116.566 25.9997 116.278 25.7617C115.99 25.5182 115.564 25.3965 115 25.3965C114.529 25.3965 114.145 25.4795 113.846 25.6455C113.547 25.806 113.345 26.0356 113.24 26.3345L113.232 26.3677H111.281L111.289 26.293C111.356 25.7839 111.555 25.3384 111.887 24.9565C112.219 24.5747 112.659 24.2786 113.207 24.0684C113.755 23.8581 114.385 23.7529 115.099 23.7529C115.885 23.7529 116.549 23.8747 117.091 24.1182C117.634 24.3561 118.046 24.7048 118.328 25.1641C118.61 25.6178 118.752 26.1629 118.752 26.7993V33H116.71V31.7549H116.568C116.402 32.0426 116.187 32.2917 115.921 32.502C115.661 32.7122 115.362 32.8727 115.025 32.9834C114.687 33.0941 114.316 33.1494 113.912 33.1494ZM120.115 33L123.053 28.501L120.09 23.9272H122.472L124.282 27.0732H124.423L126.216 23.9272H128.482L125.543 28.4097L128.515 33H126.191L124.331 29.8457H124.19L122.331 33H120.115Z" fill="#4B4647"/>
<path d="M25.7393 52V50.9907H28.5703C29.2601 50.9907 29.7827 50.8532 30.1382 50.5781C30.4937 50.3031 30.6714 49.9032 30.6714 49.3784V49.3657C30.6714 49.0145 30.5889 48.7204 30.4238 48.4834C30.2588 48.2464 30.0112 48.0687 29.6812 47.9502C29.3553 47.8317 28.9491 47.7725 28.4624 47.7725H25.7393V46.7886H28.1387C28.8327 46.7886 29.3532 46.6659 29.7002 46.4204C30.0514 46.175 30.2271 45.811 30.2271 45.3286V45.3159C30.2271 44.8504 30.0684 44.4907 29.751 44.2368C29.4378 43.9787 28.9977 43.8496 28.4307 43.8496H25.7393V42.8403H28.6719C29.2347 42.8403 29.7171 42.9334 30.1191 43.1196C30.5254 43.3058 30.8364 43.5703 31.0522 43.9131C31.2723 44.2516 31.3823 44.6536 31.3823 45.1191V45.1318C31.3823 45.4492 31.3104 45.7476 31.1665 46.0269C31.0269 46.3062 30.8385 46.541 30.6016 46.7314C30.3646 46.9219 30.098 47.0446 29.8018 47.0996V47.2012C30.2207 47.252 30.5825 47.3768 30.8872 47.5757C31.1919 47.7746 31.4268 48.0327 31.5918 48.3501C31.7611 48.6632 31.8457 49.0208 31.8457 49.4229V49.4355C31.8457 49.9688 31.7209 50.4279 31.4712 50.813C31.2257 51.1938 30.8724 51.488 30.4111 51.6953C29.9499 51.8984 29.3934 52 28.7417 52H25.7393ZM25.168 52V42.8403H26.3105V52H25.168ZM35.3712 52.1206C34.9395 52.1206 34.5502 52.0381 34.2032 51.873C33.8604 51.708 33.5875 51.4731 33.3844 51.1685C33.1855 50.8638 33.086 50.5041 33.086 50.0894V50.0767C33.086 49.6704 33.1833 49.3234 33.378 49.0356C33.5727 48.7437 33.8562 48.5151 34.2286 48.3501C34.601 48.1851 35.0517 48.0877 35.5806 48.0581L38.0943 47.9058V48.7881L35.7139 48.9404C35.1934 48.9701 34.8126 49.078 34.5714 49.2642C34.3344 49.4504 34.2159 49.7127 34.2159 50.0513V50.064C34.2159 50.411 34.3471 50.6818 34.6095 50.8765C34.8718 51.0669 35.2019 51.1621 35.5997 51.1621C35.9763 51.1621 36.3106 51.0881 36.6026 50.9399C36.8946 50.7876 37.1231 50.5824 37.2882 50.3242C37.4574 50.0661 37.5421 49.7741 37.5421 49.4482V47.3154C37.5421 46.8923 37.413 46.5706 37.1549 46.3506C36.901 46.1263 36.518 46.0142 36.0059 46.0142C35.5955 46.0142 35.259 46.0882 34.9967 46.2363C34.7343 46.3802 34.5587 46.5854 34.4698 46.8521L34.4635 46.8711H33.359L33.3653 46.833C33.4246 46.4733 33.5727 46.1602 33.8096 45.8936C34.0509 45.6227 34.3619 45.4132 34.7428 45.2651C35.1236 45.1128 35.5574 45.0366 36.044 45.0366C36.6026 45.0366 37.0745 45.1276 37.4596 45.3096C37.8489 45.4915 38.143 45.7539 38.3419 46.0967C38.545 46.4352 38.6466 46.8415 38.6466 47.3154V52H37.5421V50.9907H37.4405C37.2966 51.2319 37.121 51.4372 36.9137 51.6064C36.7105 51.7757 36.4799 51.9048 36.2218 51.9937C35.9636 52.0783 35.6801 52.1206 35.3712 52.1206ZM40.5851 52V45.1572H41.6896V46.1729H41.7912C41.9224 45.8132 42.1445 45.5339 42.4577 45.335C42.7708 45.1361 43.158 45.0366 43.6193 45.0366C43.7251 45.0366 43.8288 45.043 43.9303 45.0557C44.0361 45.0641 44.1165 45.0726 44.1715 45.0811V46.1538C44.0573 46.1326 43.9451 46.1178 43.8351 46.1094C43.7293 46.0967 43.6151 46.0903 43.4923 46.0903C43.1411 46.0903 42.8301 46.1602 42.5592 46.2998C42.2884 46.4395 42.0747 46.6341 41.9181 46.8838C41.7658 47.1335 41.6896 47.4255 41.6896 47.7598V52H40.5851ZM48.8586 52.1206C48.5413 52.1206 48.2471 52.0719 47.9763 51.9746C47.7055 51.8773 47.4643 51.7397 47.2527 51.562C47.0411 51.38 46.8655 51.1621 46.7258 50.9082H46.6243V52H45.5198V42.4404H46.6243V46.2363H46.7258C46.8528 45.9909 47.022 45.7793 47.2336 45.6016C47.4495 45.4238 47.6949 45.2863 47.97 45.189C48.2493 45.0874 48.5455 45.0366 48.8586 45.0366C49.4384 45.0366 49.942 45.1826 50.3694 45.4746C50.801 45.7666 51.1353 46.1771 51.3723 46.7061C51.6093 47.235 51.7278 47.8571 51.7278 48.5723V48.585C51.7278 49.2959 51.6093 49.918 51.3723 50.4512C51.1353 50.9801 50.801 51.3906 50.3694 51.6826C49.942 51.9746 49.4384 52.1206 48.8586 52.1206ZM48.6047 51.1431C49.0237 51.1431 49.3813 51.0415 49.6775 50.8384C49.9737 50.631 50.2001 50.3369 50.3567 49.9561C50.5175 49.571 50.5979 49.1139 50.5979 48.585V48.5723C50.5979 48.0391 50.5175 47.582 50.3567 47.2012C50.2001 46.8203 49.9737 46.5283 49.6775 46.3252C49.3813 46.1178 49.0237 46.0142 48.6047 46.0142C48.19 46.0142 47.8324 46.1178 47.532 46.3252C47.2315 46.5326 47.0009 46.8267 46.8401 47.2075C46.6793 47.5884 46.5989 48.0433 46.5989 48.5723V48.585C46.5989 49.1097 46.6793 49.5646 46.8401 49.9497C47.0009 50.3306 47.2315 50.6247 47.532 50.832C47.8324 51.0394 48.19 51.1431 48.6047 51.1431ZM56.1546 52.1206C55.5029 52.1206 54.9422 51.9767 54.4725 51.689C54.007 51.4012 53.6473 50.995 53.3934 50.4702C53.1437 49.9412 53.0189 49.3192 53.0189 48.604V48.5977C53.0189 47.891 53.1437 47.271 53.3934 46.7378C53.6473 46.2046 54.0049 45.7878 54.4661 45.4873C54.9274 45.1868 55.4669 45.0366 56.0848 45.0366C56.7069 45.0366 57.2401 45.1805 57.6844 45.4683C58.133 45.756 58.4757 46.158 58.7127 46.6743C58.9539 47.1864 59.0745 47.783 59.0745 48.4644V48.896H53.5902V48.0137H58.5096L57.9637 48.8198V48.3818C57.9637 47.8444 57.8833 47.4022 57.7225 47.0552C57.5617 46.7082 57.3395 46.45 57.056 46.2808C56.7724 46.1073 56.4466 46.0205 56.0784 46.0205C55.7103 46.0205 55.3802 46.1115 55.0882 46.2935C54.8004 46.4712 54.5719 46.7357 54.4027 47.0869C54.2334 47.4382 54.1488 47.8698 54.1488 48.3818V48.8198C54.1488 49.3065 54.2313 49.7233 54.3963 50.0703C54.5613 50.4131 54.7962 50.6776 55.1009 50.8638C55.4056 51.0457 55.7653 51.1367 56.18 51.1367C56.4889 51.1367 56.7576 51.0944 56.9862 51.0098C57.2147 50.9251 57.403 50.8172 57.5511 50.686C57.6992 50.5549 57.8029 50.4215 57.8621 50.2861L57.8875 50.229H58.992L58.9793 50.2798C58.9201 50.5125 58.8143 50.7389 58.6619 50.959C58.5138 51.1748 58.3213 51.3716 58.0843 51.5493C57.8473 51.7228 57.5659 51.8625 57.2401 51.9683C56.9184 52.0698 56.5566 52.1206 56.1546 52.1206ZM60.7719 52V42.4404H61.8764V52H60.7719ZM63.98 52V42.4404H65.0845V52H63.98ZM71.4118 52V50.9907H74.2428C74.9326 50.9907 75.4552 50.8532 75.8107 50.5781C76.1662 50.3031 76.3439 49.9032 76.3439 49.3784V49.3657C76.3439 49.0145 76.2614 48.7204 76.0963 48.4834C75.9313 48.2464 75.6837 48.0687 75.3537 47.9502C75.0278 47.8317 74.6216 47.7725 74.1349 47.7725H71.4118V46.7886H73.8112C74.5052 46.7886 75.0257 46.6659 75.3727 46.4204C75.7239 46.175 75.8996 45.811 75.8996 45.3286V45.3159C75.8996 44.8504 75.7409 44.4907 75.4235 44.2368C75.1103 43.9787 74.6702 43.8496 74.1032 43.8496H71.4118V42.8403H74.3444C74.9072 42.8403 75.3896 42.9334 75.7916 43.1196C76.1979 43.3058 76.5089 43.5703 76.7247 43.9131C76.9448 44.2516 77.0548 44.6536 77.0548 45.1191V45.1318C77.0548 45.4492 76.9829 45.7476 76.839 46.0269C76.6994 46.3062 76.511 46.541 76.2741 46.7314C76.0371 46.9219 75.7705 47.0446 75.4743 47.0996V47.2012C75.8932 47.252 76.255 47.3768 76.5597 47.5757C76.8644 47.7746 77.0993 48.0327 77.2643 48.3501C77.4336 48.6632 77.5182 49.0208 77.5182 49.4229V49.4355C77.5182 49.9688 77.3934 50.4279 77.1437 50.813C76.8982 51.1938 76.5449 51.488 76.0836 51.6953C75.6224 51.8984 75.0659 52 74.4142 52H71.4118ZM70.8405 52V42.8403H71.983V52H70.8405ZM81.0437 52.1206C80.612 52.1206 80.2227 52.0381 79.8757 51.873C79.5329 51.708 79.26 51.4731 79.0569 51.1685C78.858 50.8638 78.7585 50.5041 78.7585 50.0894V50.0767C78.7585 49.6704 78.8558 49.3234 79.0505 49.0356C79.2452 48.7437 79.5287 48.5151 79.9011 48.3501C80.2735 48.1851 80.7242 48.0877 81.2531 48.0581L83.7668 47.9058V48.7881L81.3864 48.9404C80.8659 48.9701 80.4851 49.078 80.2439 49.2642C80.0069 49.4504 79.8884 49.7127 79.8884 50.0513V50.064C79.8884 50.411 80.0196 50.6818 80.282 50.8765C80.5443 51.0669 80.8744 51.1621 81.2722 51.1621C81.6488 51.1621 81.9831 51.0881 82.2751 50.9399C82.5671 50.7876 82.7956 50.5824 82.9607 50.3242C83.1299 50.0661 83.2146 49.7741 83.2146 49.4482V47.3154C83.2146 46.8923 83.0855 46.5706 82.8274 46.3506C82.5735 46.1263 82.1905 46.0142 81.6784 46.0142C81.268 46.0142 80.9315 46.0882 80.6692 46.2363C80.4068 46.3802 80.2312 46.5854 80.1423 46.8521L80.136 46.8711H79.0315L79.0378 46.833C79.0971 46.4733 79.2452 46.1602 79.4821 45.8936C79.7234 45.6227 80.0344 45.4132 80.4153 45.2651C80.7961 45.1128 81.2299 45.0366 81.7165 45.0366C82.2751 45.0366 82.747 45.1276 83.132 45.3096C83.5214 45.4915 83.8155 45.7539 84.0144 46.0967C84.2175 46.4352 84.3191 46.8415 84.3191 47.3154V52H83.2146V50.9907H83.113C82.9691 51.2319 82.7935 51.4372 82.5862 51.6064C82.383 51.7757 82.1524 51.9048 81.8943 51.9937C81.6361 52.0783 81.3526 52.1206 81.0437 52.1206ZM89.0569 52.1206C88.4179 52.1206 87.8636 51.9746 87.3938 51.6826C86.9241 51.3906 86.5602 50.978 86.3021 50.4448C86.0439 49.9116 85.9148 49.2832 85.9148 48.5596V48.5469C85.9148 47.8359 86.0418 47.2181 86.2957 46.6934C86.5538 46.1686 86.9178 45.7624 87.3875 45.4746C87.8572 45.1826 88.4116 45.0366 89.0506 45.0366C89.6049 45.0366 90.0831 45.134 90.4852 45.3286C90.8872 45.5233 91.2088 45.7856 91.45 46.1157C91.6912 46.4416 91.8457 46.8076 91.9134 47.2139L91.9197 47.252H90.8216L90.8152 47.2329C90.7306 46.8944 90.5381 46.6066 90.2376 46.3696C89.9371 46.1326 89.5415 46.0142 89.0506 46.0142C88.6401 46.0142 88.2846 46.1178 87.9842 46.3252C87.6837 46.5326 87.451 46.8267 87.2859 47.2075C87.1251 47.5841 87.0447 48.0306 87.0447 48.5469V48.5596C87.0447 49.0843 87.1272 49.5413 87.2923 49.9307C87.4573 50.3158 87.6901 50.6141 87.9905 50.8257C88.291 51.0373 88.6443 51.1431 89.0506 51.1431C89.5118 51.1431 89.8885 51.0436 90.1805 50.8447C90.4725 50.6458 90.6819 50.356 90.8089 49.9751L90.8216 49.937L91.9134 49.9307L91.9007 50.0005C91.8076 50.411 91.6425 50.777 91.4056 51.0986C91.1686 51.416 90.8554 51.6657 90.4661 51.8477C90.0768 52.0296 89.6071 52.1206 89.0569 52.1206ZM93.5155 52V42.4404H94.62V52H93.5155ZM97.8256 52L95.1532 48.6484L95.9657 47.9438L99.2157 52H97.8256ZM94.4804 49.5371L94.4296 48.147H94.7216L97.6796 45.1572H99.0189L95.7689 48.293L95.5023 48.5532L94.4804 49.5371ZM107.149 52.2158C106.48 52.2158 105.896 52.1079 105.397 51.8921C104.902 51.672 104.508 51.3716 104.216 50.9907C103.929 50.6056 103.761 50.1655 103.715 49.6704L103.709 49.6006H104.851L104.857 49.6704C104.887 49.9751 105.003 50.2396 105.207 50.4639C105.414 50.6839 105.689 50.8553 106.032 50.978C106.379 51.1007 106.772 51.1621 107.212 51.1621C107.627 51.1621 107.995 51.0965 108.317 50.9653C108.643 50.8299 108.899 50.6437 109.085 50.4067C109.271 50.1698 109.364 49.8968 109.364 49.5879V49.5815C109.364 49.2007 109.225 48.8812 108.945 48.623C108.666 48.3607 108.211 48.1597 107.581 48.02L106.565 47.7979C105.647 47.5947 104.978 47.2816 104.559 46.8584C104.144 46.431 103.937 45.8851 103.937 45.2207V45.2144C103.941 44.7065 104.079 44.258 104.35 43.8687C104.625 43.4793 105.003 43.1746 105.486 42.9546C105.973 42.7345 106.531 42.6245 107.162 42.6245C107.771 42.6245 108.311 42.7345 108.78 42.9546C109.25 43.1704 109.622 43.4624 109.897 43.8306C110.177 44.1987 110.331 44.6113 110.361 45.0684L110.367 45.1572H109.225L109.212 45.0747C109.17 44.8039 109.06 44.5648 108.882 44.3574C108.704 44.1458 108.467 43.9787 108.171 43.856C107.875 43.7332 107.528 43.674 107.13 43.6782C106.749 43.6782 106.406 43.7375 106.102 43.856C105.797 43.9744 105.554 44.1458 105.372 44.3701C105.194 44.5902 105.105 44.861 105.105 45.1826V45.189C105.105 45.5529 105.24 45.8597 105.511 46.1094C105.782 46.359 106.229 46.5516 106.851 46.687L107.866 46.9155C108.505 47.0552 109.019 47.2371 109.409 47.4614C109.798 47.6857 110.082 47.9608 110.259 48.2866C110.441 48.6082 110.532 48.9891 110.532 49.4292V49.4355C110.532 50.0068 110.393 50.4998 110.113 50.9146C109.834 51.3293 109.44 51.6509 108.933 51.8794C108.425 52.1037 107.83 52.2158 107.149 52.2158ZM116.99 54.2852V50.9717H116.889C116.766 51.2129 116.599 51.4202 116.387 51.5938C116.176 51.763 115.93 51.8942 115.651 51.9873C115.376 52.0762 115.075 52.1206 114.75 52.1206C114.17 52.1206 113.664 51.9746 113.233 51.6826C112.801 51.3906 112.467 50.9801 112.23 50.4512C111.993 49.918 111.874 49.2959 111.874 48.585V48.5723C111.874 47.8571 111.993 47.235 112.23 46.7061C112.467 46.1771 112.801 45.7666 113.233 45.4746C113.664 45.1826 114.17 45.0366 114.75 45.0366C115.059 45.0366 115.348 45.0874 115.619 45.189C115.894 45.2905 116.142 45.4365 116.362 45.627C116.586 45.8132 116.77 46.0374 116.914 46.2998H116.99V45.1572H118.095V54.2852H116.99ZM115.01 51.1431C115.42 51.1431 115.776 51.0394 116.076 50.832C116.377 50.6204 116.609 50.3242 116.775 49.9434C116.94 49.5583 117.022 49.1055 117.022 48.585V48.5723C117.022 48.0475 116.94 47.5947 116.775 47.2139C116.609 46.8288 116.377 46.5326 116.076 46.3252C115.776 46.1178 115.418 46.0142 115.004 46.0142C114.589 46.0142 114.231 46.1178 113.931 46.3252C113.63 46.5283 113.4 46.8203 113.239 47.2012C113.082 47.582 113.004 48.0391 113.004 48.5723V48.585C113.004 49.1139 113.084 49.571 113.245 49.9561C113.406 50.3369 113.635 50.631 113.931 50.8384C114.231 51.0415 114.591 51.1431 115.01 51.1431ZM122.35 52.1206C121.834 52.1206 121.4 52.0233 121.049 51.8286C120.698 51.6297 120.433 51.342 120.256 50.9653C120.082 50.5845 119.995 50.1253 119.995 49.5879V45.1572H121.1V49.3213C121.1 49.9349 121.218 50.3919 121.455 50.6924C121.696 50.9928 122.09 51.1431 122.636 51.1431C122.936 51.1431 123.201 51.0986 123.429 51.0098C123.662 50.9209 123.857 50.7939 124.013 50.6289C124.17 50.4596 124.286 50.2565 124.363 50.0195C124.443 49.7783 124.483 49.5075 124.483 49.207V45.1572H125.588V52H124.483V50.978H124.382C124.272 51.2192 124.121 51.4266 123.931 51.6001C123.74 51.7694 123.512 51.8984 123.245 51.9873C122.983 52.0762 122.685 52.1206 122.35 52.1206ZM129.449 52.1206C129.018 52.1206 128.629 52.0381 128.282 51.873C127.939 51.708 127.666 51.4731 127.463 51.1685C127.264 50.8638 127.164 50.5041 127.164 50.0894V50.0767C127.164 49.6704 127.262 49.3234 127.456 49.0356C127.651 48.7437 127.935 48.5151 128.307 48.3501C128.679 48.1851 129.13 48.0877 129.659 48.0581L132.173 47.9058V48.7881L129.792 48.9404C129.272 48.9701 128.891 49.078 128.65 49.2642C128.413 49.4504 128.294 49.7127 128.294 50.0513V50.064C128.294 50.411 128.425 50.6818 128.688 50.8765C128.95 51.0669 129.28 51.1621 129.678 51.1621C130.055 51.1621 130.389 51.0881 130.681 50.9399C130.973 50.7876 131.201 50.5824 131.366 50.3242C131.536 50.0661 131.62 49.7741 131.62 49.4482V47.3154C131.62 46.8923 131.491 46.5706 131.233 46.3506C130.979 46.1263 130.596 46.0142 130.084 46.0142C129.674 46.0142 129.337 46.0882 129.075 46.2363C128.813 46.3802 128.637 46.5854 128.548 46.8521L128.542 46.8711H127.437L127.444 46.833C127.503 46.4733 127.651 46.1602 127.888 45.8936C128.129 45.6227 128.44 45.4132 128.821 45.2651C129.202 45.1128 129.636 45.0366 130.122 45.0366C130.681 45.0366 131.153 45.1276 131.538 45.3096C131.927 45.4915 132.221 45.7539 132.42 46.0967C132.623 46.4352 132.725 46.8415 132.725 47.3154V52H131.62V50.9907H131.519C131.375 51.2319 131.199 51.4372 130.992 51.6064C130.789 51.7757 130.558 51.9048 130.3 51.9937C130.042 52.0783 129.758 52.1206 129.449 52.1206ZM137.095 52.0508C136.392 52.0508 135.882 51.909 135.565 51.6255C135.252 51.342 135.095 50.8743 135.095 50.2227V46.0713H134.016V45.1572H135.095V43.3862H136.238V45.1572H137.736V46.0713H136.238V49.9434C136.238 50.3454 136.314 50.6353 136.466 50.813C136.619 50.9865 136.872 51.0732 137.228 51.0732C137.325 51.0732 137.408 51.0711 137.475 51.0669C137.547 51.0627 137.634 51.0563 137.736 51.0479V51.9873C137.63 52.0042 137.524 52.019 137.418 52.0317C137.313 52.0444 137.205 52.0508 137.095 52.0508ZM141.528 52.1206C141.02 52.1206 140.571 52.0444 140.182 51.8921C139.793 51.7355 139.48 51.5176 139.243 51.2383C139.01 50.959 138.872 50.631 138.83 50.2544H139.96C140.053 50.5379 140.235 50.7664 140.506 50.9399C140.777 51.1134 141.13 51.2002 141.566 51.2002C141.875 51.2002 142.146 51.1558 142.378 51.0669C142.615 50.9738 142.802 50.849 142.937 50.6924C143.072 50.5316 143.14 50.3475 143.14 50.1401V50.1274C143.14 49.8947 143.047 49.6979 142.861 49.5371C142.675 49.3721 142.37 49.2388 141.947 49.1372L140.887 48.8833C140.459 48.7817 140.108 48.6506 139.833 48.4897C139.558 48.3247 139.355 48.1237 139.224 47.8867C139.092 47.6455 139.027 47.362 139.027 47.0361V47.0298C139.027 46.6489 139.137 46.3083 139.357 46.0078C139.581 45.7074 139.886 45.4704 140.271 45.2969C140.656 45.1234 141.09 45.0366 141.572 45.0366C142.05 45.0366 142.474 45.1128 142.842 45.2651C143.214 45.4132 143.512 45.6248 143.737 45.8999C143.965 46.175 144.105 46.4987 144.156 46.8711H143.07C142.998 46.6003 142.833 46.3802 142.575 46.2109C142.317 46.0417 141.981 45.957 141.566 45.957C141.295 45.957 141.054 46.0015 140.842 46.0903C140.631 46.175 140.463 46.2935 140.341 46.4458C140.218 46.5981 140.157 46.7759 140.157 46.979V46.9917C140.157 47.144 140.197 47.2795 140.277 47.3979C140.358 47.5164 140.483 47.6201 140.652 47.709C140.821 47.7979 141.039 47.8761 141.306 47.9438L142.359 48.1978C143.003 48.3543 143.481 48.5786 143.794 48.8706C144.111 49.1626 144.27 49.554 144.27 50.0449V50.0576C144.27 50.4639 144.149 50.8236 143.908 51.1367C143.667 51.4456 143.339 51.6868 142.924 51.8604C142.514 52.0339 142.048 52.1206 141.528 52.1206Z" fill="#4B4647"/>
<path d="M26.6348 84V83.2734L29.4941 80.1797C29.8535 79.7891 30.1348 79.4668 30.3379 79.2129C30.541 78.9551 30.6836 78.7227 30.7656 78.5156C30.8477 78.3086 30.8887 78.082 30.8887 77.8359V77.8242C30.8887 77.5273 30.8242 77.2617 30.6953 77.0273C30.5664 76.793 30.3828 76.6074 30.1445 76.4707C29.9062 76.334 29.6211 76.2656 29.2891 76.2656C28.9531 76.2656 28.6582 76.3359 28.4043 76.4766C28.1504 76.6133 27.9531 76.8066 27.8125 77.0566C27.6719 77.3027 27.6016 77.5918 27.6016 77.9238L27.5957 77.9355L26.5879 77.9297L26.5762 77.9238C26.5801 77.4238 26.7012 76.9805 26.9395 76.5938C27.1777 76.2031 27.5059 75.8984 27.9238 75.6797C28.3418 75.457 28.8203 75.3457 29.3594 75.3457C29.8516 75.3457 30.2949 75.4492 30.6895 75.6562C31.084 75.8594 31.3945 76.1387 31.6211 76.4941C31.8516 76.8496 31.9668 77.2559 31.9668 77.7129V77.7246C31.9668 78.0449 31.9102 78.3535 31.7969 78.6504C31.6875 78.9473 31.4922 79.2773 31.2109 79.6406C30.9297 80 30.5332 80.4434 30.0215 80.9707L27.8359 83.2266L28.0996 82.7402V83.2266L27.8418 83.0508H32.1074V84H26.6348ZM33.877 84V83.2734L36.7363 80.1797C37.0957 79.7891 37.377 79.4668 37.5801 79.2129C37.7832 78.9551 37.9258 78.7227 38.0078 78.5156C38.0898 78.3086 38.1309 78.082 38.1309 77.8359V77.8242C38.1309 77.5273 38.0664 77.2617 37.9375 77.0273C37.8086 76.793 37.625 76.6074 37.3867 76.4707C37.1484 76.334 36.8633 76.2656 36.5312 76.2656C36.1953 76.2656 35.9004 76.3359 35.6465 76.4766C35.3926 76.6133 35.1953 76.8066 35.0547 77.0566C34.9141 77.3027 34.8438 77.5918 34.8438 77.9238L34.8379 77.9355L33.8301 77.9297L33.8184 77.9238C33.8223 77.4238 33.9434 76.9805 34.1816 76.5938C34.4199 76.2031 34.748 75.8984 35.166 75.6797C35.584 75.457 36.0625 75.3457 36.6016 75.3457C37.0938 75.3457 37.5371 75.4492 37.9316 75.6562C38.3262 75.8594 38.6367 76.1387 38.8633 76.4941C39.0938 76.8496 39.209 77.2559 39.209 77.7129V77.7246C39.209 78.0449 39.1523 78.3535 39.0391 78.6504C38.9297 78.9473 38.7344 79.2773 38.4531 79.6406C38.1719 80 37.7754 80.4434 37.2637 80.9707L35.0781 83.2266L35.3418 82.7402V83.2266L35.084 83.0508H39.3496V84H33.877ZM43.8965 84.1992C43.373 84.1992 42.9062 84.0957 42.4961 83.8887C42.0859 83.6816 41.7559 83.4004 41.5059 83.0449C41.2598 82.6855 41.1152 82.2812 41.0723 81.832L41.0664 81.7676H42.0801L42.0859 81.8145C42.1211 82.084 42.2188 82.3301 42.3789 82.5527C42.543 82.7715 42.7559 82.9453 43.0176 83.0742C43.2832 83.2031 43.5801 83.2676 43.9082 83.2676C44.2832 83.2676 44.6133 83.1855 44.8984 83.0215C45.1836 82.8535 45.4062 82.623 45.5664 82.3301C45.7266 82.0371 45.8066 81.7012 45.8066 81.3223V81.3105C45.8066 80.9355 45.7246 80.6035 45.5605 80.3145C45.4004 80.0215 45.1797 79.793 44.8984 79.6289C44.6172 79.4648 44.293 79.3828 43.9258 79.3828C43.6445 79.3828 43.3848 79.4258 43.1465 79.5117C42.9121 79.5977 42.7031 79.7266 42.5195 79.8984C42.4453 79.9688 42.375 80.0449 42.3086 80.127C42.2461 80.209 42.1875 80.3008 42.1328 80.4023H41.2188L41.6641 75.5449H46.3691V76.4883H42.4961L42.209 79.3477H42.3027C42.4277 79.1562 42.582 78.9961 42.7656 78.8672C42.9492 78.7383 43.1543 78.6406 43.3809 78.5742C43.6113 78.5039 43.8535 78.4688 44.1074 78.4688C44.6387 78.4688 45.1094 78.5918 45.5195 78.8379C45.9297 79.0801 46.252 79.4141 46.4863 79.8398C46.7207 80.2617 46.8379 80.7461 46.8379 81.293V81.3047C46.8379 81.8711 46.7109 82.373 46.457 82.8105C46.207 83.2441 45.8613 83.584 45.4199 83.8301C44.9785 84.0762 44.4707 84.1992 43.8965 84.1992ZM48.6016 84V75.1758H49.6211V84H48.6016ZM54.7188 84.1113C54.4258 84.1113 54.1543 84.0664 53.9043 83.9766C53.6543 83.8867 53.4316 83.7598 53.2363 83.5957C53.041 83.4277 52.8789 83.2266 52.75 82.9922H52.6562V84H51.6367V75.1758H52.6562V78.6797H52.75C52.8672 78.4531 53.0234 78.2578 53.2188 78.0938C53.418 77.9297 53.6445 77.8027 53.8984 77.7129C54.1562 77.6191 54.4297 77.5723 54.7188 77.5723C55.2539 77.5723 55.7188 77.707 56.1133 77.9766C56.5117 78.2461 56.8203 78.625 57.0391 79.1133C57.2578 79.6016 57.3672 80.1758 57.3672 80.8359V80.8477C57.3672 81.5039 57.2578 82.0781 57.0391 82.5703C56.8203 83.0586 56.5117 83.4375 56.1133 83.707C55.7188 83.9766 55.2539 84.1113 54.7188 84.1113ZM54.4844 83.209C54.8711 83.209 55.2012 83.1152 55.4746 82.9277C55.748 82.7363 55.957 82.4648 56.1016 82.1133C56.25 81.7578 56.3242 81.3359 56.3242 80.8477V80.8359C56.3242 80.3438 56.25 79.9219 56.1016 79.5703C55.957 79.2188 55.748 78.9492 55.4746 78.7617C55.2012 78.5703 54.8711 78.4746 54.4844 78.4746C54.1016 78.4746 53.7715 78.5703 53.4941 78.7617C53.2168 78.9531 53.0039 79.2246 52.8555 79.5762C52.707 79.9277 52.6328 80.3477 52.6328 80.8359V80.8477C52.6328 81.332 52.707 81.752 52.8555 82.1074C53.0039 82.459 53.2168 82.7305 53.4941 82.9219C53.7715 83.1133 54.1016 83.209 54.4844 83.209Z" fill="#615B5B"/>
<path d="M28.9805 177.67V170.387H28.8867L26.7363 171.946V170.833L28.9863 169.215H30.0352V177.67H28.9805ZM35.4668 177.87C35.0801 177.87 34.6973 177.795 34.3184 177.647C33.9434 177.499 33.6016 177.258 33.293 176.926C32.9883 176.594 32.7441 176.157 32.5605 175.614C32.377 175.067 32.2852 174.395 32.2852 173.598V173.586C32.2852 172.625 32.4141 171.805 32.6719 171.125C32.9297 170.442 33.3008 169.92 33.7852 169.561C34.2695 169.198 34.8535 169.016 35.5371 169.016C36.0098 169.016 36.4355 169.104 36.8145 169.28C37.1973 169.452 37.5156 169.694 37.7695 170.006C38.0273 170.315 38.2031 170.678 38.2969 171.096L38.3145 171.172H37.2539L37.2305 171.108C37.1445 170.87 37.0215 170.667 36.8613 170.499C36.7051 170.327 36.5137 170.194 36.2871 170.1C36.0645 170.006 35.8105 169.959 35.5254 169.959C35.0137 169.959 34.5977 170.11 34.2773 170.411C33.957 170.708 33.7188 171.104 33.5625 171.6C33.4102 172.092 33.3223 172.633 33.2988 173.223C33.2949 173.274 33.293 173.327 33.293 173.381C33.293 173.432 33.293 173.485 33.293 173.54L33.5449 174.946C33.5449 175.317 33.6289 175.653 33.7969 175.954C33.9688 176.254 34.1992 176.495 34.4883 176.674C34.7773 176.85 35.0996 176.938 35.4551 176.938C35.8105 176.938 36.1328 176.852 36.4219 176.68C36.7109 176.504 36.9395 176.268 37.1074 175.971C37.2793 175.674 37.3652 175.344 37.3652 174.981V174.969C37.3652 174.594 37.2832 174.262 37.1191 173.973C36.959 173.68 36.7363 173.452 36.4512 173.288C36.166 173.12 35.8398 173.036 35.4727 173.036C35.1094 173.036 34.7812 173.118 34.4883 173.282C34.1992 173.446 33.9688 173.672 33.7969 173.961C33.6289 174.247 33.5449 174.573 33.5449 174.94V174.946H33.1992V173.422H33.4043C33.5098 173.192 33.666 172.977 33.873 172.778C34.0801 172.579 34.334 172.418 34.6348 172.297C34.9355 172.176 35.2754 172.116 35.6543 172.116C36.1855 172.116 36.6602 172.239 37.0781 172.485C37.4961 172.731 37.8242 173.067 38.0625 173.493C38.3047 173.918 38.4258 174.403 38.4258 174.946V174.958C38.4258 175.52 38.2969 176.02 38.0391 176.458C37.7852 176.895 37.4355 177.241 36.9902 177.495C36.5449 177.745 36.0371 177.87 35.4668 177.87ZM42.8965 177.87C42.373 177.87 41.9062 177.766 41.4961 177.559C41.0859 177.352 40.7559 177.071 40.5059 176.715C40.2598 176.356 40.1152 175.952 40.0723 175.502L40.0664 175.438H41.0801L41.0859 175.485C41.1211 175.754 41.2188 176 41.3789 176.223C41.543 176.442 41.7559 176.616 42.0176 176.745C42.2832 176.874 42.5801 176.938 42.9082 176.938C43.2832 176.938 43.6133 176.856 43.8984 176.692C44.1836 176.524 44.4062 176.293 44.5664 176C44.7266 175.708 44.8066 175.372 44.8066 174.993V174.981C44.8066 174.606 44.7246 174.274 44.5605 173.985C44.4004 173.692 44.1797 173.463 43.8984 173.299C43.6172 173.135 43.293 173.053 42.9258 173.053C42.6445 173.053 42.3848 173.096 42.1465 173.182C41.9121 173.268 41.7031 173.397 41.5195 173.569C41.4453 173.639 41.375 173.715 41.3086 173.797C41.2461 173.879 41.1875 173.971 41.1328 174.073H40.2188L40.6641 169.215H45.3691V170.159H41.4961L41.209 173.018H41.3027C41.4277 172.827 41.582 172.667 41.7656 172.538C41.9492 172.409 42.1543 172.311 42.3809 172.245C42.6113 172.174 42.8535 172.139 43.1074 172.139C43.6387 172.139 44.1094 172.262 44.5195 172.508C44.9297 172.75 45.252 173.084 45.4863 173.51C45.7207 173.932 45.8379 174.417 45.8379 174.963V174.975C45.8379 175.542 45.7109 176.043 45.457 176.481C45.207 176.915 44.8613 177.254 44.4199 177.5C43.9785 177.747 43.4707 177.87 42.8965 177.87ZM47.6016 177.67V168.846H48.6211V177.67H47.6016ZM53.7188 177.782C53.4258 177.782 53.1543 177.737 52.9043 177.647C52.6543 177.557 52.4316 177.43 52.2363 177.266C52.041 177.098 51.8789 176.897 51.75 176.663H51.6562V177.67H50.6367V168.846H51.6562V172.35H51.75C51.8672 172.124 52.0234 171.928 52.2188 171.764C52.418 171.6 52.6445 171.473 52.8984 171.383C53.1562 171.29 53.4297 171.243 53.7188 171.243C54.2539 171.243 54.7188 171.377 55.1133 171.647C55.5117 171.917 55.8203 172.295 56.0391 172.784C56.2578 173.272 56.3672 173.846 56.3672 174.506V174.518C56.3672 175.174 56.2578 175.749 56.0391 176.241C55.8203 176.729 55.5117 177.108 55.1133 177.377C54.7188 177.647 54.2539 177.782 53.7188 177.782ZM53.4844 176.879C53.8711 176.879 54.2012 176.786 54.4746 176.598C54.748 176.407 54.957 176.135 55.1016 175.784C55.25 175.428 55.3242 175.006 55.3242 174.518V174.506C55.3242 174.014 55.25 173.592 55.1016 173.241C54.957 172.889 54.748 172.62 54.4746 172.432C54.2012 172.241 53.8711 172.145 53.4844 172.145C53.1016 172.145 52.7715 172.241 52.4941 172.432C52.2168 172.624 52.0039 172.895 51.8555 173.247C51.707 173.598 51.6328 174.018 51.6328 174.506V174.518C51.6328 175.002 51.707 175.422 51.8555 175.778C52.0039 176.129 52.2168 176.401 52.4941 176.592C52.7715 176.784 53.1016 176.879 53.4844 176.879Z" fill="#615B5B"/>
<path d="M64.8457 190.199C64.4785 190.199 64.1523 190.146 63.8672 190.041C63.582 189.936 63.3398 189.787 63.1406 189.596C62.9414 189.404 62.7852 189.18 62.6719 188.922C62.5586 188.664 62.4902 188.383 62.4668 188.078L62.4609 187.996H63.5156L63.5215 188.055C63.5449 188.266 63.6074 188.461 63.709 188.641C63.8105 188.816 63.9551 188.959 64.1426 189.068C64.3301 189.174 64.5625 189.227 64.8398 189.227C65.3086 189.227 65.666 189.092 65.9121 188.822C66.1582 188.549 66.2812 188.154 66.2812 187.639V181.545H67.3359V187.65C67.3359 188.182 67.2363 188.639 67.0371 189.021C66.8418 189.4 66.5586 189.691 66.1875 189.895C65.8164 190.098 65.3691 190.199 64.8457 190.199ZM71.0977 190.111C70.6992 190.111 70.3398 190.035 70.0195 189.883C69.7031 189.73 69.4512 189.514 69.2637 189.232C69.0801 188.951 68.9883 188.619 68.9883 188.236V188.225C68.9883 187.85 69.0781 187.529 69.2578 187.264C69.4375 186.994 69.6992 186.783 70.043 186.631C70.3867 186.479 70.8027 186.389 71.291 186.361L73.6113 186.221V187.035L71.4141 187.176C70.9336 187.203 70.582 187.303 70.3594 187.475C70.1406 187.646 70.0312 187.889 70.0312 188.201V188.213C70.0312 188.533 70.1523 188.783 70.3945 188.963C70.6367 189.139 70.9414 189.227 71.3086 189.227C71.6562 189.227 71.9648 189.158 72.2344 189.021C72.5039 188.881 72.7148 188.691 72.8672 188.453C73.0234 188.215 73.1016 187.945 73.1016 187.645V185.676C73.1016 185.285 72.9824 184.988 72.7441 184.785C72.5098 184.578 72.1562 184.475 71.6836 184.475C71.3047 184.475 70.9941 184.543 70.752 184.68C70.5098 184.812 70.3477 185.002 70.2656 185.248L70.2598 185.266H69.2402L69.2461 185.23C69.3008 184.898 69.4375 184.609 69.6562 184.363C69.8789 184.113 70.166 183.92 70.5176 183.783C70.8691 183.643 71.2695 183.572 71.7188 183.572C72.2344 183.572 72.6699 183.656 73.0254 183.824C73.3848 183.992 73.6562 184.234 73.8398 184.551C74.0273 184.863 74.1211 185.238 74.1211 185.676V190H73.1016V189.068H73.0078C72.875 189.291 72.7129 189.48 72.5215 189.637C72.334 189.793 72.1211 189.912 71.8828 189.994C71.6445 190.072 71.3828 190.111 71.0977 190.111ZM75.9844 190V183.684H77.0039V184.633H77.0977C77.2578 184.297 77.4883 184.037 77.7891 183.854C78.0898 183.666 78.4727 183.572 78.9375 183.572C79.6484 183.572 80.1934 183.775 80.5723 184.182C80.9551 184.584 81.1465 185.16 81.1465 185.91V190H80.127V186.156C80.127 185.586 80.0059 185.164 79.7637 184.891C79.5254 184.613 79.1543 184.475 78.6504 184.475C78.3145 184.475 78.0234 184.547 77.7773 184.691C77.5312 184.836 77.3398 185.041 77.2031 185.307C77.0703 185.572 77.0039 185.891 77.0039 186.262V190H75.9844Z" fill="#615B5B"/>
<path d="M98.7812 190V181.545H103.914V182.494H99.8359V185.4H103.58V186.338H99.8359V190H98.7812ZM108.098 190.111C107.496 190.111 106.979 189.979 106.545 189.713C106.115 189.447 105.783 189.072 105.549 188.588C105.318 188.1 105.203 187.525 105.203 186.865V186.859C105.203 186.207 105.318 185.635 105.549 185.143C105.783 184.65 106.113 184.266 106.539 183.988C106.965 183.711 107.463 183.572 108.033 183.572C108.607 183.572 109.1 183.705 109.51 183.971C109.924 184.236 110.24 184.607 110.459 185.084C110.682 185.557 110.793 186.107 110.793 186.736V187.135H105.73V186.32H110.271L109.768 187.064V186.66C109.768 186.164 109.693 185.756 109.545 185.436C109.396 185.115 109.191 184.877 108.93 184.721C108.668 184.561 108.367 184.48 108.027 184.48C107.688 184.48 107.383 184.564 107.113 184.732C106.848 184.896 106.637 185.141 106.48 185.465C106.324 185.789 106.246 186.188 106.246 186.66V187.064C106.246 187.514 106.322 187.898 106.475 188.219C106.627 188.535 106.844 188.779 107.125 188.951C107.406 189.119 107.738 189.203 108.121 189.203C108.406 189.203 108.654 189.164 108.865 189.086C109.076 189.008 109.25 188.908 109.387 188.787C109.523 188.666 109.619 188.543 109.674 188.418L109.697 188.365H110.717L110.705 188.412C110.65 188.627 110.553 188.836 110.412 189.039C110.275 189.238 110.098 189.42 109.879 189.584C109.66 189.744 109.4 189.873 109.1 189.971C108.803 190.064 108.469 190.111 108.098 190.111ZM115.516 190.111C115.223 190.111 114.951 190.066 114.701 189.977C114.451 189.887 114.229 189.76 114.033 189.596C113.838 189.428 113.676 189.227 113.547 188.992H113.453V190H112.434V181.176H113.453V184.68H113.547C113.664 184.453 113.82 184.258 114.016 184.094C114.215 183.93 114.441 183.803 114.695 183.713C114.953 183.619 115.227 183.572 115.516 183.572C116.051 183.572 116.516 183.707 116.91 183.977C117.309 184.246 117.617 184.625 117.836 185.113C118.055 185.602 118.164 186.176 118.164 186.836V186.848C118.164 187.504 118.055 188.078 117.836 188.57C117.617 189.059 117.309 189.438 116.91 189.707C116.516 189.977 116.051 190.111 115.516 190.111ZM115.281 189.209C115.668 189.209 115.998 189.115 116.271 188.928C116.545 188.736 116.754 188.465 116.898 188.113C117.047 187.758 117.121 187.336 117.121 186.848V186.836C117.121 186.344 117.047 185.922 116.898 185.57C116.754 185.219 116.545 184.949 116.271 184.762C115.998 184.57 115.668 184.475 115.281 184.475C114.898 184.475 114.568 184.57 114.291 184.762C114.014 184.953 113.801 185.225 113.652 185.576C113.504 185.928 113.43 186.348 113.43 186.836V186.848C113.43 187.332 113.504 187.752 113.652 188.107C113.801 188.459 114.014 188.73 114.291 188.922C114.568 189.113 114.898 189.209 115.281 189.209Z" fill="#615B5B"/>
<path d="M134.738 190V181.545H135.963L138.857 188.6H138.951L141.846 181.545H143.07V190H142.086V183.543H141.57L142.754 181.779L139.35 190H138.459L135.061 181.779L136.238 183.543H135.723V190H134.738ZM146.832 190.111C146.434 190.111 146.074 190.035 145.754 189.883C145.438 189.73 145.186 189.514 144.998 189.232C144.814 188.951 144.723 188.619 144.723 188.236V188.225C144.723 187.85 144.812 187.529 144.992 187.264C145.172 186.994 145.434 186.783 145.777 186.631C146.121 186.479 146.537 186.389 147.025 186.361L149.346 186.221V187.035L147.148 187.176C146.668 187.203 146.316 187.303 146.094 187.475C145.875 187.646 145.766 187.889 145.766 188.201V188.213C145.766 188.533 145.887 188.783 146.129 188.963C146.371 189.139 146.676 189.227 147.043 189.227C147.391 189.227 147.699 189.158 147.969 189.021C148.238 188.881 148.449 188.691 148.602 188.453C148.758 188.215 148.836 187.945 148.836 187.645V185.676C148.836 185.285 148.717 184.988 148.479 184.785C148.244 184.578 147.891 184.475 147.418 184.475C147.039 184.475 146.729 184.543 146.486 184.68C146.244 184.812 146.082 185.002 146 185.248L145.994 185.266H144.975L144.98 185.23C145.035 184.898 145.172 184.609 145.391 184.363C145.613 184.113 145.9 183.92 146.252 183.783C146.604 183.643 147.004 183.572 147.453 183.572C147.969 183.572 148.404 183.656 148.76 183.824C149.119 183.992 149.391 184.234 149.574 184.551C149.762 184.863 149.855 185.238 149.855 185.676V190H148.836V189.068H148.742C148.609 189.291 148.447 189.48 148.256 189.637C148.068 189.793 147.855 189.912 147.617 189.994C147.379 190.072 147.117 190.111 146.832 190.111ZM151.719 190V183.684H152.738V184.621H152.832C152.953 184.289 153.158 184.031 153.447 183.848C153.736 183.664 154.094 183.572 154.52 183.572C154.617 183.572 154.713 183.578 154.807 183.59C154.904 183.598 154.979 183.605 155.029 183.613V184.604C154.924 184.584 154.82 184.57 154.719 184.562C154.621 184.551 154.516 184.545 154.402 184.545C154.078 184.545 153.791 184.609 153.541 184.738C153.291 184.867 153.094 185.047 152.949 185.277C152.809 185.508 152.738 185.777 152.738 186.086V190H151.719Z" fill="#615B5B"/>
<path d="M171.164 190L174.281 181.545H175.09V182.91H174.756L172.271 190H171.164ZM172.576 187.58L172.904 186.684H176.725L177.053 187.58H172.576ZM177.334 190L174.85 182.91V181.545H175.324L178.441 190H177.334ZM179.795 192.109V183.684H180.814V184.691H180.908C181.037 184.457 181.199 184.258 181.395 184.094C181.59 183.926 181.812 183.797 182.062 183.707C182.312 183.617 182.584 183.572 182.877 183.572C183.412 183.572 183.877 183.709 184.271 183.982C184.67 184.252 184.979 184.631 185.197 185.119C185.416 185.607 185.525 186.18 185.525 186.836V186.848C185.525 187.508 185.416 188.082 185.197 188.57C184.979 189.059 184.67 189.438 184.271 189.707C183.877 189.977 183.412 190.111 182.877 190.111C182.588 190.111 182.314 190.066 182.057 189.977C181.803 189.883 181.576 189.754 181.377 189.59C181.182 189.426 181.025 189.23 180.908 189.004H180.814V192.109H179.795ZM182.643 189.209C183.029 189.209 183.359 189.115 183.633 188.928C183.906 188.736 184.115 188.465 184.26 188.113C184.408 187.758 184.482 187.336 184.482 186.848V186.836C184.482 186.344 184.408 185.922 184.26 185.57C184.115 185.219 183.906 184.949 183.633 184.762C183.359 184.57 183.029 184.475 182.643 184.475C182.26 184.475 181.93 184.57 181.652 184.762C181.375 184.953 181.162 185.225 181.014 185.576C180.865 185.928 180.791 186.348 180.791 186.836V186.848C180.791 187.332 180.865 187.752 181.014 188.107C181.162 188.459 181.375 188.73 181.652 188.922C181.93 189.113 182.26 189.209 182.643 189.209ZM187.119 190V183.684H188.139V184.621H188.232C188.354 184.289 188.559 184.031 188.848 183.848C189.137 183.664 189.494 183.572 189.92 183.572C190.018 183.572 190.113 183.578 190.207 183.59C190.305 183.598 190.379 183.605 190.43 183.613V184.604C190.324 184.584 190.221 184.57 190.119 184.562C190.021 184.551 189.916 184.545 189.803 184.545C189.479 184.545 189.191 184.609 188.941 184.738C188.691 184.867 188.494 185.047 188.35 185.277C188.209 185.508 188.139 185.777 188.139 186.086V190H187.119Z" fill="#615B5B"/>
<path d="M206.383 190V181.545H207.607L210.502 188.6H210.596L213.49 181.545H214.715V190H213.73V183.543H213.215L214.398 181.779L210.994 190H210.104L206.705 181.779L207.883 183.543H207.367V190H206.383ZM218.477 190.111C218.078 190.111 217.719 190.035 217.398 189.883C217.082 189.73 216.83 189.514 216.643 189.232C216.459 188.951 216.367 188.619 216.367 188.236V188.225C216.367 187.85 216.457 187.529 216.637 187.264C216.816 186.994 217.078 186.783 217.422 186.631C217.766 186.479 218.182 186.389 218.67 186.361L220.99 186.221V187.035L218.793 187.176C218.312 187.203 217.961 187.303 217.738 187.475C217.52 187.646 217.41 187.889 217.41 188.201V188.213C217.41 188.533 217.531 188.783 217.773 188.963C218.016 189.139 218.32 189.227 218.688 189.227C219.035 189.227 219.344 189.158 219.613 189.021C219.883 188.881 220.094 188.691 220.246 188.453C220.402 188.215 220.48 187.945 220.48 187.645V185.676C220.48 185.285 220.361 184.988 220.123 184.785C219.889 184.578 219.535 184.475 219.062 184.475C218.684 184.475 218.373 184.543 218.131 184.68C217.889 184.812 217.727 185.002 217.645 185.248L217.639 185.266H216.619L216.625 185.23C216.68 184.898 216.816 184.609 217.035 184.363C217.258 184.113 217.545 183.92 217.896 183.783C218.248 183.643 218.648 183.572 219.098 183.572C219.613 183.572 220.049 183.656 220.404 183.824C220.764 183.992 221.035 184.234 221.219 184.551C221.406 184.863 221.5 185.238 221.5 185.676V190H220.48V189.068H220.387C220.254 189.291 220.092 189.48 219.9 189.637C219.713 189.793 219.5 189.912 219.262 189.994C219.023 190.072 218.762 190.111 218.477 190.111ZM223.668 192.215C223.602 192.215 223.527 192.211 223.445 192.203C223.363 192.199 223.287 192.191 223.217 192.18V191.342C223.279 191.354 223.348 191.361 223.422 191.365C223.496 191.369 223.568 191.371 223.639 191.371C223.928 191.371 224.164 191.297 224.348 191.148C224.535 191 224.686 190.744 224.799 190.381L224.916 190.006L222.578 183.684H223.668L225.613 189.52L225.209 188.881H225.689L225.285 189.52L227.225 183.684H228.297L225.83 190.387C225.658 190.859 225.477 191.229 225.285 191.494C225.094 191.76 224.869 191.945 224.611 192.051C224.357 192.16 224.043 192.215 223.668 192.215Z" fill="#615B5B"/>
<path d="M245.902 190.199C245.535 190.199 245.209 190.146 244.924 190.041C244.639 189.936 244.396 189.787 244.197 189.596C243.998 189.404 243.842 189.18 243.729 188.922C243.615 188.664 243.547 188.383 243.523 188.078L243.518 187.996H244.572L244.578 188.055C244.602 188.266 244.664 188.461 244.766 188.641C244.867 188.816 245.012 188.959 245.199 189.068C245.387 189.174 245.619 189.227 245.896 189.227C246.365 189.227 246.723 189.092 246.969 188.822C247.215 188.549 247.338 188.154 247.338 187.639V181.545H248.393V187.65C248.393 188.182 248.293 188.639 248.094 189.021C247.898 189.4 247.615 189.691 247.244 189.895C246.873 190.098 246.426 190.199 245.902 190.199ZM252.535 190.111C252.059 190.111 251.658 190.021 251.334 189.842C251.01 189.658 250.766 189.393 250.602 189.045C250.441 188.693 250.361 188.27 250.361 187.773V183.684H251.381V187.527C251.381 188.094 251.49 188.516 251.709 188.793C251.932 189.07 252.295 189.209 252.799 189.209C253.076 189.209 253.32 189.168 253.531 189.086C253.746 189.004 253.926 188.887 254.07 188.734C254.215 188.578 254.322 188.391 254.393 188.172C254.467 187.949 254.504 187.699 254.504 187.422V183.684H255.523V190H254.504V189.057H254.41C254.309 189.279 254.17 189.471 253.994 189.631C253.818 189.787 253.607 189.906 253.361 189.988C253.119 190.07 252.844 190.111 252.535 190.111ZM257.428 190V183.684H258.447V184.633H258.541C258.701 184.297 258.932 184.037 259.232 183.854C259.533 183.666 259.916 183.572 260.381 183.572C261.092 183.572 261.637 183.775 262.016 184.182C262.398 184.584 262.59 185.16 262.59 185.91V190H261.57V186.156C261.57 185.586 261.449 185.164 261.207 184.891C260.969 184.613 260.598 184.475 260.094 184.475C259.758 184.475 259.467 184.547 259.221 184.691C258.975 184.836 258.783 185.041 258.646 185.307C258.514 185.572 258.447 185.891 258.447 186.262V190H257.428Z" fill="#615B5B"/>
<path d="M284.139 190.199C283.771 190.199 283.445 190.146 283.16 190.041C282.875 189.936 282.633 189.787 282.434 189.596C282.234 189.404 282.078 189.18 281.965 188.922C281.852 188.664 281.783 188.383 281.76 188.078L281.754 187.996H282.809L282.814 188.055C282.838 188.266 282.9 188.461 283.002 188.641C283.104 188.816 283.248 188.959 283.436 189.068C283.623 189.174 283.855 189.227 284.133 189.227C284.602 189.227 284.959 189.092 285.205 188.822C285.451 188.549 285.574 188.154 285.574 187.639V181.545H286.629V187.65C286.629 188.182 286.529 188.639 286.33 189.021C286.135 189.4 285.852 189.691 285.48 189.895C285.109 190.098 284.662 190.199 284.139 190.199ZM290.771 190.111C290.295 190.111 289.895 190.021 289.57 189.842C289.246 189.658 289.002 189.393 288.838 189.045C288.678 188.693 288.598 188.27 288.598 187.773V183.684H289.617V187.527C289.617 188.094 289.727 188.516 289.945 188.793C290.168 189.07 290.531 189.209 291.035 189.209C291.312 189.209 291.557 189.168 291.768 189.086C291.982 189.004 292.162 188.887 292.307 188.734C292.451 188.578 292.559 188.391 292.629 188.172C292.703 187.949 292.74 187.699 292.74 187.422V183.684H293.76V190H292.74V189.057H292.646C292.545 189.279 292.406 189.471 292.23 189.631C292.055 189.787 291.844 189.906 291.598 189.988C291.355 190.07 291.08 190.111 290.771 190.111ZM295.723 190V181.176H296.742V190H295.723Z" fill="#615B5B"/>
<path d="M315.098 190L318.215 181.545H319.023V182.91H318.689L316.205 190H315.098ZM316.51 187.58L316.838 186.684H320.658L320.986 187.58H316.51ZM321.268 190L318.783 182.91V181.545H319.258L322.375 190H321.268ZM325.551 190.111C325.074 190.111 324.674 190.021 324.35 189.842C324.025 189.658 323.781 189.393 323.617 189.045C323.457 188.693 323.377 188.27 323.377 187.773V183.684H324.396V187.527C324.396 188.094 324.506 188.516 324.725 188.793C324.947 189.07 325.311 189.209 325.814 189.209C326.092 189.209 326.336 189.168 326.547 189.086C326.762 189.004 326.941 188.887 327.086 188.734C327.23 188.578 327.338 188.391 327.408 188.172C327.482 187.949 327.52 187.699 327.52 187.422V183.684H328.539V190H327.52V189.057H327.426C327.324 189.279 327.186 189.471 327.01 189.631C326.834 189.787 326.623 189.906 326.377 189.988C326.135 190.07 325.859 190.111 325.551 190.111ZM333.045 192.227C332.537 192.227 332.094 192.154 331.715 192.01C331.336 191.869 331.033 191.668 330.807 191.406C330.584 191.148 330.445 190.848 330.391 190.504L330.402 190.498H331.457L331.463 190.504C331.518 190.742 331.682 190.938 331.955 191.09C332.229 191.246 332.592 191.324 333.045 191.324C333.611 191.324 334.053 191.195 334.369 190.938C334.689 190.684 334.85 190.324 334.85 189.859V188.582H334.756C334.623 188.812 334.457 189.01 334.258 189.174C334.059 189.338 333.834 189.463 333.584 189.549C333.334 189.631 333.064 189.672 332.775 189.672C332.232 189.672 331.762 189.543 331.363 189.285C330.969 189.023 330.664 188.664 330.449 188.207C330.234 187.75 330.127 187.227 330.127 186.637V186.625C330.127 186.035 330.234 185.512 330.449 185.055C330.668 184.594 330.977 184.232 331.375 183.971C331.773 183.705 332.248 183.572 332.799 183.572C333.096 183.572 333.369 183.619 333.619 183.713C333.869 183.807 334.09 183.939 334.281 184.111C334.477 184.283 334.639 184.488 334.768 184.727H334.838V183.684H335.857V189.912C335.857 190.381 335.742 190.789 335.512 191.137C335.285 191.484 334.961 191.752 334.539 191.939C334.117 192.131 333.619 192.227 333.045 192.227ZM332.998 188.77C333.389 188.77 333.723 188.68 334 188.5C334.281 188.316 334.496 188.064 334.645 187.744C334.797 187.424 334.873 187.055 334.873 186.637V186.625C334.873 186.207 334.797 185.836 334.645 185.512C334.496 185.188 334.281 184.934 334 184.75C333.723 184.566 333.389 184.475 332.998 184.475C332.607 184.475 332.275 184.566 332.002 184.75C331.732 184.934 331.525 185.188 331.381 185.512C331.24 185.836 331.17 186.207 331.17 186.625V186.637C331.17 187.055 331.24 187.424 331.381 187.744C331.525 188.064 331.732 188.316 332.002 188.5C332.275 188.68 332.607 188.77 332.998 188.77Z" fill="#615B5B"/>
<path d="M354.934 190.199C354.316 190.199 353.777 190.1 353.316 189.9C352.859 189.697 352.496 189.42 352.227 189.068C351.961 188.713 351.807 188.307 351.764 187.85L351.758 187.785H352.812L352.818 187.85C352.846 188.131 352.953 188.375 353.141 188.582C353.332 188.785 353.586 188.943 353.902 189.057C354.223 189.17 354.586 189.227 354.992 189.227C355.375 189.227 355.715 189.166 356.012 189.045C356.312 188.92 356.549 188.748 356.721 188.529C356.893 188.311 356.979 188.059 356.979 187.773V187.768C356.979 187.416 356.85 187.121 356.592 186.883C356.334 186.641 355.914 186.455 355.332 186.326L354.395 186.121C353.547 185.934 352.93 185.645 352.543 185.254C352.16 184.859 351.969 184.355 351.969 183.742V183.736C351.973 183.268 352.1 182.854 352.35 182.494C352.604 182.135 352.953 181.854 353.398 181.65C353.848 181.447 354.363 181.346 354.945 181.346C355.508 181.346 356.006 181.447 356.439 181.65C356.873 181.85 357.217 182.119 357.471 182.459C357.729 182.799 357.871 183.18 357.898 183.602L357.904 183.684H356.85L356.838 183.607C356.799 183.357 356.697 183.137 356.533 182.945C356.369 182.75 356.15 182.596 355.877 182.482C355.604 182.369 355.283 182.314 354.916 182.318C354.564 182.318 354.248 182.373 353.967 182.482C353.686 182.592 353.461 182.75 353.293 182.957C353.129 183.16 353.047 183.41 353.047 183.707V183.713C353.047 184.049 353.172 184.332 353.422 184.562C353.672 184.793 354.084 184.971 354.658 185.096L355.596 185.307C356.186 185.436 356.66 185.604 357.02 185.811C357.379 186.018 357.641 186.271 357.805 186.572C357.973 186.869 358.057 187.221 358.057 187.627V187.633C358.057 188.16 357.928 188.615 357.67 188.998C357.412 189.381 357.049 189.678 356.58 189.889C356.111 190.096 355.562 190.199 354.934 190.199ZM362.264 190.111C361.662 190.111 361.145 189.979 360.711 189.713C360.281 189.447 359.949 189.072 359.715 188.588C359.484 188.1 359.369 187.525 359.369 186.865V186.859C359.369 186.207 359.484 185.635 359.715 185.143C359.949 184.65 360.279 184.266 360.705 183.988C361.131 183.711 361.629 183.572 362.199 183.572C362.773 183.572 363.266 183.705 363.676 183.971C364.09 184.236 364.406 184.607 364.625 185.084C364.848 185.557 364.959 186.107 364.959 186.736V187.135H359.896V186.32H364.438L363.934 187.064V186.66C363.934 186.164 363.859 185.756 363.711 185.436C363.562 185.115 363.357 184.877 363.096 184.721C362.834 184.561 362.533 184.48 362.193 184.48C361.854 184.48 361.549 184.564 361.279 184.732C361.014 184.896 360.803 185.141 360.646 185.465C360.49 185.789 360.412 186.188 360.412 186.66V187.064C360.412 187.514 360.488 187.898 360.641 188.219C360.793 188.535 361.01 188.779 361.291 188.951C361.572 189.119 361.904 189.203 362.287 189.203C362.572 189.203 362.82 189.164 363.031 189.086C363.242 189.008 363.416 188.908 363.553 188.787C363.689 188.666 363.785 188.543 363.84 188.418L363.863 188.365H364.883L364.871 188.412C364.816 188.627 364.719 188.836 364.578 189.039C364.441 189.238 364.264 189.42 364.045 189.584C363.826 189.744 363.566 189.873 363.266 189.971C362.969 190.064 362.635 190.111 362.264 190.111ZM366.541 192.109V183.684H367.561V184.691H367.654C367.783 184.457 367.945 184.258 368.141 184.094C368.336 183.926 368.559 183.797 368.809 183.707C369.059 183.617 369.33 183.572 369.623 183.572C370.158 183.572 370.623 183.709 371.018 183.982C371.416 184.252 371.725 184.631 371.943 185.119C372.162 185.607 372.271 186.18 372.271 186.836V186.848C372.271 187.508 372.162 188.082 371.943 188.57C371.725 189.059 371.416 189.438 371.018 189.707C370.623 189.977 370.158 190.111 369.623 190.111C369.334 190.111 369.061 190.066 368.803 189.977C368.549 189.883 368.322 189.754 368.123 189.59C367.928 189.426 367.771 189.23 367.654 189.004H367.561V192.109H366.541ZM369.389 189.209C369.775 189.209 370.105 189.115 370.379 188.928C370.652 188.736 370.861 188.465 371.006 188.113C371.154 187.758 371.229 187.336 371.229 186.848V186.836C371.229 186.344 371.154 185.922 371.006 185.57C370.861 185.219 370.652 184.949 370.379 184.762C370.105 184.57 369.775 184.475 369.389 184.475C369.006 184.475 368.676 184.57 368.398 184.762C368.121 184.953 367.908 185.225 367.76 185.576C367.611 185.928 367.537 186.348 367.537 186.836V186.848C367.537 187.332 367.611 187.752 367.76 188.107C367.908 188.459 368.121 188.73 368.398 188.922C368.676 189.113 369.006 189.209 369.389 189.209Z" fill="#615B5B"/>
<line x1="389.905" y1="128.648" x2="65.25" y2="128.648" stroke="#D0D0D0" stroke-width="0.5" stroke-linecap="round"/>
<line x1="389.905" y1="82.0586" x2="65.25" y2="82.0586" stroke="#D0D0D0" stroke-width="0.5" stroke-linecap="round"/>
<path d="M68.5 168.5C89.5 156.5 137.5 139.5 151 131C164.5 122.5 197 104.741 233 117.5C269 130.259 322.5 103.5 322.5 103.5C322.5 103.5 343.5 83.5 351.5 72C359.5 60.5 367.089 58.7204 378 51.5" stroke="#78C5E5" stroke-width="2"/>
<path d="M151.5 129.5C138 138 90 155 69 167H378.5V50C367.589 57.2204 360 59 352 70.5C344 82 323 102 323 102C323 102 269.5 128.759 233.5 116C197.5 103.241 165 121 151.5 129.5Z" fill="url(#paint0_linear_547_646)"/>
<defs>
<linearGradient id="paint0_linear_547_646" x1="223.75" y1="50" x2="223.75" y2="167" gradientUnits="userSpaceOnUse">
<stop stop-color="#78C5E5" stop-opacity="0.1"/>
<stop offset="1" stop-color="#78C5E5" stop-opacity="0"/>
</linearGradient>
</defs>
</svg>
